%TF.GenerationSoftware,KiCad,Pcbnew,9.0.6*%
%TF.CreationDate,2026-05-01T18:52:39+09:00*%
%TF.ProjectId,TRC2027main,54524332-3032-4376-9d61-696e2e6b6963,rev?*%
%TF.SameCoordinates,Original*%
%TF.FileFunction,Legend,Top*%
%TF.FilePolarity,Positive*%
%FSLAX46Y46*%
G04 Gerber Fmt 4.6, Leading zero omitted, Abs format (unit mm)*
G04 Created by KiCad (PCBNEW 9.0.6) date 2026-05-01 18:52:39*
%MOMM*%
%LPD*%
G01*
G04 APERTURE LIST*
%ADD10C,0.150000*%
%ADD11C,0.300000*%
%ADD12C,0.254000*%
%ADD13C,0.100000*%
%ADD14C,0.200000*%
%ADD15C,0.120000*%
%ADD16C,0.152400*%
%ADD17C,0.000000*%
%ADD18C,0.127000*%
G04 APERTURE END LIST*
D10*
X181804763Y-155350057D02*
X181804763Y-155540533D01*
X181900001Y-155207200D02*
X182900001Y-155207200D01*
X181900001Y-155635771D02*
X182233334Y-155635771D01*
X181947620Y-156111961D02*
X182900001Y-156111961D01*
X181947620Y-155921485D02*
X182900001Y-155921485D01*
X181947620Y-155778628D02*
X181947620Y-156159580D01*
X181947620Y-155492914D02*
X182233334Y-155492914D01*
X182376191Y-155207200D02*
X182376191Y-155683390D01*
X182423810Y-156254819D02*
X182995239Y-156254819D01*
X182423810Y-155778628D02*
X182423810Y-156254819D01*
X182519048Y-155635771D02*
X182900001Y-155635771D01*
X182519048Y-155492914D02*
X182852382Y-155492914D01*
X183042858Y-156111961D02*
X182995239Y-156254819D01*
X181804763Y-155350057D02*
X182995239Y-155350057D01*
X182995239Y-155350057D02*
X182995239Y-155540533D01*
X181947620Y-155778628D02*
X182900001Y-155778628D01*
X182900001Y-155778628D02*
X182900001Y-156111961D01*
X183280953Y-155492914D02*
X183519048Y-155588152D01*
X183376191Y-155159580D02*
X183566667Y-155254819D01*
X183519048Y-155826247D02*
X183328572Y-156254819D01*
X183709524Y-155159580D02*
X184519048Y-155159580D01*
X183852381Y-155778628D02*
X184423810Y-155778628D01*
X183852381Y-155588152D02*
X184423810Y-155588152D01*
X183852381Y-155397676D02*
X183852381Y-155778628D01*
X183900000Y-155921485D02*
X183804762Y-156111961D01*
X183947619Y-156254819D02*
X184138095Y-156254819D01*
X184138095Y-155207200D02*
X184090476Y-155397676D01*
X184138095Y-155778628D02*
X184138095Y-156254819D01*
X184328572Y-155921485D02*
X184471429Y-156064342D01*
X183709524Y-155159580D02*
X183709524Y-155731009D01*
X183709524Y-155731009D02*
X183614286Y-156111961D01*
X183852381Y-155397676D02*
X184423810Y-155397676D01*
X184423810Y-155397676D02*
X184423810Y-155778628D01*
X184757143Y-155397676D02*
X185138095Y-155397676D01*
X185138095Y-155731009D02*
X184757143Y-155826247D01*
X185185714Y-155588152D02*
X185995238Y-155588152D01*
X185185714Y-155778628D02*
X185995238Y-155778628D01*
X185233333Y-155254819D02*
X185947619Y-155254819D01*
X185376190Y-155350057D02*
X185423809Y-155492914D01*
X185614285Y-155111961D02*
X185614285Y-155254819D01*
X185757143Y-155350057D02*
X185757143Y-155492914D01*
X184995238Y-155111961D02*
X184995238Y-156254819D01*
X184995238Y-156254819D02*
X184804762Y-156254819D01*
X185471428Y-155588152D02*
X185328571Y-156016723D01*
X185328571Y-156016723D02*
X185947619Y-156254819D01*
X185804762Y-155778628D02*
X185709524Y-156016723D01*
X185709524Y-156016723D02*
X185614285Y-156111961D01*
X185614285Y-156111961D02*
X185185714Y-156254819D01*
X186233333Y-155731009D02*
X186661904Y-155731009D01*
X186328571Y-155873866D02*
X186233333Y-156111961D01*
X186423809Y-155111961D02*
X186328571Y-155397676D01*
X186471428Y-155683390D02*
X186471428Y-156254819D01*
X186566666Y-155540533D02*
X186661904Y-155778628D01*
X186614285Y-155254819D02*
X186423809Y-155492914D01*
X186661904Y-155826247D02*
X186661904Y-156064342D01*
X186757142Y-155254819D02*
X187471428Y-155254819D01*
X186757142Y-155635771D02*
X186757142Y-155778628D01*
X186804761Y-155445295D02*
X187376190Y-155445295D01*
X187090475Y-155111961D02*
X187090475Y-155445295D01*
X187233333Y-156254819D02*
X187471428Y-156254819D01*
X187233333Y-155778628D02*
X187233333Y-156254819D01*
X187471428Y-156111961D02*
X187471428Y-156254819D01*
X186233333Y-155350057D02*
X186423809Y-155492914D01*
X186423809Y-155492914D02*
X186280952Y-155683390D01*
X186757142Y-155635771D02*
X187423809Y-155635771D01*
X187423809Y-155635771D02*
X187423809Y-155778628D01*
X186947618Y-155826247D02*
X186947618Y-156064342D01*
X186947618Y-156064342D02*
X186709523Y-156254819D01*
X187899999Y-155873866D02*
X188947618Y-155873866D01*
X187899999Y-155540533D02*
X188947618Y-155540533D01*
X188376189Y-155207200D02*
X188376189Y-156254819D01*
X188661904Y-156254819D02*
X188947618Y-156254819D01*
X187899999Y-155207200D02*
X187899999Y-155826247D01*
X187899999Y-155826247D02*
X187852380Y-156111961D01*
X187899999Y-155207200D02*
X188947618Y-155207200D01*
X188947618Y-155207200D02*
X188947618Y-156254819D01*
X168154763Y-155450057D02*
X168154763Y-155640533D01*
X168250001Y-155307200D02*
X169250001Y-155307200D01*
X168250001Y-155735771D02*
X168583334Y-155735771D01*
X168297620Y-156211961D02*
X169250001Y-156211961D01*
X168297620Y-156021485D02*
X169250001Y-156021485D01*
X168297620Y-155878628D02*
X168297620Y-156259580D01*
X168297620Y-155592914D02*
X168583334Y-155592914D01*
X168726191Y-155307200D02*
X168726191Y-155783390D01*
X168773810Y-156354819D02*
X169345239Y-156354819D01*
X168773810Y-155878628D02*
X168773810Y-156354819D01*
X168869048Y-155735771D02*
X169250001Y-155735771D01*
X168869048Y-155592914D02*
X169202382Y-155592914D01*
X169392858Y-156211961D02*
X169345239Y-156354819D01*
X168154763Y-155450057D02*
X169345239Y-155450057D01*
X169345239Y-155450057D02*
X169345239Y-155640533D01*
X168297620Y-155878628D02*
X169250001Y-155878628D01*
X169250001Y-155878628D02*
X169250001Y-156211961D01*
X169630953Y-155592914D02*
X169869048Y-155688152D01*
X169726191Y-155259580D02*
X169916667Y-155354819D01*
X169869048Y-155926247D02*
X169678572Y-156354819D01*
X170059524Y-155259580D02*
X170869048Y-155259580D01*
X170202381Y-155878628D02*
X170773810Y-155878628D01*
X170202381Y-155688152D02*
X170773810Y-155688152D01*
X170202381Y-155497676D02*
X170202381Y-155878628D01*
X170250000Y-156021485D02*
X170154762Y-156211961D01*
X170297619Y-156354819D02*
X170488095Y-156354819D01*
X170488095Y-155307200D02*
X170440476Y-155497676D01*
X170488095Y-155878628D02*
X170488095Y-156354819D01*
X170678572Y-156021485D02*
X170821429Y-156164342D01*
X170059524Y-155259580D02*
X170059524Y-155831009D01*
X170059524Y-155831009D02*
X169964286Y-156211961D01*
X170202381Y-155497676D02*
X170773810Y-155497676D01*
X170773810Y-155497676D02*
X170773810Y-155878628D01*
X171107143Y-155497676D02*
X171488095Y-155497676D01*
X171488095Y-155831009D02*
X171107143Y-155926247D01*
X171535714Y-155688152D02*
X172345238Y-155688152D01*
X171535714Y-155878628D02*
X172345238Y-155878628D01*
X171583333Y-155354819D02*
X172297619Y-155354819D01*
X171726190Y-155450057D02*
X171773809Y-155592914D01*
X171964285Y-155211961D02*
X171964285Y-155354819D01*
X172107143Y-155450057D02*
X172107143Y-155592914D01*
X171345238Y-155211961D02*
X171345238Y-156354819D01*
X171345238Y-156354819D02*
X171154762Y-156354819D01*
X171821428Y-155688152D02*
X171678571Y-156116723D01*
X171678571Y-156116723D02*
X172297619Y-156354819D01*
X172154762Y-155878628D02*
X172059524Y-156116723D01*
X172059524Y-156116723D02*
X171964285Y-156211961D01*
X171964285Y-156211961D02*
X171535714Y-156354819D01*
X172583333Y-155831009D02*
X173011904Y-155831009D01*
X172678571Y-155973866D02*
X172583333Y-156211961D01*
X172773809Y-155211961D02*
X172678571Y-155497676D01*
X172821428Y-155783390D02*
X172821428Y-156354819D01*
X172916666Y-155640533D02*
X173011904Y-155878628D01*
X172964285Y-155354819D02*
X172773809Y-155592914D01*
X173011904Y-155926247D02*
X173011904Y-156164342D01*
X173107142Y-155354819D02*
X173821428Y-155354819D01*
X173107142Y-155735771D02*
X173107142Y-155878628D01*
X173154761Y-155545295D02*
X173726190Y-155545295D01*
X173440475Y-155211961D02*
X173440475Y-155545295D01*
X173583333Y-156354819D02*
X173821428Y-156354819D01*
X173583333Y-155878628D02*
X173583333Y-156354819D01*
X173821428Y-156211961D02*
X173821428Y-156354819D01*
X172583333Y-155450057D02*
X172773809Y-155592914D01*
X172773809Y-155592914D02*
X172630952Y-155783390D01*
X173107142Y-155735771D02*
X173773809Y-155735771D01*
X173773809Y-155735771D02*
X173773809Y-155878628D01*
X173297618Y-155926247D02*
X173297618Y-156164342D01*
X173297618Y-156164342D02*
X173059523Y-156354819D01*
X174249999Y-155973866D02*
X175297618Y-155973866D01*
X174249999Y-155640533D02*
X175297618Y-155640533D01*
X174726189Y-155307200D02*
X174726189Y-156354819D01*
X175011904Y-156354819D02*
X175297618Y-156354819D01*
X174249999Y-155307200D02*
X174249999Y-155926247D01*
X174249999Y-155926247D02*
X174202380Y-156211961D01*
X174249999Y-155307200D02*
X175297618Y-155307200D01*
X175297618Y-155307200D02*
X175297618Y-156354819D01*
D11*
X167590225Y-27385912D02*
X168447368Y-27385912D01*
X168018796Y-28885912D02*
X168018796Y-27385912D01*
X169804510Y-28885912D02*
X169304510Y-28171626D01*
X168947367Y-28885912D02*
X168947367Y-27385912D01*
X168947367Y-27385912D02*
X169518796Y-27385912D01*
X169518796Y-27385912D02*
X169661653Y-27457341D01*
X169661653Y-27457341D02*
X169733082Y-27528769D01*
X169733082Y-27528769D02*
X169804510Y-27671626D01*
X169804510Y-27671626D02*
X169804510Y-27885912D01*
X169804510Y-27885912D02*
X169733082Y-28028769D01*
X169733082Y-28028769D02*
X169661653Y-28100198D01*
X169661653Y-28100198D02*
X169518796Y-28171626D01*
X169518796Y-28171626D02*
X168947367Y-28171626D01*
X171304510Y-28743055D02*
X171233082Y-28814484D01*
X171233082Y-28814484D02*
X171018796Y-28885912D01*
X171018796Y-28885912D02*
X170875939Y-28885912D01*
X170875939Y-28885912D02*
X170661653Y-28814484D01*
X170661653Y-28814484D02*
X170518796Y-28671626D01*
X170518796Y-28671626D02*
X170447367Y-28528769D01*
X170447367Y-28528769D02*
X170375939Y-28243055D01*
X170375939Y-28243055D02*
X170375939Y-28028769D01*
X170375939Y-28028769D02*
X170447367Y-27743055D01*
X170447367Y-27743055D02*
X170518796Y-27600198D01*
X170518796Y-27600198D02*
X170661653Y-27457341D01*
X170661653Y-27457341D02*
X170875939Y-27385912D01*
X170875939Y-27385912D02*
X171018796Y-27385912D01*
X171018796Y-27385912D02*
X171233082Y-27457341D01*
X171233082Y-27457341D02*
X171304510Y-27528769D01*
X171875939Y-27528769D02*
X171947367Y-27457341D01*
X171947367Y-27457341D02*
X172090225Y-27385912D01*
X172090225Y-27385912D02*
X172447367Y-27385912D01*
X172447367Y-27385912D02*
X172590225Y-27457341D01*
X172590225Y-27457341D02*
X172661653Y-27528769D01*
X172661653Y-27528769D02*
X172733082Y-27671626D01*
X172733082Y-27671626D02*
X172733082Y-27814484D01*
X172733082Y-27814484D02*
X172661653Y-28028769D01*
X172661653Y-28028769D02*
X171804510Y-28885912D01*
X171804510Y-28885912D02*
X172733082Y-28885912D01*
X173661653Y-27385912D02*
X173804510Y-27385912D01*
X173804510Y-27385912D02*
X173947367Y-27457341D01*
X173947367Y-27457341D02*
X174018796Y-27528769D01*
X174018796Y-27528769D02*
X174090224Y-27671626D01*
X174090224Y-27671626D02*
X174161653Y-27957341D01*
X174161653Y-27957341D02*
X174161653Y-28314484D01*
X174161653Y-28314484D02*
X174090224Y-28600198D01*
X174090224Y-28600198D02*
X174018796Y-28743055D01*
X174018796Y-28743055D02*
X173947367Y-28814484D01*
X173947367Y-28814484D02*
X173804510Y-28885912D01*
X173804510Y-28885912D02*
X173661653Y-28885912D01*
X173661653Y-28885912D02*
X173518796Y-28814484D01*
X173518796Y-28814484D02*
X173447367Y-28743055D01*
X173447367Y-28743055D02*
X173375938Y-28600198D01*
X173375938Y-28600198D02*
X173304510Y-28314484D01*
X173304510Y-28314484D02*
X173304510Y-27957341D01*
X173304510Y-27957341D02*
X173375938Y-27671626D01*
X173375938Y-27671626D02*
X173447367Y-27528769D01*
X173447367Y-27528769D02*
X173518796Y-27457341D01*
X173518796Y-27457341D02*
X173661653Y-27385912D01*
X174733081Y-27528769D02*
X174804509Y-27457341D01*
X174804509Y-27457341D02*
X174947367Y-27385912D01*
X174947367Y-27385912D02*
X175304509Y-27385912D01*
X175304509Y-27385912D02*
X175447367Y-27457341D01*
X175447367Y-27457341D02*
X175518795Y-27528769D01*
X175518795Y-27528769D02*
X175590224Y-27671626D01*
X175590224Y-27671626D02*
X175590224Y-27814484D01*
X175590224Y-27814484D02*
X175518795Y-28028769D01*
X175518795Y-28028769D02*
X174661652Y-28885912D01*
X174661652Y-28885912D02*
X175590224Y-28885912D01*
X176090223Y-27385912D02*
X177090223Y-27385912D01*
X177090223Y-27385912D02*
X176447366Y-28885912D01*
X167804510Y-31300828D02*
X167804510Y-29800828D01*
X167804510Y-29800828D02*
X168304510Y-30872257D01*
X168304510Y-30872257D02*
X168804510Y-29800828D01*
X168804510Y-29800828D02*
X168804510Y-31300828D01*
X170161654Y-31300828D02*
X170161654Y-30515114D01*
X170161654Y-30515114D02*
X170090225Y-30372257D01*
X170090225Y-30372257D02*
X169947368Y-30300828D01*
X169947368Y-30300828D02*
X169661654Y-30300828D01*
X169661654Y-30300828D02*
X169518796Y-30372257D01*
X170161654Y-31229400D02*
X170018796Y-31300828D01*
X170018796Y-31300828D02*
X169661654Y-31300828D01*
X169661654Y-31300828D02*
X169518796Y-31229400D01*
X169518796Y-31229400D02*
X169447368Y-31086542D01*
X169447368Y-31086542D02*
X169447368Y-30943685D01*
X169447368Y-30943685D02*
X169518796Y-30800828D01*
X169518796Y-30800828D02*
X169661654Y-30729400D01*
X169661654Y-30729400D02*
X170018796Y-30729400D01*
X170018796Y-30729400D02*
X170161654Y-30657971D01*
X170875939Y-31300828D02*
X170875939Y-30300828D01*
X170875939Y-29800828D02*
X170804511Y-29872257D01*
X170804511Y-29872257D02*
X170875939Y-29943685D01*
X170875939Y-29943685D02*
X170947368Y-29872257D01*
X170947368Y-29872257D02*
X170875939Y-29800828D01*
X170875939Y-29800828D02*
X170875939Y-29943685D01*
X171590225Y-30300828D02*
X171590225Y-31300828D01*
X171590225Y-30443685D02*
X171661654Y-30372257D01*
X171661654Y-30372257D02*
X171804511Y-30300828D01*
X171804511Y-30300828D02*
X172018797Y-30300828D01*
X172018797Y-30300828D02*
X172161654Y-30372257D01*
X172161654Y-30372257D02*
X172233083Y-30515114D01*
X172233083Y-30515114D02*
X172233083Y-31300828D01*
X173447368Y-30515114D02*
X173661654Y-30586542D01*
X173661654Y-30586542D02*
X173733083Y-30657971D01*
X173733083Y-30657971D02*
X173804511Y-30800828D01*
X173804511Y-30800828D02*
X173804511Y-31015114D01*
X173804511Y-31015114D02*
X173733083Y-31157971D01*
X173733083Y-31157971D02*
X173661654Y-31229400D01*
X173661654Y-31229400D02*
X173518797Y-31300828D01*
X173518797Y-31300828D02*
X172947368Y-31300828D01*
X172947368Y-31300828D02*
X172947368Y-29800828D01*
X172947368Y-29800828D02*
X173447368Y-29800828D01*
X173447368Y-29800828D02*
X173590226Y-29872257D01*
X173590226Y-29872257D02*
X173661654Y-29943685D01*
X173661654Y-29943685D02*
X173733083Y-30086542D01*
X173733083Y-30086542D02*
X173733083Y-30229400D01*
X173733083Y-30229400D02*
X173661654Y-30372257D01*
X173661654Y-30372257D02*
X173590226Y-30443685D01*
X173590226Y-30443685D02*
X173447368Y-30515114D01*
X173447368Y-30515114D02*
X172947368Y-30515114D01*
X174661654Y-31300828D02*
X174518797Y-31229400D01*
X174518797Y-31229400D02*
X174447368Y-31157971D01*
X174447368Y-31157971D02*
X174375940Y-31015114D01*
X174375940Y-31015114D02*
X174375940Y-30586542D01*
X174375940Y-30586542D02*
X174447368Y-30443685D01*
X174447368Y-30443685D02*
X174518797Y-30372257D01*
X174518797Y-30372257D02*
X174661654Y-30300828D01*
X174661654Y-30300828D02*
X174875940Y-30300828D01*
X174875940Y-30300828D02*
X175018797Y-30372257D01*
X175018797Y-30372257D02*
X175090226Y-30443685D01*
X175090226Y-30443685D02*
X175161654Y-30586542D01*
X175161654Y-30586542D02*
X175161654Y-31015114D01*
X175161654Y-31015114D02*
X175090226Y-31157971D01*
X175090226Y-31157971D02*
X175018797Y-31229400D01*
X175018797Y-31229400D02*
X174875940Y-31300828D01*
X174875940Y-31300828D02*
X174661654Y-31300828D01*
X176447369Y-31300828D02*
X176447369Y-30515114D01*
X176447369Y-30515114D02*
X176375940Y-30372257D01*
X176375940Y-30372257D02*
X176233083Y-30300828D01*
X176233083Y-30300828D02*
X175947369Y-30300828D01*
X175947369Y-30300828D02*
X175804511Y-30372257D01*
X176447369Y-31229400D02*
X176304511Y-31300828D01*
X176304511Y-31300828D02*
X175947369Y-31300828D01*
X175947369Y-31300828D02*
X175804511Y-31229400D01*
X175804511Y-31229400D02*
X175733083Y-31086542D01*
X175733083Y-31086542D02*
X175733083Y-30943685D01*
X175733083Y-30943685D02*
X175804511Y-30800828D01*
X175804511Y-30800828D02*
X175947369Y-30729400D01*
X175947369Y-30729400D02*
X176304511Y-30729400D01*
X176304511Y-30729400D02*
X176447369Y-30657971D01*
X177161654Y-31300828D02*
X177161654Y-30300828D01*
X177161654Y-30586542D02*
X177233083Y-30443685D01*
X177233083Y-30443685D02*
X177304512Y-30372257D01*
X177304512Y-30372257D02*
X177447369Y-30300828D01*
X177447369Y-30300828D02*
X177590226Y-30300828D01*
X178733083Y-31300828D02*
X178733083Y-29800828D01*
X178733083Y-31229400D02*
X178590225Y-31300828D01*
X178590225Y-31300828D02*
X178304511Y-31300828D01*
X178304511Y-31300828D02*
X178161654Y-31229400D01*
X178161654Y-31229400D02*
X178090225Y-31157971D01*
X178090225Y-31157971D02*
X178018797Y-31015114D01*
X178018797Y-31015114D02*
X178018797Y-30586542D01*
X178018797Y-30586542D02*
X178090225Y-30443685D01*
X178090225Y-30443685D02*
X178161654Y-30372257D01*
X178161654Y-30372257D02*
X178304511Y-30300828D01*
X178304511Y-30300828D02*
X178590225Y-30300828D01*
X178590225Y-30300828D02*
X178733083Y-30372257D01*
X179090226Y-31443685D02*
X180233083Y-31443685D01*
X181375940Y-31300828D02*
X180518797Y-31300828D01*
X180947368Y-31300828D02*
X180947368Y-29800828D01*
X180947368Y-29800828D02*
X180804511Y-30015114D01*
X180804511Y-30015114D02*
X180661654Y-30157971D01*
X180661654Y-30157971D02*
X180518797Y-30229400D01*
X182518796Y-30515114D02*
X182018796Y-30515114D01*
X182018796Y-31300828D02*
X182018796Y-29800828D01*
X182018796Y-29800828D02*
X182733082Y-29800828D01*
X182947368Y-31443685D02*
X184090225Y-31443685D01*
X184233082Y-29800828D02*
X184733082Y-31300828D01*
X184733082Y-31300828D02*
X185233082Y-29800828D01*
X186304510Y-31229400D02*
X186161653Y-31300828D01*
X186161653Y-31300828D02*
X185875939Y-31300828D01*
X185875939Y-31300828D02*
X185733081Y-31229400D01*
X185733081Y-31229400D02*
X185661653Y-31086542D01*
X185661653Y-31086542D02*
X185661653Y-30515114D01*
X185661653Y-30515114D02*
X185733081Y-30372257D01*
X185733081Y-30372257D02*
X185875939Y-30300828D01*
X185875939Y-30300828D02*
X186161653Y-30300828D01*
X186161653Y-30300828D02*
X186304510Y-30372257D01*
X186304510Y-30372257D02*
X186375939Y-30515114D01*
X186375939Y-30515114D02*
X186375939Y-30657971D01*
X186375939Y-30657971D02*
X185661653Y-30800828D01*
X187018795Y-31300828D02*
X187018795Y-30300828D01*
X187018795Y-30586542D02*
X187090224Y-30443685D01*
X187090224Y-30443685D02*
X187161653Y-30372257D01*
X187161653Y-30372257D02*
X187304510Y-30300828D01*
X187304510Y-30300828D02*
X187447367Y-30300828D01*
X187947366Y-31157971D02*
X188018795Y-31229400D01*
X188018795Y-31229400D02*
X187947366Y-31300828D01*
X187947366Y-31300828D02*
X187875938Y-31229400D01*
X187875938Y-31229400D02*
X187947366Y-31157971D01*
X187947366Y-31157971D02*
X187947366Y-31300828D01*
X189447367Y-31300828D02*
X188590224Y-31300828D01*
X189018795Y-31300828D02*
X189018795Y-29800828D01*
X189018795Y-29800828D02*
X188875938Y-30015114D01*
X188875938Y-30015114D02*
X188733081Y-30157971D01*
X188733081Y-30157971D02*
X188590224Y-30229400D01*
D12*
X179597856Y-36449318D02*
X179597856Y-35179318D01*
X179597856Y-35179318D02*
X180081666Y-35179318D01*
X180081666Y-35179318D02*
X180202618Y-35239794D01*
X180202618Y-35239794D02*
X180263095Y-35300270D01*
X180263095Y-35300270D02*
X180323571Y-35421222D01*
X180323571Y-35421222D02*
X180323571Y-35602651D01*
X180323571Y-35602651D02*
X180263095Y-35723603D01*
X180263095Y-35723603D02*
X180202618Y-35784080D01*
X180202618Y-35784080D02*
X180081666Y-35844556D01*
X180081666Y-35844556D02*
X179597856Y-35844556D01*
X180807380Y-36388842D02*
X180988809Y-36449318D01*
X180988809Y-36449318D02*
X181291190Y-36449318D01*
X181291190Y-36449318D02*
X181412142Y-36388842D01*
X181412142Y-36388842D02*
X181472618Y-36328365D01*
X181472618Y-36328365D02*
X181533095Y-36207413D01*
X181533095Y-36207413D02*
X181533095Y-36086461D01*
X181533095Y-36086461D02*
X181472618Y-35965508D01*
X181472618Y-35965508D02*
X181412142Y-35905032D01*
X181412142Y-35905032D02*
X181291190Y-35844556D01*
X181291190Y-35844556D02*
X181049285Y-35784080D01*
X181049285Y-35784080D02*
X180928333Y-35723603D01*
X180928333Y-35723603D02*
X180867856Y-35663127D01*
X180867856Y-35663127D02*
X180807380Y-35542175D01*
X180807380Y-35542175D02*
X180807380Y-35421222D01*
X180807380Y-35421222D02*
X180867856Y-35300270D01*
X180867856Y-35300270D02*
X180928333Y-35239794D01*
X180928333Y-35239794D02*
X181049285Y-35179318D01*
X181049285Y-35179318D02*
X181351666Y-35179318D01*
X181351666Y-35179318D02*
X181533095Y-35239794D01*
X182742619Y-36449318D02*
X182016904Y-36449318D01*
X182379761Y-36449318D02*
X182379761Y-35179318D01*
X182379761Y-35179318D02*
X182258809Y-35360746D01*
X182258809Y-35360746D02*
X182137857Y-35481699D01*
X182137857Y-35481699D02*
X182016904Y-35542175D01*
D10*
X262916666Y-117879819D02*
X262916666Y-118594104D01*
X262916666Y-118594104D02*
X262869047Y-118736961D01*
X262869047Y-118736961D02*
X262773809Y-118832200D01*
X262773809Y-118832200D02*
X262630952Y-118879819D01*
X262630952Y-118879819D02*
X262535714Y-118879819D01*
X263821428Y-118213152D02*
X263821428Y-118879819D01*
X263583333Y-117832200D02*
X263345238Y-118546485D01*
X263345238Y-118546485D02*
X263964285Y-118546485D01*
X171994819Y-128728094D02*
X170994819Y-128728094D01*
X170994819Y-128728094D02*
X170994819Y-128489999D01*
X170994819Y-128489999D02*
X171042438Y-128347142D01*
X171042438Y-128347142D02*
X171137676Y-128251904D01*
X171137676Y-128251904D02*
X171232914Y-128204285D01*
X171232914Y-128204285D02*
X171423390Y-128156666D01*
X171423390Y-128156666D02*
X171566247Y-128156666D01*
X171566247Y-128156666D02*
X171756723Y-128204285D01*
X171756723Y-128204285D02*
X171851961Y-128251904D01*
X171851961Y-128251904D02*
X171947200Y-128347142D01*
X171947200Y-128347142D02*
X171994819Y-128489999D01*
X171994819Y-128489999D02*
X171994819Y-128728094D01*
X171994819Y-127204285D02*
X171994819Y-127775713D01*
X171994819Y-127489999D02*
X170994819Y-127489999D01*
X170994819Y-127489999D02*
X171137676Y-127585237D01*
X171137676Y-127585237D02*
X171232914Y-127680475D01*
X171232914Y-127680475D02*
X171280533Y-127775713D01*
X253454491Y-86609580D02*
X253406872Y-86657200D01*
X253406872Y-86657200D02*
X253264015Y-86704819D01*
X253264015Y-86704819D02*
X253168777Y-86704819D01*
X253168777Y-86704819D02*
X253025920Y-86657200D01*
X253025920Y-86657200D02*
X252930682Y-86561961D01*
X252930682Y-86561961D02*
X252883063Y-86466723D01*
X252883063Y-86466723D02*
X252835444Y-86276247D01*
X252835444Y-86276247D02*
X252835444Y-86133390D01*
X252835444Y-86133390D02*
X252883063Y-85942914D01*
X252883063Y-85942914D02*
X252930682Y-85847676D01*
X252930682Y-85847676D02*
X253025920Y-85752438D01*
X253025920Y-85752438D02*
X253168777Y-85704819D01*
X253168777Y-85704819D02*
X253264015Y-85704819D01*
X253264015Y-85704819D02*
X253406872Y-85752438D01*
X253406872Y-85752438D02*
X253454491Y-85800057D01*
X254406872Y-86704819D02*
X253835444Y-86704819D01*
X254121158Y-86704819D02*
X254121158Y-85704819D01*
X254121158Y-85704819D02*
X254025920Y-85847676D01*
X254025920Y-85847676D02*
X253930682Y-85942914D01*
X253930682Y-85942914D02*
X253835444Y-85990533D01*
X255359253Y-86704819D02*
X254787825Y-86704819D01*
X255073539Y-86704819D02*
X255073539Y-85704819D01*
X255073539Y-85704819D02*
X254978301Y-85847676D01*
X254978301Y-85847676D02*
X254883063Y-85942914D01*
X254883063Y-85942914D02*
X254787825Y-85990533D01*
X162454819Y-128743094D02*
X161454819Y-128743094D01*
X161454819Y-128743094D02*
X161454819Y-128504999D01*
X161454819Y-128504999D02*
X161502438Y-128362142D01*
X161502438Y-128362142D02*
X161597676Y-128266904D01*
X161597676Y-128266904D02*
X161692914Y-128219285D01*
X161692914Y-128219285D02*
X161883390Y-128171666D01*
X161883390Y-128171666D02*
X162026247Y-128171666D01*
X162026247Y-128171666D02*
X162216723Y-128219285D01*
X162216723Y-128219285D02*
X162311961Y-128266904D01*
X162311961Y-128266904D02*
X162407200Y-128362142D01*
X162407200Y-128362142D02*
X162454819Y-128504999D01*
X162454819Y-128504999D02*
X162454819Y-128743094D01*
X161550057Y-127790713D02*
X161502438Y-127743094D01*
X161502438Y-127743094D02*
X161454819Y-127647856D01*
X161454819Y-127647856D02*
X161454819Y-127409761D01*
X161454819Y-127409761D02*
X161502438Y-127314523D01*
X161502438Y-127314523D02*
X161550057Y-127266904D01*
X161550057Y-127266904D02*
X161645295Y-127219285D01*
X161645295Y-127219285D02*
X161740533Y-127219285D01*
X161740533Y-127219285D02*
X161883390Y-127266904D01*
X161883390Y-127266904D02*
X162454819Y-127838332D01*
X162454819Y-127838332D02*
X162454819Y-127219285D01*
D12*
X185562618Y-98824318D02*
X185562618Y-97554318D01*
X185562618Y-97554318D02*
X185864999Y-97554318D01*
X185864999Y-97554318D02*
X186046428Y-97614794D01*
X186046428Y-97614794D02*
X186167380Y-97735746D01*
X186167380Y-97735746D02*
X186227857Y-97856699D01*
X186227857Y-97856699D02*
X186288333Y-98098603D01*
X186288333Y-98098603D02*
X186288333Y-98280032D01*
X186288333Y-98280032D02*
X186227857Y-98521937D01*
X186227857Y-98521937D02*
X186167380Y-98642889D01*
X186167380Y-98642889D02*
X186046428Y-98763842D01*
X186046428Y-98763842D02*
X185864999Y-98824318D01*
X185864999Y-98824318D02*
X185562618Y-98824318D01*
X187014047Y-98098603D02*
X186893095Y-98038127D01*
X186893095Y-98038127D02*
X186832618Y-97977651D01*
X186832618Y-97977651D02*
X186772142Y-97856699D01*
X186772142Y-97856699D02*
X186772142Y-97796222D01*
X186772142Y-97796222D02*
X186832618Y-97675270D01*
X186832618Y-97675270D02*
X186893095Y-97614794D01*
X186893095Y-97614794D02*
X187014047Y-97554318D01*
X187014047Y-97554318D02*
X187255952Y-97554318D01*
X187255952Y-97554318D02*
X187376904Y-97614794D01*
X187376904Y-97614794D02*
X187437380Y-97675270D01*
X187437380Y-97675270D02*
X187497857Y-97796222D01*
X187497857Y-97796222D02*
X187497857Y-97856699D01*
X187497857Y-97856699D02*
X187437380Y-97977651D01*
X187437380Y-97977651D02*
X187376904Y-98038127D01*
X187376904Y-98038127D02*
X187255952Y-98098603D01*
X187255952Y-98098603D02*
X187014047Y-98098603D01*
X187014047Y-98098603D02*
X186893095Y-98159080D01*
X186893095Y-98159080D02*
X186832618Y-98219556D01*
X186832618Y-98219556D02*
X186772142Y-98340508D01*
X186772142Y-98340508D02*
X186772142Y-98582413D01*
X186772142Y-98582413D02*
X186832618Y-98703365D01*
X186832618Y-98703365D02*
X186893095Y-98763842D01*
X186893095Y-98763842D02*
X187014047Y-98824318D01*
X187014047Y-98824318D02*
X187255952Y-98824318D01*
X187255952Y-98824318D02*
X187376904Y-98763842D01*
X187376904Y-98763842D02*
X187437380Y-98703365D01*
X187437380Y-98703365D02*
X187497857Y-98582413D01*
X187497857Y-98582413D02*
X187497857Y-98340508D01*
X187497857Y-98340508D02*
X187437380Y-98219556D01*
X187437380Y-98219556D02*
X187376904Y-98159080D01*
X187376904Y-98159080D02*
X187255952Y-98098603D01*
D10*
X261940476Y-30379819D02*
X261940476Y-31094104D01*
X261940476Y-31094104D02*
X261892857Y-31236961D01*
X261892857Y-31236961D02*
X261797619Y-31332200D01*
X261797619Y-31332200D02*
X261654762Y-31379819D01*
X261654762Y-31379819D02*
X261559524Y-31379819D01*
X262369048Y-30475057D02*
X262416667Y-30427438D01*
X262416667Y-30427438D02*
X262511905Y-30379819D01*
X262511905Y-30379819D02*
X262750000Y-30379819D01*
X262750000Y-30379819D02*
X262845238Y-30427438D01*
X262845238Y-30427438D02*
X262892857Y-30475057D01*
X262892857Y-30475057D02*
X262940476Y-30570295D01*
X262940476Y-30570295D02*
X262940476Y-30665533D01*
X262940476Y-30665533D02*
X262892857Y-30808390D01*
X262892857Y-30808390D02*
X262321429Y-31379819D01*
X262321429Y-31379819D02*
X262940476Y-31379819D01*
X263511905Y-30808390D02*
X263416667Y-30760771D01*
X263416667Y-30760771D02*
X263369048Y-30713152D01*
X263369048Y-30713152D02*
X263321429Y-30617914D01*
X263321429Y-30617914D02*
X263321429Y-30570295D01*
X263321429Y-30570295D02*
X263369048Y-30475057D01*
X263369048Y-30475057D02*
X263416667Y-30427438D01*
X263416667Y-30427438D02*
X263511905Y-30379819D01*
X263511905Y-30379819D02*
X263702381Y-30379819D01*
X263702381Y-30379819D02*
X263797619Y-30427438D01*
X263797619Y-30427438D02*
X263845238Y-30475057D01*
X263845238Y-30475057D02*
X263892857Y-30570295D01*
X263892857Y-30570295D02*
X263892857Y-30617914D01*
X263892857Y-30617914D02*
X263845238Y-30713152D01*
X263845238Y-30713152D02*
X263797619Y-30760771D01*
X263797619Y-30760771D02*
X263702381Y-30808390D01*
X263702381Y-30808390D02*
X263511905Y-30808390D01*
X263511905Y-30808390D02*
X263416667Y-30856009D01*
X263416667Y-30856009D02*
X263369048Y-30903628D01*
X263369048Y-30903628D02*
X263321429Y-30998866D01*
X263321429Y-30998866D02*
X263321429Y-31189342D01*
X263321429Y-31189342D02*
X263369048Y-31284580D01*
X263369048Y-31284580D02*
X263416667Y-31332200D01*
X263416667Y-31332200D02*
X263511905Y-31379819D01*
X263511905Y-31379819D02*
X263702381Y-31379819D01*
X263702381Y-31379819D02*
X263797619Y-31332200D01*
X263797619Y-31332200D02*
X263845238Y-31284580D01*
X263845238Y-31284580D02*
X263892857Y-31189342D01*
X263892857Y-31189342D02*
X263892857Y-30998866D01*
X263892857Y-30998866D02*
X263845238Y-30903628D01*
X263845238Y-30903628D02*
X263797619Y-30856009D01*
X263797619Y-30856009D02*
X263702381Y-30808390D01*
D13*
X163542580Y-60738095D02*
X162733057Y-60738095D01*
X162733057Y-60738095D02*
X162637819Y-60785714D01*
X162637819Y-60785714D02*
X162590200Y-60833333D01*
X162590200Y-60833333D02*
X162542580Y-60928571D01*
X162542580Y-60928571D02*
X162542580Y-61119047D01*
X162542580Y-61119047D02*
X162590200Y-61214285D01*
X162590200Y-61214285D02*
X162637819Y-61261904D01*
X162637819Y-61261904D02*
X162733057Y-61309523D01*
X162733057Y-61309523D02*
X163542580Y-61309523D01*
X162542580Y-62309523D02*
X162542580Y-61738095D01*
X162542580Y-62023809D02*
X163542580Y-62023809D01*
X163542580Y-62023809D02*
X163399723Y-61928571D01*
X163399723Y-61928571D02*
X163304485Y-61833333D01*
X163304485Y-61833333D02*
X163256866Y-61738095D01*
D10*
X169454819Y-142783334D02*
X170169104Y-142783334D01*
X170169104Y-142783334D02*
X170311961Y-142830953D01*
X170311961Y-142830953D02*
X170407200Y-142926191D01*
X170407200Y-142926191D02*
X170454819Y-143069048D01*
X170454819Y-143069048D02*
X170454819Y-143164286D01*
X170454819Y-141783334D02*
X170454819Y-142354762D01*
X170454819Y-142069048D02*
X169454819Y-142069048D01*
X169454819Y-142069048D02*
X169597676Y-142164286D01*
X169597676Y-142164286D02*
X169692914Y-142259524D01*
X169692914Y-142259524D02*
X169740533Y-142354762D01*
X190114700Y-133771428D02*
X190114700Y-132628571D01*
X190686128Y-133199999D02*
X189543271Y-133199999D01*
X190114700Y-152771428D02*
X190114700Y-151628571D01*
X171609580Y-101416666D02*
X171657200Y-101464285D01*
X171657200Y-101464285D02*
X171704819Y-101607142D01*
X171704819Y-101607142D02*
X171704819Y-101702380D01*
X171704819Y-101702380D02*
X171657200Y-101845237D01*
X171657200Y-101845237D02*
X171561961Y-101940475D01*
X171561961Y-101940475D02*
X171466723Y-101988094D01*
X171466723Y-101988094D02*
X171276247Y-102035713D01*
X171276247Y-102035713D02*
X171133390Y-102035713D01*
X171133390Y-102035713D02*
X170942914Y-101988094D01*
X170942914Y-101988094D02*
X170847676Y-101940475D01*
X170847676Y-101940475D02*
X170752438Y-101845237D01*
X170752438Y-101845237D02*
X170704819Y-101702380D01*
X170704819Y-101702380D02*
X170704819Y-101607142D01*
X170704819Y-101607142D02*
X170752438Y-101464285D01*
X170752438Y-101464285D02*
X170800057Y-101416666D01*
X170704819Y-101083332D02*
X170704819Y-100416666D01*
X170704819Y-100416666D02*
X171704819Y-100845237D01*
X175265476Y-113954819D02*
X175265476Y-112954819D01*
X175265476Y-112954819D02*
X175598809Y-113669104D01*
X175598809Y-113669104D02*
X175932142Y-112954819D01*
X175932142Y-112954819D02*
X175932142Y-113954819D01*
X176408333Y-113954819D02*
X176408333Y-112954819D01*
X176408333Y-112954819D02*
X176646428Y-112954819D01*
X176646428Y-112954819D02*
X176789285Y-113002438D01*
X176789285Y-113002438D02*
X176884523Y-113097676D01*
X176884523Y-113097676D02*
X176932142Y-113192914D01*
X176932142Y-113192914D02*
X176979761Y-113383390D01*
X176979761Y-113383390D02*
X176979761Y-113526247D01*
X176979761Y-113526247D02*
X176932142Y-113716723D01*
X176932142Y-113716723D02*
X176884523Y-113811961D01*
X176884523Y-113811961D02*
X176789285Y-113907200D01*
X176789285Y-113907200D02*
X176646428Y-113954819D01*
X176646428Y-113954819D02*
X176408333Y-113954819D01*
X177932142Y-113954819D02*
X177360714Y-113954819D01*
X177646428Y-113954819D02*
X177646428Y-112954819D01*
X177646428Y-112954819D02*
X177551190Y-113097676D01*
X177551190Y-113097676D02*
X177455952Y-113192914D01*
X177455952Y-113192914D02*
X177360714Y-113240533D01*
D12*
X173203365Y-45961666D02*
X173263842Y-46022142D01*
X173263842Y-46022142D02*
X173324318Y-46203571D01*
X173324318Y-46203571D02*
X173324318Y-46324523D01*
X173324318Y-46324523D02*
X173263842Y-46505952D01*
X173263842Y-46505952D02*
X173142889Y-46626904D01*
X173142889Y-46626904D02*
X173021937Y-46687381D01*
X173021937Y-46687381D02*
X172780032Y-46747857D01*
X172780032Y-46747857D02*
X172598603Y-46747857D01*
X172598603Y-46747857D02*
X172356699Y-46687381D01*
X172356699Y-46687381D02*
X172235746Y-46626904D01*
X172235746Y-46626904D02*
X172114794Y-46505952D01*
X172114794Y-46505952D02*
X172054318Y-46324523D01*
X172054318Y-46324523D02*
X172054318Y-46203571D01*
X172054318Y-46203571D02*
X172114794Y-46022142D01*
X172114794Y-46022142D02*
X172175270Y-45961666D01*
X173324318Y-44752142D02*
X173324318Y-45477857D01*
X173324318Y-45115000D02*
X172054318Y-45115000D01*
X172054318Y-45115000D02*
X172235746Y-45235952D01*
X172235746Y-45235952D02*
X172356699Y-45356904D01*
X172356699Y-45356904D02*
X172417175Y-45477857D01*
D10*
X258954819Y-132559523D02*
X259669104Y-132559523D01*
X259669104Y-132559523D02*
X259811961Y-132607142D01*
X259811961Y-132607142D02*
X259907200Y-132702380D01*
X259907200Y-132702380D02*
X259954819Y-132845237D01*
X259954819Y-132845237D02*
X259954819Y-132940475D01*
X259050057Y-132130951D02*
X259002438Y-132083332D01*
X259002438Y-132083332D02*
X258954819Y-131988094D01*
X258954819Y-131988094D02*
X258954819Y-131749999D01*
X258954819Y-131749999D02*
X259002438Y-131654761D01*
X259002438Y-131654761D02*
X259050057Y-131607142D01*
X259050057Y-131607142D02*
X259145295Y-131559523D01*
X259145295Y-131559523D02*
X259240533Y-131559523D01*
X259240533Y-131559523D02*
X259383390Y-131607142D01*
X259383390Y-131607142D02*
X259954819Y-132178570D01*
X259954819Y-132178570D02*
X259954819Y-131559523D01*
X258954819Y-131226189D02*
X258954819Y-130559523D01*
X258954819Y-130559523D02*
X259954819Y-130988094D01*
X268004819Y-66309523D02*
X268719104Y-66309523D01*
X268719104Y-66309523D02*
X268861961Y-66357142D01*
X268861961Y-66357142D02*
X268957200Y-66452380D01*
X268957200Y-66452380D02*
X269004819Y-66595237D01*
X269004819Y-66595237D02*
X269004819Y-66690475D01*
X268004819Y-65928570D02*
X268004819Y-65309523D01*
X268004819Y-65309523D02*
X268385771Y-65642856D01*
X268385771Y-65642856D02*
X268385771Y-65499999D01*
X268385771Y-65499999D02*
X268433390Y-65404761D01*
X268433390Y-65404761D02*
X268481009Y-65357142D01*
X268481009Y-65357142D02*
X268576247Y-65309523D01*
X268576247Y-65309523D02*
X268814342Y-65309523D01*
X268814342Y-65309523D02*
X268909580Y-65357142D01*
X268909580Y-65357142D02*
X268957200Y-65404761D01*
X268957200Y-65404761D02*
X269004819Y-65499999D01*
X269004819Y-65499999D02*
X269004819Y-65785713D01*
X269004819Y-65785713D02*
X268957200Y-65880951D01*
X268957200Y-65880951D02*
X268909580Y-65928570D01*
X268004819Y-64690475D02*
X268004819Y-64595237D01*
X268004819Y-64595237D02*
X268052438Y-64499999D01*
X268052438Y-64499999D02*
X268100057Y-64452380D01*
X268100057Y-64452380D02*
X268195295Y-64404761D01*
X268195295Y-64404761D02*
X268385771Y-64357142D01*
X268385771Y-64357142D02*
X268623866Y-64357142D01*
X268623866Y-64357142D02*
X268814342Y-64404761D01*
X268814342Y-64404761D02*
X268909580Y-64452380D01*
X268909580Y-64452380D02*
X268957200Y-64499999D01*
X268957200Y-64499999D02*
X269004819Y-64595237D01*
X269004819Y-64595237D02*
X269004819Y-64690475D01*
X269004819Y-64690475D02*
X268957200Y-64785713D01*
X268957200Y-64785713D02*
X268909580Y-64833332D01*
X268909580Y-64833332D02*
X268814342Y-64880951D01*
X268814342Y-64880951D02*
X268623866Y-64928570D01*
X268623866Y-64928570D02*
X268385771Y-64928570D01*
X268385771Y-64928570D02*
X268195295Y-64880951D01*
X268195295Y-64880951D02*
X268100057Y-64833332D01*
X268100057Y-64833332D02*
X268052438Y-64785713D01*
X268052438Y-64785713D02*
X268004819Y-64690475D01*
X161879819Y-38333333D02*
X162594104Y-38333333D01*
X162594104Y-38333333D02*
X162736961Y-38380952D01*
X162736961Y-38380952D02*
X162832200Y-38476190D01*
X162832200Y-38476190D02*
X162879819Y-38619047D01*
X162879819Y-38619047D02*
X162879819Y-38714285D01*
X161879819Y-37952380D02*
X161879819Y-37333333D01*
X161879819Y-37333333D02*
X162260771Y-37666666D01*
X162260771Y-37666666D02*
X162260771Y-37523809D01*
X162260771Y-37523809D02*
X162308390Y-37428571D01*
X162308390Y-37428571D02*
X162356009Y-37380952D01*
X162356009Y-37380952D02*
X162451247Y-37333333D01*
X162451247Y-37333333D02*
X162689342Y-37333333D01*
X162689342Y-37333333D02*
X162784580Y-37380952D01*
X162784580Y-37380952D02*
X162832200Y-37428571D01*
X162832200Y-37428571D02*
X162879819Y-37523809D01*
X162879819Y-37523809D02*
X162879819Y-37809523D01*
X162879819Y-37809523D02*
X162832200Y-37904761D01*
X162832200Y-37904761D02*
X162784580Y-37952380D01*
X199083333Y-91559580D02*
X199035714Y-91607200D01*
X199035714Y-91607200D02*
X198892857Y-91654819D01*
X198892857Y-91654819D02*
X198797619Y-91654819D01*
X198797619Y-91654819D02*
X198654762Y-91607200D01*
X198654762Y-91607200D02*
X198559524Y-91511961D01*
X198559524Y-91511961D02*
X198511905Y-91416723D01*
X198511905Y-91416723D02*
X198464286Y-91226247D01*
X198464286Y-91226247D02*
X198464286Y-91083390D01*
X198464286Y-91083390D02*
X198511905Y-90892914D01*
X198511905Y-90892914D02*
X198559524Y-90797676D01*
X198559524Y-90797676D02*
X198654762Y-90702438D01*
X198654762Y-90702438D02*
X198797619Y-90654819D01*
X198797619Y-90654819D02*
X198892857Y-90654819D01*
X198892857Y-90654819D02*
X199035714Y-90702438D01*
X199035714Y-90702438D02*
X199083333Y-90750057D01*
X199464286Y-90750057D02*
X199511905Y-90702438D01*
X199511905Y-90702438D02*
X199607143Y-90654819D01*
X199607143Y-90654819D02*
X199845238Y-90654819D01*
X199845238Y-90654819D02*
X199940476Y-90702438D01*
X199940476Y-90702438D02*
X199988095Y-90750057D01*
X199988095Y-90750057D02*
X200035714Y-90845295D01*
X200035714Y-90845295D02*
X200035714Y-90940533D01*
X200035714Y-90940533D02*
X199988095Y-91083390D01*
X199988095Y-91083390D02*
X199416667Y-91654819D01*
X199416667Y-91654819D02*
X200035714Y-91654819D01*
X180109580Y-46069317D02*
X180157200Y-46116936D01*
X180157200Y-46116936D02*
X180204819Y-46259793D01*
X180204819Y-46259793D02*
X180204819Y-46355031D01*
X180204819Y-46355031D02*
X180157200Y-46497888D01*
X180157200Y-46497888D02*
X180061961Y-46593126D01*
X180061961Y-46593126D02*
X179966723Y-46640745D01*
X179966723Y-46640745D02*
X179776247Y-46688364D01*
X179776247Y-46688364D02*
X179633390Y-46688364D01*
X179633390Y-46688364D02*
X179442914Y-46640745D01*
X179442914Y-46640745D02*
X179347676Y-46593126D01*
X179347676Y-46593126D02*
X179252438Y-46497888D01*
X179252438Y-46497888D02*
X179204819Y-46355031D01*
X179204819Y-46355031D02*
X179204819Y-46259793D01*
X179204819Y-46259793D02*
X179252438Y-46116936D01*
X179252438Y-46116936D02*
X179300057Y-46069317D01*
X179538152Y-45212174D02*
X180204819Y-45212174D01*
X179157200Y-45450269D02*
X179871485Y-45688364D01*
X179871485Y-45688364D02*
X179871485Y-45069317D01*
X171416666Y-163529819D02*
X171416666Y-164244104D01*
X171416666Y-164244104D02*
X171369047Y-164386961D01*
X171369047Y-164386961D02*
X171273809Y-164482200D01*
X171273809Y-164482200D02*
X171130952Y-164529819D01*
X171130952Y-164529819D02*
X171035714Y-164529819D01*
X171797619Y-163529819D02*
X172464285Y-163529819D01*
X172464285Y-163529819D02*
X172035714Y-164529819D01*
X169929580Y-104166666D02*
X169977200Y-104214285D01*
X169977200Y-104214285D02*
X170024819Y-104357142D01*
X170024819Y-104357142D02*
X170024819Y-104452380D01*
X170024819Y-104452380D02*
X169977200Y-104595237D01*
X169977200Y-104595237D02*
X169881961Y-104690475D01*
X169881961Y-104690475D02*
X169786723Y-104738094D01*
X169786723Y-104738094D02*
X169596247Y-104785713D01*
X169596247Y-104785713D02*
X169453390Y-104785713D01*
X169453390Y-104785713D02*
X169262914Y-104738094D01*
X169262914Y-104738094D02*
X169167676Y-104690475D01*
X169167676Y-104690475D02*
X169072438Y-104595237D01*
X169072438Y-104595237D02*
X169024819Y-104452380D01*
X169024819Y-104452380D02*
X169024819Y-104357142D01*
X169024819Y-104357142D02*
X169072438Y-104214285D01*
X169072438Y-104214285D02*
X169120057Y-104166666D01*
X169024819Y-103309523D02*
X169024819Y-103499999D01*
X169024819Y-103499999D02*
X169072438Y-103595237D01*
X169072438Y-103595237D02*
X169120057Y-103642856D01*
X169120057Y-103642856D02*
X169262914Y-103738094D01*
X169262914Y-103738094D02*
X169453390Y-103785713D01*
X169453390Y-103785713D02*
X169834342Y-103785713D01*
X169834342Y-103785713D02*
X169929580Y-103738094D01*
X169929580Y-103738094D02*
X169977200Y-103690475D01*
X169977200Y-103690475D02*
X170024819Y-103595237D01*
X170024819Y-103595237D02*
X170024819Y-103404761D01*
X170024819Y-103404761D02*
X169977200Y-103309523D01*
X169977200Y-103309523D02*
X169929580Y-103261904D01*
X169929580Y-103261904D02*
X169834342Y-103214285D01*
X169834342Y-103214285D02*
X169596247Y-103214285D01*
X169596247Y-103214285D02*
X169501009Y-103261904D01*
X169501009Y-103261904D02*
X169453390Y-103309523D01*
X169453390Y-103309523D02*
X169405771Y-103404761D01*
X169405771Y-103404761D02*
X169405771Y-103595237D01*
X169405771Y-103595237D02*
X169453390Y-103690475D01*
X169453390Y-103690475D02*
X169501009Y-103738094D01*
X169501009Y-103738094D02*
X169596247Y-103785713D01*
X183486009Y-120068333D02*
X183486009Y-120401666D01*
X184009819Y-120401666D02*
X183009819Y-120401666D01*
X183009819Y-120401666D02*
X183009819Y-119925476D01*
X183105057Y-119592142D02*
X183057438Y-119544523D01*
X183057438Y-119544523D02*
X183009819Y-119449285D01*
X183009819Y-119449285D02*
X183009819Y-119211190D01*
X183009819Y-119211190D02*
X183057438Y-119115952D01*
X183057438Y-119115952D02*
X183105057Y-119068333D01*
X183105057Y-119068333D02*
X183200295Y-119020714D01*
X183200295Y-119020714D02*
X183295533Y-119020714D01*
X183295533Y-119020714D02*
X183438390Y-119068333D01*
X183438390Y-119068333D02*
X184009819Y-119639761D01*
X184009819Y-119639761D02*
X184009819Y-119020714D01*
X185166666Y-163504819D02*
X185166666Y-164219104D01*
X185166666Y-164219104D02*
X185119047Y-164361961D01*
X185119047Y-164361961D02*
X185023809Y-164457200D01*
X185023809Y-164457200D02*
X184880952Y-164504819D01*
X184880952Y-164504819D02*
X184785714Y-164504819D01*
X186071428Y-163504819D02*
X185880952Y-163504819D01*
X185880952Y-163504819D02*
X185785714Y-163552438D01*
X185785714Y-163552438D02*
X185738095Y-163600057D01*
X185738095Y-163600057D02*
X185642857Y-163742914D01*
X185642857Y-163742914D02*
X185595238Y-163933390D01*
X185595238Y-163933390D02*
X185595238Y-164314342D01*
X185595238Y-164314342D02*
X185642857Y-164409580D01*
X185642857Y-164409580D02*
X185690476Y-164457200D01*
X185690476Y-164457200D02*
X185785714Y-164504819D01*
X185785714Y-164504819D02*
X185976190Y-164504819D01*
X185976190Y-164504819D02*
X186071428Y-164457200D01*
X186071428Y-164457200D02*
X186119047Y-164409580D01*
X186119047Y-164409580D02*
X186166666Y-164314342D01*
X186166666Y-164314342D02*
X186166666Y-164076247D01*
X186166666Y-164076247D02*
X186119047Y-163981009D01*
X186119047Y-163981009D02*
X186071428Y-163933390D01*
X186071428Y-163933390D02*
X185976190Y-163885771D01*
X185976190Y-163885771D02*
X185785714Y-163885771D01*
X185785714Y-163885771D02*
X185690476Y-163933390D01*
X185690476Y-163933390D02*
X185642857Y-163981009D01*
X185642857Y-163981009D02*
X185595238Y-164076247D01*
D13*
X183207419Y-86511904D02*
X184016942Y-86511904D01*
X184016942Y-86511904D02*
X184112180Y-86464285D01*
X184112180Y-86464285D02*
X184159800Y-86416666D01*
X184159800Y-86416666D02*
X184207419Y-86321428D01*
X184207419Y-86321428D02*
X184207419Y-86130952D01*
X184207419Y-86130952D02*
X184159800Y-86035714D01*
X184159800Y-86035714D02*
X184112180Y-85988095D01*
X184112180Y-85988095D02*
X184016942Y-85940476D01*
X184016942Y-85940476D02*
X183207419Y-85940476D01*
X183540752Y-85035714D02*
X184207419Y-85035714D01*
X183159800Y-85273809D02*
X183874085Y-85511904D01*
X183874085Y-85511904D02*
X183874085Y-84892857D01*
D10*
X220928571Y-84864700D02*
X222071429Y-84864700D01*
X195428571Y-84854700D02*
X196571429Y-84854700D01*
X196000000Y-85426128D02*
X196000000Y-84283271D01*
X209928571Y-84864700D02*
X211071429Y-84864700D01*
X210500000Y-85436128D02*
X210500000Y-84293271D01*
X206428571Y-84854700D02*
X207571429Y-84854700D01*
X161904819Y-46833333D02*
X162619104Y-46833333D01*
X162619104Y-46833333D02*
X162761961Y-46880952D01*
X162761961Y-46880952D02*
X162857200Y-46976190D01*
X162857200Y-46976190D02*
X162904819Y-47119047D01*
X162904819Y-47119047D02*
X162904819Y-47214285D01*
X162000057Y-46404761D02*
X161952438Y-46357142D01*
X161952438Y-46357142D02*
X161904819Y-46261904D01*
X161904819Y-46261904D02*
X161904819Y-46023809D01*
X161904819Y-46023809D02*
X161952438Y-45928571D01*
X161952438Y-45928571D02*
X162000057Y-45880952D01*
X162000057Y-45880952D02*
X162095295Y-45833333D01*
X162095295Y-45833333D02*
X162190533Y-45833333D01*
X162190533Y-45833333D02*
X162333390Y-45880952D01*
X162333390Y-45880952D02*
X162904819Y-46452380D01*
X162904819Y-46452380D02*
X162904819Y-45833333D01*
X268004819Y-153059523D02*
X268719104Y-153059523D01*
X268719104Y-153059523D02*
X268861961Y-153107142D01*
X268861961Y-153107142D02*
X268957200Y-153202380D01*
X268957200Y-153202380D02*
X269004819Y-153345237D01*
X269004819Y-153345237D02*
X269004819Y-153440475D01*
X268100057Y-152630951D02*
X268052438Y-152583332D01*
X268052438Y-152583332D02*
X268004819Y-152488094D01*
X268004819Y-152488094D02*
X268004819Y-152249999D01*
X268004819Y-152249999D02*
X268052438Y-152154761D01*
X268052438Y-152154761D02*
X268100057Y-152107142D01*
X268100057Y-152107142D02*
X268195295Y-152059523D01*
X268195295Y-152059523D02*
X268290533Y-152059523D01*
X268290533Y-152059523D02*
X268433390Y-152107142D01*
X268433390Y-152107142D02*
X269004819Y-152678570D01*
X269004819Y-152678570D02*
X269004819Y-152059523D01*
X268004819Y-151202380D02*
X268004819Y-151392856D01*
X268004819Y-151392856D02*
X268052438Y-151488094D01*
X268052438Y-151488094D02*
X268100057Y-151535713D01*
X268100057Y-151535713D02*
X268242914Y-151630951D01*
X268242914Y-151630951D02*
X268433390Y-151678570D01*
X268433390Y-151678570D02*
X268814342Y-151678570D01*
X268814342Y-151678570D02*
X268909580Y-151630951D01*
X268909580Y-151630951D02*
X268957200Y-151583332D01*
X268957200Y-151583332D02*
X269004819Y-151488094D01*
X269004819Y-151488094D02*
X269004819Y-151297618D01*
X269004819Y-151297618D02*
X268957200Y-151202380D01*
X268957200Y-151202380D02*
X268909580Y-151154761D01*
X268909580Y-151154761D02*
X268814342Y-151107142D01*
X268814342Y-151107142D02*
X268576247Y-151107142D01*
X268576247Y-151107142D02*
X268481009Y-151154761D01*
X268481009Y-151154761D02*
X268433390Y-151202380D01*
X268433390Y-151202380D02*
X268385771Y-151297618D01*
X268385771Y-151297618D02*
X268385771Y-151488094D01*
X268385771Y-151488094D02*
X268433390Y-151583332D01*
X268433390Y-151583332D02*
X268481009Y-151630951D01*
X268481009Y-151630951D02*
X268576247Y-151678570D01*
X181179580Y-104191666D02*
X181227200Y-104239285D01*
X181227200Y-104239285D02*
X181274819Y-104382142D01*
X181274819Y-104382142D02*
X181274819Y-104477380D01*
X181274819Y-104477380D02*
X181227200Y-104620237D01*
X181227200Y-104620237D02*
X181131961Y-104715475D01*
X181131961Y-104715475D02*
X181036723Y-104763094D01*
X181036723Y-104763094D02*
X180846247Y-104810713D01*
X180846247Y-104810713D02*
X180703390Y-104810713D01*
X180703390Y-104810713D02*
X180512914Y-104763094D01*
X180512914Y-104763094D02*
X180417676Y-104715475D01*
X180417676Y-104715475D02*
X180322438Y-104620237D01*
X180322438Y-104620237D02*
X180274819Y-104477380D01*
X180274819Y-104477380D02*
X180274819Y-104382142D01*
X180274819Y-104382142D02*
X180322438Y-104239285D01*
X180322438Y-104239285D02*
X180370057Y-104191666D01*
X180703390Y-103620237D02*
X180655771Y-103715475D01*
X180655771Y-103715475D02*
X180608152Y-103763094D01*
X180608152Y-103763094D02*
X180512914Y-103810713D01*
X180512914Y-103810713D02*
X180465295Y-103810713D01*
X180465295Y-103810713D02*
X180370057Y-103763094D01*
X180370057Y-103763094D02*
X180322438Y-103715475D01*
X180322438Y-103715475D02*
X180274819Y-103620237D01*
X180274819Y-103620237D02*
X180274819Y-103429761D01*
X180274819Y-103429761D02*
X180322438Y-103334523D01*
X180322438Y-103334523D02*
X180370057Y-103286904D01*
X180370057Y-103286904D02*
X180465295Y-103239285D01*
X180465295Y-103239285D02*
X180512914Y-103239285D01*
X180512914Y-103239285D02*
X180608152Y-103286904D01*
X180608152Y-103286904D02*
X180655771Y-103334523D01*
X180655771Y-103334523D02*
X180703390Y-103429761D01*
X180703390Y-103429761D02*
X180703390Y-103620237D01*
X180703390Y-103620237D02*
X180751009Y-103715475D01*
X180751009Y-103715475D02*
X180798628Y-103763094D01*
X180798628Y-103763094D02*
X180893866Y-103810713D01*
X180893866Y-103810713D02*
X181084342Y-103810713D01*
X181084342Y-103810713D02*
X181179580Y-103763094D01*
X181179580Y-103763094D02*
X181227200Y-103715475D01*
X181227200Y-103715475D02*
X181274819Y-103620237D01*
X181274819Y-103620237D02*
X181274819Y-103429761D01*
X181274819Y-103429761D02*
X181227200Y-103334523D01*
X181227200Y-103334523D02*
X181179580Y-103286904D01*
X181179580Y-103286904D02*
X181084342Y-103239285D01*
X181084342Y-103239285D02*
X180893866Y-103239285D01*
X180893866Y-103239285D02*
X180798628Y-103286904D01*
X180798628Y-103286904D02*
X180751009Y-103334523D01*
X180751009Y-103334523D02*
X180703390Y-103429761D01*
X188454819Y-63642857D02*
X187978628Y-63976190D01*
X188454819Y-64214285D02*
X187454819Y-64214285D01*
X187454819Y-64214285D02*
X187454819Y-63833333D01*
X187454819Y-63833333D02*
X187502438Y-63738095D01*
X187502438Y-63738095D02*
X187550057Y-63690476D01*
X187550057Y-63690476D02*
X187645295Y-63642857D01*
X187645295Y-63642857D02*
X187788152Y-63642857D01*
X187788152Y-63642857D02*
X187883390Y-63690476D01*
X187883390Y-63690476D02*
X187931009Y-63738095D01*
X187931009Y-63738095D02*
X187978628Y-63833333D01*
X187978628Y-63833333D02*
X187978628Y-64214285D01*
X188454819Y-62690476D02*
X188454819Y-63261904D01*
X188454819Y-62976190D02*
X187454819Y-62976190D01*
X187454819Y-62976190D02*
X187597676Y-63071428D01*
X187597676Y-63071428D02*
X187692914Y-63166666D01*
X187692914Y-63166666D02*
X187740533Y-63261904D01*
X187454819Y-62357142D02*
X187454819Y-61738095D01*
X187454819Y-61738095D02*
X187835771Y-62071428D01*
X187835771Y-62071428D02*
X187835771Y-61928571D01*
X187835771Y-61928571D02*
X187883390Y-61833333D01*
X187883390Y-61833333D02*
X187931009Y-61785714D01*
X187931009Y-61785714D02*
X188026247Y-61738095D01*
X188026247Y-61738095D02*
X188264342Y-61738095D01*
X188264342Y-61738095D02*
X188359580Y-61785714D01*
X188359580Y-61785714D02*
X188407200Y-61833333D01*
X188407200Y-61833333D02*
X188454819Y-61928571D01*
X188454819Y-61928571D02*
X188454819Y-62214285D01*
X188454819Y-62214285D02*
X188407200Y-62309523D01*
X188407200Y-62309523D02*
X188359580Y-62357142D01*
X179583333Y-121204819D02*
X179250000Y-120728628D01*
X179011905Y-121204819D02*
X179011905Y-120204819D01*
X179011905Y-120204819D02*
X179392857Y-120204819D01*
X179392857Y-120204819D02*
X179488095Y-120252438D01*
X179488095Y-120252438D02*
X179535714Y-120300057D01*
X179535714Y-120300057D02*
X179583333Y-120395295D01*
X179583333Y-120395295D02*
X179583333Y-120538152D01*
X179583333Y-120538152D02*
X179535714Y-120633390D01*
X179535714Y-120633390D02*
X179488095Y-120681009D01*
X179488095Y-120681009D02*
X179392857Y-120728628D01*
X179392857Y-120728628D02*
X179011905Y-120728628D01*
X180535714Y-121204819D02*
X179964286Y-121204819D01*
X180250000Y-121204819D02*
X180250000Y-120204819D01*
X180250000Y-120204819D02*
X180154762Y-120347676D01*
X180154762Y-120347676D02*
X180059524Y-120442914D01*
X180059524Y-120442914D02*
X179964286Y-120490533D01*
X256940476Y-95954819D02*
X256940476Y-96669104D01*
X256940476Y-96669104D02*
X256892857Y-96811961D01*
X256892857Y-96811961D02*
X256797619Y-96907200D01*
X256797619Y-96907200D02*
X256654762Y-96954819D01*
X256654762Y-96954819D02*
X256559524Y-96954819D01*
X257369048Y-96050057D02*
X257416667Y-96002438D01*
X257416667Y-96002438D02*
X257511905Y-95954819D01*
X257511905Y-95954819D02*
X257750000Y-95954819D01*
X257750000Y-95954819D02*
X257845238Y-96002438D01*
X257845238Y-96002438D02*
X257892857Y-96050057D01*
X257892857Y-96050057D02*
X257940476Y-96145295D01*
X257940476Y-96145295D02*
X257940476Y-96240533D01*
X257940476Y-96240533D02*
X257892857Y-96383390D01*
X257892857Y-96383390D02*
X257321429Y-96954819D01*
X257321429Y-96954819D02*
X257940476Y-96954819D01*
X258321429Y-96050057D02*
X258369048Y-96002438D01*
X258369048Y-96002438D02*
X258464286Y-95954819D01*
X258464286Y-95954819D02*
X258702381Y-95954819D01*
X258702381Y-95954819D02*
X258797619Y-96002438D01*
X258797619Y-96002438D02*
X258845238Y-96050057D01*
X258845238Y-96050057D02*
X258892857Y-96145295D01*
X258892857Y-96145295D02*
X258892857Y-96240533D01*
X258892857Y-96240533D02*
X258845238Y-96383390D01*
X258845238Y-96383390D02*
X258273810Y-96954819D01*
X258273810Y-96954819D02*
X258892857Y-96954819D01*
D13*
X207478095Y-111207419D02*
X207478095Y-112016942D01*
X207478095Y-112016942D02*
X207525714Y-112112180D01*
X207525714Y-112112180D02*
X207573333Y-112159800D01*
X207573333Y-112159800D02*
X207668571Y-112207419D01*
X207668571Y-112207419D02*
X207859047Y-112207419D01*
X207859047Y-112207419D02*
X207954285Y-112159800D01*
X207954285Y-112159800D02*
X208001904Y-112112180D01*
X208001904Y-112112180D02*
X208049523Y-112016942D01*
X208049523Y-112016942D02*
X208049523Y-111207419D01*
X208430476Y-111207419D02*
X209049523Y-111207419D01*
X209049523Y-111207419D02*
X208716190Y-111588371D01*
X208716190Y-111588371D02*
X208859047Y-111588371D01*
X208859047Y-111588371D02*
X208954285Y-111635990D01*
X208954285Y-111635990D02*
X209001904Y-111683609D01*
X209001904Y-111683609D02*
X209049523Y-111778847D01*
X209049523Y-111778847D02*
X209049523Y-112016942D01*
X209049523Y-112016942D02*
X209001904Y-112112180D01*
X209001904Y-112112180D02*
X208954285Y-112159800D01*
X208954285Y-112159800D02*
X208859047Y-112207419D01*
X208859047Y-112207419D02*
X208573333Y-112207419D01*
X208573333Y-112207419D02*
X208478095Y-112159800D01*
X208478095Y-112159800D02*
X208430476Y-112112180D01*
D10*
X194428571Y-105364700D02*
X195571429Y-105364700D01*
X208928571Y-105374700D02*
X210071429Y-105374700D01*
X205428571Y-105364700D02*
X206571429Y-105364700D01*
X206000000Y-105936128D02*
X206000000Y-104793271D01*
X219928571Y-105374700D02*
X221071429Y-105374700D01*
X220500000Y-105946128D02*
X220500000Y-104803271D01*
X165334819Y-105336666D02*
X164858628Y-105669999D01*
X165334819Y-105908094D02*
X164334819Y-105908094D01*
X164334819Y-105908094D02*
X164334819Y-105527142D01*
X164334819Y-105527142D02*
X164382438Y-105431904D01*
X164382438Y-105431904D02*
X164430057Y-105384285D01*
X164430057Y-105384285D02*
X164525295Y-105336666D01*
X164525295Y-105336666D02*
X164668152Y-105336666D01*
X164668152Y-105336666D02*
X164763390Y-105384285D01*
X164763390Y-105384285D02*
X164811009Y-105431904D01*
X164811009Y-105431904D02*
X164858628Y-105527142D01*
X164858628Y-105527142D02*
X164858628Y-105908094D01*
X164334819Y-105003332D02*
X164334819Y-104384285D01*
X164334819Y-104384285D02*
X164715771Y-104717618D01*
X164715771Y-104717618D02*
X164715771Y-104574761D01*
X164715771Y-104574761D02*
X164763390Y-104479523D01*
X164763390Y-104479523D02*
X164811009Y-104431904D01*
X164811009Y-104431904D02*
X164906247Y-104384285D01*
X164906247Y-104384285D02*
X165144342Y-104384285D01*
X165144342Y-104384285D02*
X165239580Y-104431904D01*
X165239580Y-104431904D02*
X165287200Y-104479523D01*
X165287200Y-104479523D02*
X165334819Y-104574761D01*
X165334819Y-104574761D02*
X165334819Y-104860475D01*
X165334819Y-104860475D02*
X165287200Y-104955713D01*
X165287200Y-104955713D02*
X165239580Y-105003332D01*
X165334819Y-117836666D02*
X164858628Y-118169999D01*
X165334819Y-118408094D02*
X164334819Y-118408094D01*
X164334819Y-118408094D02*
X164334819Y-118027142D01*
X164334819Y-118027142D02*
X164382438Y-117931904D01*
X164382438Y-117931904D02*
X164430057Y-117884285D01*
X164430057Y-117884285D02*
X164525295Y-117836666D01*
X164525295Y-117836666D02*
X164668152Y-117836666D01*
X164668152Y-117836666D02*
X164763390Y-117884285D01*
X164763390Y-117884285D02*
X164811009Y-117931904D01*
X164811009Y-117931904D02*
X164858628Y-118027142D01*
X164858628Y-118027142D02*
X164858628Y-118408094D01*
X164430057Y-117455713D02*
X164382438Y-117408094D01*
X164382438Y-117408094D02*
X164334819Y-117312856D01*
X164334819Y-117312856D02*
X164334819Y-117074761D01*
X164334819Y-117074761D02*
X164382438Y-116979523D01*
X164382438Y-116979523D02*
X164430057Y-116931904D01*
X164430057Y-116931904D02*
X164525295Y-116884285D01*
X164525295Y-116884285D02*
X164620533Y-116884285D01*
X164620533Y-116884285D02*
X164763390Y-116931904D01*
X164763390Y-116931904D02*
X165334819Y-117503332D01*
X165334819Y-117503332D02*
X165334819Y-116884285D01*
X259583333Y-137169580D02*
X259535714Y-137217200D01*
X259535714Y-137217200D02*
X259392857Y-137264819D01*
X259392857Y-137264819D02*
X259297619Y-137264819D01*
X259297619Y-137264819D02*
X259154762Y-137217200D01*
X259154762Y-137217200D02*
X259059524Y-137121961D01*
X259059524Y-137121961D02*
X259011905Y-137026723D01*
X259011905Y-137026723D02*
X258964286Y-136836247D01*
X258964286Y-136836247D02*
X258964286Y-136693390D01*
X258964286Y-136693390D02*
X259011905Y-136502914D01*
X259011905Y-136502914D02*
X259059524Y-136407676D01*
X259059524Y-136407676D02*
X259154762Y-136312438D01*
X259154762Y-136312438D02*
X259297619Y-136264819D01*
X259297619Y-136264819D02*
X259392857Y-136264819D01*
X259392857Y-136264819D02*
X259535714Y-136312438D01*
X259535714Y-136312438D02*
X259583333Y-136360057D01*
X260059524Y-137264819D02*
X260250000Y-137264819D01*
X260250000Y-137264819D02*
X260345238Y-137217200D01*
X260345238Y-137217200D02*
X260392857Y-137169580D01*
X260392857Y-137169580D02*
X260488095Y-137026723D01*
X260488095Y-137026723D02*
X260535714Y-136836247D01*
X260535714Y-136836247D02*
X260535714Y-136455295D01*
X260535714Y-136455295D02*
X260488095Y-136360057D01*
X260488095Y-136360057D02*
X260440476Y-136312438D01*
X260440476Y-136312438D02*
X260345238Y-136264819D01*
X260345238Y-136264819D02*
X260154762Y-136264819D01*
X260154762Y-136264819D02*
X260059524Y-136312438D01*
X260059524Y-136312438D02*
X260011905Y-136360057D01*
X260011905Y-136360057D02*
X259964286Y-136455295D01*
X259964286Y-136455295D02*
X259964286Y-136693390D01*
X259964286Y-136693390D02*
X260011905Y-136788628D01*
X260011905Y-136788628D02*
X260059524Y-136836247D01*
X260059524Y-136836247D02*
X260154762Y-136883866D01*
X260154762Y-136883866D02*
X260345238Y-136883866D01*
X260345238Y-136883866D02*
X260440476Y-136836247D01*
X260440476Y-136836247D02*
X260488095Y-136788628D01*
X260488095Y-136788628D02*
X260535714Y-136693390D01*
X189358333Y-49429580D02*
X189310714Y-49477200D01*
X189310714Y-49477200D02*
X189167857Y-49524819D01*
X189167857Y-49524819D02*
X189072619Y-49524819D01*
X189072619Y-49524819D02*
X188929762Y-49477200D01*
X188929762Y-49477200D02*
X188834524Y-49381961D01*
X188834524Y-49381961D02*
X188786905Y-49286723D01*
X188786905Y-49286723D02*
X188739286Y-49096247D01*
X188739286Y-49096247D02*
X188739286Y-48953390D01*
X188739286Y-48953390D02*
X188786905Y-48762914D01*
X188786905Y-48762914D02*
X188834524Y-48667676D01*
X188834524Y-48667676D02*
X188929762Y-48572438D01*
X188929762Y-48572438D02*
X189072619Y-48524819D01*
X189072619Y-48524819D02*
X189167857Y-48524819D01*
X189167857Y-48524819D02*
X189310714Y-48572438D01*
X189310714Y-48572438D02*
X189358333Y-48620057D01*
X190263095Y-48524819D02*
X189786905Y-48524819D01*
X189786905Y-48524819D02*
X189739286Y-49001009D01*
X189739286Y-49001009D02*
X189786905Y-48953390D01*
X189786905Y-48953390D02*
X189882143Y-48905771D01*
X189882143Y-48905771D02*
X190120238Y-48905771D01*
X190120238Y-48905771D02*
X190215476Y-48953390D01*
X190215476Y-48953390D02*
X190263095Y-49001009D01*
X190263095Y-49001009D02*
X190310714Y-49096247D01*
X190310714Y-49096247D02*
X190310714Y-49334342D01*
X190310714Y-49334342D02*
X190263095Y-49429580D01*
X190263095Y-49429580D02*
X190215476Y-49477200D01*
X190215476Y-49477200D02*
X190120238Y-49524819D01*
X190120238Y-49524819D02*
X189882143Y-49524819D01*
X189882143Y-49524819D02*
X189786905Y-49477200D01*
X189786905Y-49477200D02*
X189739286Y-49429580D01*
X169807200Y-87083333D02*
X169854819Y-86940476D01*
X169854819Y-86940476D02*
X169854819Y-86702381D01*
X169854819Y-86702381D02*
X169807200Y-86607143D01*
X169807200Y-86607143D02*
X169759580Y-86559524D01*
X169759580Y-86559524D02*
X169664342Y-86511905D01*
X169664342Y-86511905D02*
X169569104Y-86511905D01*
X169569104Y-86511905D02*
X169473866Y-86559524D01*
X169473866Y-86559524D02*
X169426247Y-86607143D01*
X169426247Y-86607143D02*
X169378628Y-86702381D01*
X169378628Y-86702381D02*
X169331009Y-86892857D01*
X169331009Y-86892857D02*
X169283390Y-86988095D01*
X169283390Y-86988095D02*
X169235771Y-87035714D01*
X169235771Y-87035714D02*
X169140533Y-87083333D01*
X169140533Y-87083333D02*
X169045295Y-87083333D01*
X169045295Y-87083333D02*
X168950057Y-87035714D01*
X168950057Y-87035714D02*
X168902438Y-86988095D01*
X168902438Y-86988095D02*
X168854819Y-86892857D01*
X168854819Y-86892857D02*
X168854819Y-86654762D01*
X168854819Y-86654762D02*
X168902438Y-86511905D01*
X168854819Y-86178571D02*
X169854819Y-85940476D01*
X169854819Y-85940476D02*
X169140533Y-85750000D01*
X169140533Y-85750000D02*
X169854819Y-85559524D01*
X169854819Y-85559524D02*
X168854819Y-85321429D01*
X169854819Y-84416667D02*
X169854819Y-84988095D01*
X169854819Y-84702381D02*
X168854819Y-84702381D01*
X168854819Y-84702381D02*
X168997676Y-84797619D01*
X168997676Y-84797619D02*
X169092914Y-84892857D01*
X169092914Y-84892857D02*
X169140533Y-84988095D01*
X189514700Y-96071428D02*
X189514700Y-94928571D01*
X189514700Y-77071428D02*
X189514700Y-75928571D01*
X190086128Y-76499999D02*
X188943271Y-76499999D01*
X256940476Y-102954819D02*
X256940476Y-103669104D01*
X256940476Y-103669104D02*
X256892857Y-103811961D01*
X256892857Y-103811961D02*
X256797619Y-103907200D01*
X256797619Y-103907200D02*
X256654762Y-103954819D01*
X256654762Y-103954819D02*
X256559524Y-103954819D01*
X257369048Y-103050057D02*
X257416667Y-103002438D01*
X257416667Y-103002438D02*
X257511905Y-102954819D01*
X257511905Y-102954819D02*
X257750000Y-102954819D01*
X257750000Y-102954819D02*
X257845238Y-103002438D01*
X257845238Y-103002438D02*
X257892857Y-103050057D01*
X257892857Y-103050057D02*
X257940476Y-103145295D01*
X257940476Y-103145295D02*
X257940476Y-103240533D01*
X257940476Y-103240533D02*
X257892857Y-103383390D01*
X257892857Y-103383390D02*
X257321429Y-103954819D01*
X257321429Y-103954819D02*
X257940476Y-103954819D01*
X258273810Y-102954819D02*
X258892857Y-102954819D01*
X258892857Y-102954819D02*
X258559524Y-103335771D01*
X258559524Y-103335771D02*
X258702381Y-103335771D01*
X258702381Y-103335771D02*
X258797619Y-103383390D01*
X258797619Y-103383390D02*
X258845238Y-103431009D01*
X258845238Y-103431009D02*
X258892857Y-103526247D01*
X258892857Y-103526247D02*
X258892857Y-103764342D01*
X258892857Y-103764342D02*
X258845238Y-103859580D01*
X258845238Y-103859580D02*
X258797619Y-103907200D01*
X258797619Y-103907200D02*
X258702381Y-103954819D01*
X258702381Y-103954819D02*
X258416667Y-103954819D01*
X258416667Y-103954819D02*
X258321429Y-103907200D01*
X258321429Y-103907200D02*
X258273810Y-103859580D01*
D13*
X239738095Y-110707419D02*
X239738095Y-111516942D01*
X239738095Y-111516942D02*
X239785714Y-111612180D01*
X239785714Y-111612180D02*
X239833333Y-111659800D01*
X239833333Y-111659800D02*
X239928571Y-111707419D01*
X239928571Y-111707419D02*
X240119047Y-111707419D01*
X240119047Y-111707419D02*
X240214285Y-111659800D01*
X240214285Y-111659800D02*
X240261904Y-111612180D01*
X240261904Y-111612180D02*
X240309523Y-111516942D01*
X240309523Y-111516942D02*
X240309523Y-110707419D01*
X240738095Y-110802657D02*
X240785714Y-110755038D01*
X240785714Y-110755038D02*
X240880952Y-110707419D01*
X240880952Y-110707419D02*
X241119047Y-110707419D01*
X241119047Y-110707419D02*
X241214285Y-110755038D01*
X241214285Y-110755038D02*
X241261904Y-110802657D01*
X241261904Y-110802657D02*
X241309523Y-110897895D01*
X241309523Y-110897895D02*
X241309523Y-110993133D01*
X241309523Y-110993133D02*
X241261904Y-111135990D01*
X241261904Y-111135990D02*
X240690476Y-111707419D01*
X240690476Y-111707419D02*
X241309523Y-111707419D01*
D10*
X241178571Y-105364700D02*
X242321429Y-105364700D01*
X252178571Y-105364700D02*
X253321429Y-105364700D01*
X252750000Y-105936128D02*
X252750000Y-104793271D01*
X226678571Y-105354700D02*
X227821429Y-105354700D01*
X237678571Y-105354700D02*
X238821429Y-105354700D01*
X238250000Y-105926128D02*
X238250000Y-104783271D01*
D13*
X239738095Y-80217419D02*
X239738095Y-81026942D01*
X239738095Y-81026942D02*
X239785714Y-81122180D01*
X239785714Y-81122180D02*
X239833333Y-81169800D01*
X239833333Y-81169800D02*
X239928571Y-81217419D01*
X239928571Y-81217419D02*
X240119047Y-81217419D01*
X240119047Y-81217419D02*
X240214285Y-81169800D01*
X240214285Y-81169800D02*
X240261904Y-81122180D01*
X240261904Y-81122180D02*
X240309523Y-81026942D01*
X240309523Y-81026942D02*
X240309523Y-80217419D01*
X241261904Y-80217419D02*
X240785714Y-80217419D01*
X240785714Y-80217419D02*
X240738095Y-80693609D01*
X240738095Y-80693609D02*
X240785714Y-80645990D01*
X240785714Y-80645990D02*
X240880952Y-80598371D01*
X240880952Y-80598371D02*
X241119047Y-80598371D01*
X241119047Y-80598371D02*
X241214285Y-80645990D01*
X241214285Y-80645990D02*
X241261904Y-80693609D01*
X241261904Y-80693609D02*
X241309523Y-80788847D01*
X241309523Y-80788847D02*
X241309523Y-81026942D01*
X241309523Y-81026942D02*
X241261904Y-81122180D01*
X241261904Y-81122180D02*
X241214285Y-81169800D01*
X241214285Y-81169800D02*
X241119047Y-81217419D01*
X241119047Y-81217419D02*
X240880952Y-81217419D01*
X240880952Y-81217419D02*
X240785714Y-81169800D01*
X240785714Y-81169800D02*
X240738095Y-81122180D01*
D10*
X242178571Y-84874700D02*
X243321429Y-84874700D01*
X242750000Y-85446128D02*
X242750000Y-84303271D01*
X238678571Y-84864700D02*
X239821429Y-84864700D01*
X227678571Y-84864700D02*
X228821429Y-84864700D01*
X228250000Y-85436128D02*
X228250000Y-84293271D01*
X253178571Y-84874700D02*
X254321429Y-84874700D01*
X257666666Y-111704819D02*
X257666666Y-112419104D01*
X257666666Y-112419104D02*
X257619047Y-112561961D01*
X257619047Y-112561961D02*
X257523809Y-112657200D01*
X257523809Y-112657200D02*
X257380952Y-112704819D01*
X257380952Y-112704819D02*
X257285714Y-112704819D01*
X258619047Y-111704819D02*
X258142857Y-111704819D01*
X258142857Y-111704819D02*
X258095238Y-112181009D01*
X258095238Y-112181009D02*
X258142857Y-112133390D01*
X258142857Y-112133390D02*
X258238095Y-112085771D01*
X258238095Y-112085771D02*
X258476190Y-112085771D01*
X258476190Y-112085771D02*
X258571428Y-112133390D01*
X258571428Y-112133390D02*
X258619047Y-112181009D01*
X258619047Y-112181009D02*
X258666666Y-112276247D01*
X258666666Y-112276247D02*
X258666666Y-112514342D01*
X258666666Y-112514342D02*
X258619047Y-112609580D01*
X258619047Y-112609580D02*
X258571428Y-112657200D01*
X258571428Y-112657200D02*
X258476190Y-112704819D01*
X258476190Y-112704819D02*
X258238095Y-112704819D01*
X258238095Y-112704819D02*
X258142857Y-112657200D01*
X258142857Y-112657200D02*
X258095238Y-112609580D01*
D14*
%TO.C,PS1*%
X171390000Y-32825000D02*
X190890000Y-32825000D01*
X171390000Y-38925000D02*
X171390000Y-32825000D01*
D13*
X188790000Y-39350000D02*
X188790000Y-39350000D01*
X188790000Y-39450000D02*
X188790000Y-39450000D01*
D14*
X190890000Y-32825000D02*
X190890000Y-38925000D01*
X190890000Y-38925000D02*
X171390000Y-38925000D01*
D13*
X188790000Y-39350000D02*
G75*
G02*
X188790000Y-39450000I0J-50000D01*
G01*
X188790000Y-39450000D02*
G75*
G02*
X188790000Y-39350000I0J50000D01*
G01*
D15*
%TO.C,J4*%
X259150000Y-119225000D02*
X259150000Y-120475000D01*
X259440000Y-119515000D02*
X259440000Y-125485000D01*
X259440000Y-125485000D02*
X267060000Y-125485000D01*
X259450000Y-119525000D02*
X259450000Y-120275000D01*
X259450000Y-120275000D02*
X261250000Y-120275000D01*
X259450000Y-121775000D02*
X260200000Y-121775000D01*
X260200000Y-121775000D02*
X260200000Y-124725000D01*
X260200000Y-124725000D02*
X263250000Y-124725000D01*
X260400000Y-119225000D02*
X259150000Y-119225000D01*
X261250000Y-119525000D02*
X259450000Y-119525000D01*
X261250000Y-120275000D02*
X261250000Y-119525000D01*
X262750000Y-119525000D02*
X262750000Y-120275000D01*
X262750000Y-120275000D02*
X263750000Y-120275000D01*
X263750000Y-119525000D02*
X262750000Y-119525000D01*
X263750000Y-120275000D02*
X263750000Y-119525000D01*
X265250000Y-119525000D02*
X265250000Y-120275000D01*
X265250000Y-120275000D02*
X267050000Y-120275000D01*
X266300000Y-121775000D02*
X266300000Y-124725000D01*
X266300000Y-124725000D02*
X263250000Y-124725000D01*
X267050000Y-119525000D02*
X265250000Y-119525000D01*
X267050000Y-120275000D02*
X267050000Y-119525000D01*
X267050000Y-121775000D02*
X266300000Y-121775000D01*
X267060000Y-119515000D02*
X259440000Y-119515000D01*
X267060000Y-125485000D02*
X267060000Y-119515000D01*
%TO.C,D1*%
X173955000Y-130550000D02*
X177045000Y-130550000D01*
X173955170Y-130550000D02*
G75*
G02*
X175500000Y-125000000I1544830J2560000D01*
G01*
X175500000Y-125000000D02*
G75*
G02*
X177044830Y-130550000I0J-2990000D01*
G01*
X178000000Y-127990000D02*
G75*
G02*
X173000000Y-127990000I-2500000J0D01*
G01*
X173000000Y-127990000D02*
G75*
G02*
X178000000Y-127990000I2500000J0D01*
G01*
%TO.C,C11*%
X249687651Y-89185000D02*
X250487651Y-89185000D01*
X250087651Y-88785000D02*
X250087651Y-89585000D01*
X254097349Y-87420000D02*
X254097349Y-95580000D01*
X254137349Y-87420000D02*
X254137349Y-95580000D01*
X254177349Y-87421000D02*
X254177349Y-95579000D01*
X254217349Y-87422000D02*
X254217349Y-95578000D01*
X254257349Y-87423000D02*
X254257349Y-95577000D01*
X254297349Y-87425000D02*
X254297349Y-95575000D01*
X254337349Y-87427000D02*
X254337349Y-95573000D01*
X254377349Y-87430000D02*
X254377349Y-95570000D01*
X254417349Y-87432000D02*
X254417349Y-95568000D01*
X254457349Y-87436000D02*
X254457349Y-95564000D01*
X254497349Y-87439000D02*
X254497349Y-95561000D01*
X254537349Y-87444000D02*
X254537349Y-95556000D01*
X254577349Y-87448000D02*
X254577349Y-95552000D01*
X254617349Y-87453000D02*
X254617349Y-95547000D01*
X254657349Y-87458000D02*
X254657349Y-95542000D01*
X254697349Y-87464000D02*
X254697349Y-95536000D01*
X254737349Y-87470000D02*
X254737349Y-95530000D01*
X254777349Y-87477000D02*
X254777349Y-95523000D01*
X254817349Y-87483000D02*
X254817349Y-90460000D01*
X254817349Y-92540000D02*
X254817349Y-95517000D01*
X254857349Y-87491000D02*
X254857349Y-90460000D01*
X254857349Y-92540000D02*
X254857349Y-95509000D01*
X254897349Y-87498000D02*
X254897349Y-90460000D01*
X254897349Y-92540000D02*
X254897349Y-95502000D01*
X254937349Y-87507000D02*
X254937349Y-90460000D01*
X254937349Y-92540000D02*
X254937349Y-95493000D01*
X254977349Y-87515000D02*
X254977349Y-90460000D01*
X254977349Y-92540000D02*
X254977349Y-95485000D01*
X255017349Y-87524000D02*
X255017349Y-90460000D01*
X255017349Y-92540000D02*
X255017349Y-95476000D01*
X255057349Y-87533000D02*
X255057349Y-90460000D01*
X255057349Y-92540000D02*
X255057349Y-95467000D01*
X255097349Y-87543000D02*
X255097349Y-90460000D01*
X255097349Y-92540000D02*
X255097349Y-95457000D01*
X255137349Y-87553000D02*
X255137349Y-90460000D01*
X255137349Y-92540000D02*
X255137349Y-95447000D01*
X255177349Y-87564000D02*
X255177349Y-90460000D01*
X255177349Y-92540000D02*
X255177349Y-95436000D01*
X255217349Y-87575000D02*
X255217349Y-90460000D01*
X255217349Y-92540000D02*
X255217349Y-95425000D01*
X255257349Y-87587000D02*
X255257349Y-90460000D01*
X255257349Y-92540000D02*
X255257349Y-95413000D01*
X255297349Y-87599000D02*
X255297349Y-90460000D01*
X255297349Y-92540000D02*
X255297349Y-95401000D01*
X255337349Y-87611000D02*
X255337349Y-90460000D01*
X255337349Y-92540000D02*
X255337349Y-95389000D01*
X255377349Y-87624000D02*
X255377349Y-90460000D01*
X255377349Y-92540000D02*
X255377349Y-95376000D01*
X255417349Y-87637000D02*
X255417349Y-90460000D01*
X255417349Y-92540000D02*
X255417349Y-95363000D01*
X255457349Y-87651000D02*
X255457349Y-90460000D01*
X255457349Y-92540000D02*
X255457349Y-95349000D01*
X255497349Y-87665000D02*
X255497349Y-90460000D01*
X255497349Y-92540000D02*
X255497349Y-95335000D01*
X255537349Y-87680000D02*
X255537349Y-90460000D01*
X255537349Y-92540000D02*
X255537349Y-95320000D01*
X255577349Y-87695000D02*
X255577349Y-90460000D01*
X255577349Y-92540000D02*
X255577349Y-95305000D01*
X255617349Y-87711000D02*
X255617349Y-90460000D01*
X255617349Y-92540000D02*
X255617349Y-95289000D01*
X255657349Y-87727000D02*
X255657349Y-90460000D01*
X255657349Y-92540000D02*
X255657349Y-95273000D01*
X255697349Y-87743000D02*
X255697349Y-90460000D01*
X255697349Y-92540000D02*
X255697349Y-95257000D01*
X255737349Y-87760000D02*
X255737349Y-90460000D01*
X255737349Y-92540000D02*
X255737349Y-95240000D01*
X255777349Y-87778000D02*
X255777349Y-90460000D01*
X255777349Y-92540000D02*
X255777349Y-95222000D01*
X255817349Y-87796000D02*
X255817349Y-90460000D01*
X255817349Y-92540000D02*
X255817349Y-95204000D01*
X255857349Y-87815000D02*
X255857349Y-90460000D01*
X255857349Y-92540000D02*
X255857349Y-95185000D01*
X255897349Y-87834000D02*
X255897349Y-90460000D01*
X255897349Y-92540000D02*
X255897349Y-95166000D01*
X255937349Y-87854000D02*
X255937349Y-90460000D01*
X255937349Y-92540000D02*
X255937349Y-95146000D01*
X255977349Y-87874000D02*
X255977349Y-90460000D01*
X255977349Y-92540000D02*
X255977349Y-95126000D01*
X256017349Y-87895000D02*
X256017349Y-90460000D01*
X256017349Y-92540000D02*
X256017349Y-95105000D01*
X256057349Y-87916000D02*
X256057349Y-90460000D01*
X256057349Y-92540000D02*
X256057349Y-95084000D01*
X256097349Y-87938000D02*
X256097349Y-90460000D01*
X256097349Y-92540000D02*
X256097349Y-95062000D01*
X256137349Y-87961000D02*
X256137349Y-90460000D01*
X256137349Y-92540000D02*
X256137349Y-95039000D01*
X256177349Y-87984000D02*
X256177349Y-90460000D01*
X256177349Y-92540000D02*
X256177349Y-95016000D01*
X256217349Y-88007000D02*
X256217349Y-90460000D01*
X256217349Y-92540000D02*
X256217349Y-94993000D01*
X256257349Y-88032000D02*
X256257349Y-90460000D01*
X256257349Y-92540000D02*
X256257349Y-94968000D01*
X256297349Y-88057000D02*
X256297349Y-90460000D01*
X256297349Y-92540000D02*
X256297349Y-94943000D01*
X256337349Y-88082000D02*
X256337349Y-90460000D01*
X256337349Y-92540000D02*
X256337349Y-94918000D01*
X256377349Y-88108000D02*
X256377349Y-90460000D01*
X256377349Y-92540000D02*
X256377349Y-94892000D01*
X256417349Y-88135000D02*
X256417349Y-90460000D01*
X256417349Y-92540000D02*
X256417349Y-94865000D01*
X256457349Y-88163000D02*
X256457349Y-90460000D01*
X256457349Y-92540000D02*
X256457349Y-94837000D01*
X256497349Y-88191000D02*
X256497349Y-90460000D01*
X256497349Y-92540000D02*
X256497349Y-94809000D01*
X256537349Y-88220000D02*
X256537349Y-90460000D01*
X256537349Y-92540000D02*
X256537349Y-94780000D01*
X256577349Y-88250000D02*
X256577349Y-90460000D01*
X256577349Y-92540000D02*
X256577349Y-94750000D01*
X256617349Y-88281000D02*
X256617349Y-90460000D01*
X256617349Y-92540000D02*
X256617349Y-94719000D01*
X256657349Y-88312000D02*
X256657349Y-90460000D01*
X256657349Y-92540000D02*
X256657349Y-94688000D01*
X256697349Y-88344000D02*
X256697349Y-90460000D01*
X256697349Y-92540000D02*
X256697349Y-94656000D01*
X256737349Y-88377000D02*
X256737349Y-90460000D01*
X256737349Y-92540000D02*
X256737349Y-94623000D01*
X256777349Y-88411000D02*
X256777349Y-90460000D01*
X256777349Y-92540000D02*
X256777349Y-94589000D01*
X256817349Y-88445000D02*
X256817349Y-90460000D01*
X256817349Y-92540000D02*
X256817349Y-94555000D01*
X256857349Y-88481000D02*
X256857349Y-90460000D01*
X256857349Y-92540000D02*
X256857349Y-94519000D01*
X256897349Y-88518000D02*
X256897349Y-94482000D01*
X256937349Y-88555000D02*
X256937349Y-94445000D01*
X256977349Y-88594000D02*
X256977349Y-94406000D01*
X257017349Y-88633000D02*
X257017349Y-94367000D01*
X257057349Y-88674000D02*
X257057349Y-94326000D01*
X257097349Y-88716000D02*
X257097349Y-94284000D01*
X257137349Y-88759000D02*
X257137349Y-94241000D01*
X257177349Y-88804000D02*
X257177349Y-94196000D01*
X257217349Y-88849000D02*
X257217349Y-94151000D01*
X257257349Y-88896000D02*
X257257349Y-94104000D01*
X257297349Y-88945000D02*
X257297349Y-94055000D01*
X257337349Y-88995000D02*
X257337349Y-94005000D01*
X257377349Y-89047000D02*
X257377349Y-93953000D01*
X257417349Y-89100000D02*
X257417349Y-93900000D01*
X257457349Y-89156000D02*
X257457349Y-93844000D01*
X257497349Y-89213000D02*
X257497349Y-93787000D01*
X257537349Y-89273000D02*
X257537349Y-93727000D01*
X257577349Y-89335000D02*
X257577349Y-93665000D01*
X257617349Y-89399000D02*
X257617349Y-93601000D01*
X257657349Y-89466000D02*
X257657349Y-93534000D01*
X257697349Y-89536000D02*
X257697349Y-93464000D01*
X257737349Y-89610000D02*
X257737349Y-93390000D01*
X257777349Y-89687000D02*
X257777349Y-93313000D01*
X257817349Y-89769000D02*
X257817349Y-93231000D01*
X257857349Y-89856000D02*
X257857349Y-93144000D01*
X257897349Y-89948000D02*
X257897349Y-93052000D01*
X257937349Y-90047000D02*
X257937349Y-92953000D01*
X257977349Y-90154000D02*
X257977349Y-92846000D01*
X258017349Y-90272000D02*
X258017349Y-92728000D01*
X258057349Y-90403000D02*
X258057349Y-92597000D01*
X258097349Y-90553000D02*
X258097349Y-92447000D01*
X258137349Y-90732000D02*
X258137349Y-92268000D01*
X258177349Y-90967000D02*
X258177349Y-92033000D01*
X258217349Y-91500000D02*
G75*
G02*
X249977349Y-91500000I-4120000J0D01*
G01*
X249977349Y-91500000D02*
G75*
G02*
X258217349Y-91500000I4120000J0D01*
G01*
%TO.C,D2*%
X164415000Y-130565000D02*
X167505000Y-130565000D01*
X164415170Y-130565000D02*
G75*
G02*
X165960000Y-125015000I1544830J2560000D01*
G01*
X165960000Y-125015000D02*
G75*
G02*
X167504830Y-130565000I0J-2990000D01*
G01*
X168460000Y-128005000D02*
G75*
G02*
X163460000Y-128005000I-2500000J0D01*
G01*
X163460000Y-128005000D02*
G75*
G02*
X168460000Y-128005000I2500000J0D01*
G01*
D14*
%TO.C,D8*%
X181300000Y-97100000D02*
X181300000Y-100335000D01*
X191600000Y-97100000D02*
X181300000Y-97100000D01*
X191600000Y-101900000D02*
X191600000Y-97100000D01*
D15*
%TO.C,J28*%
X257400000Y-31725000D02*
X257400000Y-32975000D01*
X257690000Y-32015000D02*
X257690000Y-37985000D01*
X257690000Y-37985000D02*
X267810000Y-37985000D01*
X257700000Y-32025000D02*
X257700000Y-32775000D01*
X257700000Y-32775000D02*
X259500000Y-32775000D01*
X257700000Y-34275000D02*
X258450000Y-34275000D01*
X258450000Y-34275000D02*
X258450000Y-37225000D01*
X258450000Y-37225000D02*
X262750000Y-37225000D01*
X258650000Y-31725000D02*
X257400000Y-31725000D01*
X259500000Y-32025000D02*
X257700000Y-32025000D01*
X259500000Y-32775000D02*
X259500000Y-32025000D01*
X261000000Y-32025000D02*
X261000000Y-32775000D01*
X261000000Y-32775000D02*
X264500000Y-32775000D01*
X264500000Y-32025000D02*
X261000000Y-32025000D01*
X264500000Y-32775000D02*
X264500000Y-32025000D01*
X266000000Y-32025000D02*
X266000000Y-32775000D01*
X266000000Y-32775000D02*
X267800000Y-32775000D01*
X267050000Y-34275000D02*
X267050000Y-37225000D01*
X267050000Y-37225000D02*
X262750000Y-37225000D01*
X267800000Y-32025000D02*
X266000000Y-32025000D01*
X267800000Y-32775000D02*
X267800000Y-32025000D01*
X267800000Y-34275000D02*
X267050000Y-34275000D01*
X267810000Y-32015000D02*
X257690000Y-32015000D01*
X267810000Y-37985000D02*
X267810000Y-32015000D01*
%TO.C,U1*%
D13*
X184525000Y-51340000D02*
X164205000Y-51340000D01*
X164205000Y-71660000D01*
X184525000Y-71660000D01*
X184525000Y-51340000D01*
D15*
%TO.C,J1*%
X162850000Y-132000000D02*
X185977042Y-132000000D01*
X162850000Y-152900000D02*
X162850000Y-132000000D01*
X162850000Y-152900000D02*
X185977042Y-152900000D01*
X190100000Y-144200000D02*
X190100000Y-140000000D01*
X185977042Y-132000000D02*
G75*
G02*
X188600000Y-132935359I-2J-4145370D01*
G01*
X188600000Y-151964641D02*
G75*
G02*
X185977042Y-152900000I-2622953J3209990D01*
G01*
%TO.C,C7*%
X172420000Y-101210000D02*
X180580000Y-101210000D01*
X172420000Y-101250000D02*
X180580000Y-101250000D01*
X172421000Y-101170000D02*
X180579000Y-101170000D01*
X172422000Y-101130000D02*
X180578000Y-101130000D01*
X172423000Y-101090000D02*
X180577000Y-101090000D01*
X172425000Y-101050000D02*
X180575000Y-101050000D01*
X172427000Y-101010000D02*
X180573000Y-101010000D01*
X172430000Y-100970000D02*
X180570000Y-100970000D01*
X172432000Y-100930000D02*
X180568000Y-100930000D01*
X172436000Y-100890000D02*
X180564000Y-100890000D01*
X172439000Y-100850000D02*
X180561000Y-100850000D01*
X172444000Y-100810000D02*
X180556000Y-100810000D01*
X172448000Y-100770000D02*
X180552000Y-100770000D01*
X172453000Y-100730000D02*
X180547000Y-100730000D01*
X172458000Y-100690000D02*
X180542000Y-100690000D01*
X172464000Y-100650000D02*
X180536000Y-100650000D01*
X172470000Y-100610000D02*
X180530000Y-100610000D01*
X172477000Y-100570000D02*
X180523000Y-100570000D01*
X172483000Y-100530000D02*
X175460000Y-100530000D01*
X172491000Y-100490000D02*
X175460000Y-100490000D01*
X172498000Y-100450000D02*
X175460000Y-100450000D01*
X172507000Y-100410000D02*
X175460000Y-100410000D01*
X172515000Y-100370000D02*
X175460000Y-100370000D01*
X172524000Y-100330000D02*
X175460000Y-100330000D01*
X172533000Y-100290000D02*
X175460000Y-100290000D01*
X172543000Y-100250000D02*
X175460000Y-100250000D01*
X172553000Y-100210000D02*
X175460000Y-100210000D01*
X172564000Y-100170000D02*
X175460000Y-100170000D01*
X172575000Y-100130000D02*
X175460000Y-100130000D01*
X172587000Y-100090000D02*
X175460000Y-100090000D01*
X172599000Y-100050000D02*
X175460000Y-100050000D01*
X172611000Y-100010000D02*
X175460000Y-100010000D01*
X172624000Y-99970000D02*
X175460000Y-99970000D01*
X172637000Y-99930000D02*
X175460000Y-99930000D01*
X172651000Y-99890000D02*
X175460000Y-99890000D01*
X172665000Y-99850000D02*
X175460000Y-99850000D01*
X172680000Y-99810000D02*
X175460000Y-99810000D01*
X172695000Y-99770000D02*
X175460000Y-99770000D01*
X172711000Y-99730000D02*
X175460000Y-99730000D01*
X172727000Y-99690000D02*
X175460000Y-99690000D01*
X172743000Y-99650000D02*
X175460000Y-99650000D01*
X172760000Y-99610000D02*
X175460000Y-99610000D01*
X172778000Y-99570000D02*
X175460000Y-99570000D01*
X172796000Y-99530000D02*
X175460000Y-99530000D01*
X172815000Y-99490000D02*
X175460000Y-99490000D01*
X172834000Y-99450000D02*
X175460000Y-99450000D01*
X172854000Y-99410000D02*
X175460000Y-99410000D01*
X172874000Y-99370000D02*
X175460000Y-99370000D01*
X172895000Y-99330000D02*
X175460000Y-99330000D01*
X172916000Y-99290000D02*
X175460000Y-99290000D01*
X172938000Y-99250000D02*
X175460000Y-99250000D01*
X172961000Y-99210000D02*
X175460000Y-99210000D01*
X172984000Y-99170000D02*
X175460000Y-99170000D01*
X173007000Y-99130000D02*
X175460000Y-99130000D01*
X173032000Y-99090000D02*
X175460000Y-99090000D01*
X173057000Y-99050000D02*
X175460000Y-99050000D01*
X173082000Y-99010000D02*
X175460000Y-99010000D01*
X173108000Y-98970000D02*
X175460000Y-98970000D01*
X173135000Y-98930000D02*
X175460000Y-98930000D01*
X173163000Y-98890000D02*
X175460000Y-98890000D01*
X173191000Y-98850000D02*
X175460000Y-98850000D01*
X173220000Y-98810000D02*
X175460000Y-98810000D01*
X173250000Y-98770000D02*
X175460000Y-98770000D01*
X173281000Y-98730000D02*
X175460000Y-98730000D01*
X173312000Y-98690000D02*
X175460000Y-98690000D01*
X173344000Y-98650000D02*
X175460000Y-98650000D01*
X173377000Y-98610000D02*
X175460000Y-98610000D01*
X173411000Y-98570000D02*
X175460000Y-98570000D01*
X173445000Y-98530000D02*
X175460000Y-98530000D01*
X173481000Y-98490000D02*
X175460000Y-98490000D01*
X173518000Y-98450000D02*
X179482000Y-98450000D01*
X173555000Y-98410000D02*
X179445000Y-98410000D01*
X173594000Y-98370000D02*
X179406000Y-98370000D01*
X173633000Y-98330000D02*
X179367000Y-98330000D01*
X173674000Y-98290000D02*
X179326000Y-98290000D01*
X173716000Y-98250000D02*
X179284000Y-98250000D01*
X173759000Y-98210000D02*
X179241000Y-98210000D01*
X173785000Y-105259698D02*
X174585000Y-105259698D01*
X173804000Y-98170000D02*
X179196000Y-98170000D01*
X173849000Y-98130000D02*
X179151000Y-98130000D01*
X173896000Y-98090000D02*
X179104000Y-98090000D01*
X173945000Y-98050000D02*
X179055000Y-98050000D01*
X173995000Y-98010000D02*
X179005000Y-98010000D01*
X174047000Y-97970000D02*
X178953000Y-97970000D01*
X174100000Y-97930000D02*
X178900000Y-97930000D01*
X174156000Y-97890000D02*
X178844000Y-97890000D01*
X174185000Y-105659698D02*
X174185000Y-104859698D01*
X174213000Y-97850000D02*
X178787000Y-97850000D01*
X174273000Y-97810000D02*
X178727000Y-97810000D01*
X174335000Y-97770000D02*
X178665000Y-97770000D01*
X174399000Y-97730000D02*
X178601000Y-97730000D01*
X174466000Y-97690000D02*
X178534000Y-97690000D01*
X174536000Y-97650000D02*
X178464000Y-97650000D01*
X174610000Y-97610000D02*
X178390000Y-97610000D01*
X174687000Y-97570000D02*
X178313000Y-97570000D01*
X174769000Y-97530000D02*
X178231000Y-97530000D01*
X174856000Y-97490000D02*
X178144000Y-97490000D01*
X174948000Y-97450000D02*
X178052000Y-97450000D01*
X175047000Y-97410000D02*
X177953000Y-97410000D01*
X175154000Y-97370000D02*
X177846000Y-97370000D01*
X175272000Y-97330000D02*
X177728000Y-97330000D01*
X175403000Y-97290000D02*
X177597000Y-97290000D01*
X175553000Y-97250000D02*
X177447000Y-97250000D01*
X175732000Y-97210000D02*
X177268000Y-97210000D01*
X175967000Y-97170000D02*
X177033000Y-97170000D01*
X177540000Y-98490000D02*
X179519000Y-98490000D01*
X177540000Y-98530000D02*
X179555000Y-98530000D01*
X177540000Y-98570000D02*
X179589000Y-98570000D01*
X177540000Y-98610000D02*
X179623000Y-98610000D01*
X177540000Y-98650000D02*
X179656000Y-98650000D01*
X177540000Y-98690000D02*
X179688000Y-98690000D01*
X177540000Y-98730000D02*
X179719000Y-98730000D01*
X177540000Y-98770000D02*
X179750000Y-98770000D01*
X177540000Y-98810000D02*
X179780000Y-98810000D01*
X177540000Y-98850000D02*
X179809000Y-98850000D01*
X177540000Y-98890000D02*
X179837000Y-98890000D01*
X177540000Y-98930000D02*
X179865000Y-98930000D01*
X177540000Y-98970000D02*
X179892000Y-98970000D01*
X177540000Y-99010000D02*
X179918000Y-99010000D01*
X177540000Y-99050000D02*
X179943000Y-99050000D01*
X177540000Y-99090000D02*
X179968000Y-99090000D01*
X177540000Y-99130000D02*
X179993000Y-99130000D01*
X177540000Y-99170000D02*
X180016000Y-99170000D01*
X177540000Y-99210000D02*
X180039000Y-99210000D01*
X177540000Y-99250000D02*
X180062000Y-99250000D01*
X177540000Y-99290000D02*
X180084000Y-99290000D01*
X177540000Y-99330000D02*
X180105000Y-99330000D01*
X177540000Y-99370000D02*
X180126000Y-99370000D01*
X177540000Y-99410000D02*
X180146000Y-99410000D01*
X177540000Y-99450000D02*
X180166000Y-99450000D01*
X177540000Y-99490000D02*
X180185000Y-99490000D01*
X177540000Y-99530000D02*
X180204000Y-99530000D01*
X177540000Y-99570000D02*
X180222000Y-99570000D01*
X177540000Y-99610000D02*
X180240000Y-99610000D01*
X177540000Y-99650000D02*
X180257000Y-99650000D01*
X177540000Y-99690000D02*
X180273000Y-99690000D01*
X177540000Y-99730000D02*
X180289000Y-99730000D01*
X177540000Y-99770000D02*
X180305000Y-99770000D01*
X177540000Y-99810000D02*
X180320000Y-99810000D01*
X177540000Y-99850000D02*
X180335000Y-99850000D01*
X177540000Y-99890000D02*
X180349000Y-99890000D01*
X177540000Y-99930000D02*
X180363000Y-99930000D01*
X177540000Y-99970000D02*
X180376000Y-99970000D01*
X177540000Y-100010000D02*
X180389000Y-100010000D01*
X177540000Y-100050000D02*
X180401000Y-100050000D01*
X177540000Y-100090000D02*
X180413000Y-100090000D01*
X177540000Y-100130000D02*
X180425000Y-100130000D01*
X177540000Y-100170000D02*
X180436000Y-100170000D01*
X177540000Y-100210000D02*
X180447000Y-100210000D01*
X177540000Y-100250000D02*
X180457000Y-100250000D01*
X177540000Y-100290000D02*
X180467000Y-100290000D01*
X177540000Y-100330000D02*
X180476000Y-100330000D01*
X177540000Y-100370000D02*
X180485000Y-100370000D01*
X177540000Y-100410000D02*
X180493000Y-100410000D01*
X177540000Y-100450000D02*
X180502000Y-100450000D01*
X177540000Y-100490000D02*
X180509000Y-100490000D01*
X177540000Y-100530000D02*
X180517000Y-100530000D01*
X180620000Y-101250000D02*
G75*
G02*
X172380000Y-101250000I-4120000J0D01*
G01*
X172380000Y-101250000D02*
G75*
G02*
X180620000Y-101250000I4120000J0D01*
G01*
D16*
%TO.C,MD1*%
X170352000Y-107277000D02*
X170352000Y-119723000D01*
X170352000Y-119723000D02*
X182798000Y-119723000D01*
X182798000Y-107277000D02*
X170352000Y-107277000D01*
X182798000Y-119723000D02*
X182798000Y-107277000D01*
D14*
%TO.C,C1*%
X180500000Y-46000000D02*
G75*
G02*
X170500000Y-46000000I-5000000J0D01*
G01*
X170500000Y-46000000D02*
G75*
G02*
X180500000Y-46000000I5000000J0D01*
G01*
D15*
%TO.C,J27*%
X261490000Y-126690000D02*
X261490000Y-136810000D01*
X261490000Y-136810000D02*
X267460000Y-136810000D01*
X262250000Y-127450000D02*
X262250000Y-131750000D01*
X262250000Y-136050000D02*
X262250000Y-131750000D01*
X265200000Y-126700000D02*
X265200000Y-127450000D01*
X265200000Y-127450000D02*
X262250000Y-127450000D01*
X265200000Y-136050000D02*
X262250000Y-136050000D01*
X265200000Y-136800000D02*
X265200000Y-136050000D01*
X266700000Y-126700000D02*
X266700000Y-128500000D01*
X266700000Y-128500000D02*
X267450000Y-128500000D01*
X266700000Y-130000000D02*
X266700000Y-133500000D01*
X266700000Y-133500000D02*
X267450000Y-133500000D01*
X266700000Y-135000000D02*
X266700000Y-136800000D01*
X266700000Y-136800000D02*
X267450000Y-136800000D01*
X267450000Y-126700000D02*
X266700000Y-126700000D01*
X267450000Y-128500000D02*
X267450000Y-126700000D01*
X267450000Y-130000000D02*
X266700000Y-130000000D01*
X267450000Y-133500000D02*
X267450000Y-130000000D01*
X267450000Y-135000000D02*
X266700000Y-135000000D01*
X267450000Y-136800000D02*
X267450000Y-135000000D01*
X267460000Y-126690000D02*
X261490000Y-126690000D01*
X267460000Y-136810000D02*
X267460000Y-126690000D01*
X267750000Y-126400000D02*
X266500000Y-126400000D01*
X267750000Y-127650000D02*
X267750000Y-126400000D01*
%TO.C,J30*%
X261490000Y-39190000D02*
X261490000Y-91810000D01*
X261490000Y-91810000D02*
X267460000Y-91810000D01*
X262250000Y-39950000D02*
X262250000Y-65500000D01*
X262250000Y-91050000D02*
X262250000Y-65500000D01*
X265200000Y-39200000D02*
X265200000Y-39950000D01*
X265200000Y-39950000D02*
X262250000Y-39950000D01*
X265200000Y-91050000D02*
X262250000Y-91050000D01*
X265200000Y-91800000D02*
X265200000Y-91050000D01*
X266700000Y-39200000D02*
X266700000Y-41000000D01*
X266700000Y-41000000D02*
X267450000Y-41000000D01*
X266700000Y-42500000D02*
X266700000Y-88500000D01*
X266700000Y-88500000D02*
X267450000Y-88500000D01*
X266700000Y-90000000D02*
X266700000Y-91800000D01*
X266700000Y-91800000D02*
X267450000Y-91800000D01*
X267450000Y-39200000D02*
X266700000Y-39200000D01*
X267450000Y-41000000D02*
X267450000Y-39200000D01*
X267450000Y-42500000D02*
X266700000Y-42500000D01*
X267450000Y-88500000D02*
X267450000Y-42500000D01*
X267450000Y-90000000D02*
X266700000Y-90000000D01*
X267450000Y-91800000D02*
X267450000Y-90000000D01*
X267460000Y-39190000D02*
X261490000Y-39190000D01*
X267460000Y-91810000D02*
X267460000Y-39190000D01*
X267750000Y-38900000D02*
X266500000Y-38900000D01*
X267750000Y-40150000D02*
X267750000Y-38900000D01*
%TO.C,J3*%
X163225000Y-40850000D02*
X163225000Y-42100000D01*
X163225000Y-42100000D02*
X164475000Y-42100000D01*
X163515000Y-34190000D02*
X163515000Y-41810000D01*
X163515000Y-41810000D02*
X169485000Y-41810000D01*
X163525000Y-34200000D02*
X163525000Y-36000000D01*
X163525000Y-36000000D02*
X164275000Y-36000000D01*
X163525000Y-37500000D02*
X163525000Y-38500000D01*
X163525000Y-38500000D02*
X164275000Y-38500000D01*
X163525000Y-40000000D02*
X163525000Y-41800000D01*
X163525000Y-41800000D02*
X164275000Y-41800000D01*
X164275000Y-34200000D02*
X163525000Y-34200000D01*
X164275000Y-36000000D02*
X164275000Y-34200000D01*
X164275000Y-37500000D02*
X163525000Y-37500000D01*
X164275000Y-38500000D02*
X164275000Y-37500000D01*
X164275000Y-40000000D02*
X163525000Y-40000000D01*
X164275000Y-41800000D02*
X164275000Y-40000000D01*
X165775000Y-34200000D02*
X165775000Y-34950000D01*
X165775000Y-34950000D02*
X168725000Y-34950000D01*
X165775000Y-41050000D02*
X168725000Y-41050000D01*
X165775000Y-41800000D02*
X165775000Y-41050000D01*
X168725000Y-34950000D02*
X168725000Y-38000000D01*
X168725000Y-41050000D02*
X168725000Y-38000000D01*
X169485000Y-34190000D02*
X163515000Y-34190000D01*
X169485000Y-41810000D02*
X169485000Y-34190000D01*
%TO.C,C2*%
X198859420Y-87490000D02*
X199140580Y-87490000D01*
X198859420Y-88510000D02*
X199140580Y-88510000D01*
%TO.C,C4*%
X180920000Y-45862651D02*
X189080000Y-45862651D01*
X180920000Y-45902651D02*
X189080000Y-45902651D01*
X180921000Y-45822651D02*
X189079000Y-45822651D01*
X180922000Y-45782651D02*
X189078000Y-45782651D01*
X180923000Y-45742651D02*
X189077000Y-45742651D01*
X180925000Y-45702651D02*
X189075000Y-45702651D01*
X180927000Y-45662651D02*
X189073000Y-45662651D01*
X180930000Y-45622651D02*
X189070000Y-45622651D01*
X180932000Y-45582651D02*
X189068000Y-45582651D01*
X180936000Y-45542651D02*
X189064000Y-45542651D01*
X180939000Y-45502651D02*
X189061000Y-45502651D01*
X180944000Y-45462651D02*
X189056000Y-45462651D01*
X180948000Y-45422651D02*
X189052000Y-45422651D01*
X180953000Y-45382651D02*
X189047000Y-45382651D01*
X180958000Y-45342651D02*
X189042000Y-45342651D01*
X180964000Y-45302651D02*
X189036000Y-45302651D01*
X180970000Y-45262651D02*
X189030000Y-45262651D01*
X180977000Y-45222651D02*
X189023000Y-45222651D01*
X180983000Y-45182651D02*
X183960000Y-45182651D01*
X180991000Y-45142651D02*
X183960000Y-45142651D01*
X180998000Y-45102651D02*
X183960000Y-45102651D01*
X181007000Y-45062651D02*
X183960000Y-45062651D01*
X181015000Y-45022651D02*
X183960000Y-45022651D01*
X181024000Y-44982651D02*
X183960000Y-44982651D01*
X181033000Y-44942651D02*
X183960000Y-44942651D01*
X181043000Y-44902651D02*
X183960000Y-44902651D01*
X181053000Y-44862651D02*
X183960000Y-44862651D01*
X181064000Y-44822651D02*
X183960000Y-44822651D01*
X181075000Y-44782651D02*
X183960000Y-44782651D01*
X181087000Y-44742651D02*
X183960000Y-44742651D01*
X181099000Y-44702651D02*
X183960000Y-44702651D01*
X181111000Y-44662651D02*
X183960000Y-44662651D01*
X181124000Y-44622651D02*
X183960000Y-44622651D01*
X181137000Y-44582651D02*
X183960000Y-44582651D01*
X181151000Y-44542651D02*
X183960000Y-44542651D01*
X181165000Y-44502651D02*
X183960000Y-44502651D01*
X181180000Y-44462651D02*
X183960000Y-44462651D01*
X181195000Y-44422651D02*
X183960000Y-44422651D01*
X181211000Y-44382651D02*
X183960000Y-44382651D01*
X181227000Y-44342651D02*
X183960000Y-44342651D01*
X181243000Y-44302651D02*
X183960000Y-44302651D01*
X181260000Y-44262651D02*
X183960000Y-44262651D01*
X181278000Y-44222651D02*
X183960000Y-44222651D01*
X181296000Y-44182651D02*
X183960000Y-44182651D01*
X181315000Y-44142651D02*
X183960000Y-44142651D01*
X181334000Y-44102651D02*
X183960000Y-44102651D01*
X181354000Y-44062651D02*
X183960000Y-44062651D01*
X181374000Y-44022651D02*
X183960000Y-44022651D01*
X181395000Y-43982651D02*
X183960000Y-43982651D01*
X181416000Y-43942651D02*
X183960000Y-43942651D01*
X181438000Y-43902651D02*
X183960000Y-43902651D01*
X181461000Y-43862651D02*
X183960000Y-43862651D01*
X181484000Y-43822651D02*
X183960000Y-43822651D01*
X181507000Y-43782651D02*
X183960000Y-43782651D01*
X181532000Y-43742651D02*
X183960000Y-43742651D01*
X181557000Y-43702651D02*
X183960000Y-43702651D01*
X181582000Y-43662651D02*
X183960000Y-43662651D01*
X181608000Y-43622651D02*
X183960000Y-43622651D01*
X181635000Y-43582651D02*
X183960000Y-43582651D01*
X181663000Y-43542651D02*
X183960000Y-43542651D01*
X181691000Y-43502651D02*
X183960000Y-43502651D01*
X181720000Y-43462651D02*
X183960000Y-43462651D01*
X181750000Y-43422651D02*
X183960000Y-43422651D01*
X181781000Y-43382651D02*
X183960000Y-43382651D01*
X181812000Y-43342651D02*
X183960000Y-43342651D01*
X181844000Y-43302651D02*
X183960000Y-43302651D01*
X181877000Y-43262651D02*
X183960000Y-43262651D01*
X181911000Y-43222651D02*
X183960000Y-43222651D01*
X181945000Y-43182651D02*
X183960000Y-43182651D01*
X181981000Y-43142651D02*
X183960000Y-43142651D01*
X182018000Y-43102651D02*
X187982000Y-43102651D01*
X182055000Y-43062651D02*
X187945000Y-43062651D01*
X182094000Y-43022651D02*
X187906000Y-43022651D01*
X182133000Y-42982651D02*
X187867000Y-42982651D01*
X182174000Y-42942651D02*
X187826000Y-42942651D01*
X182216000Y-42902651D02*
X187784000Y-42902651D01*
X182259000Y-42862651D02*
X187741000Y-42862651D01*
X182285000Y-49912349D02*
X183085000Y-49912349D01*
X182304000Y-42822651D02*
X187696000Y-42822651D01*
X182349000Y-42782651D02*
X187651000Y-42782651D01*
X182396000Y-42742651D02*
X187604000Y-42742651D01*
X182445000Y-42702651D02*
X187555000Y-42702651D01*
X182495000Y-42662651D02*
X187505000Y-42662651D01*
X182547000Y-42622651D02*
X187453000Y-42622651D01*
X182600000Y-42582651D02*
X187400000Y-42582651D01*
X182656000Y-42542651D02*
X187344000Y-42542651D01*
X182685000Y-50312349D02*
X182685000Y-49512349D01*
X182713000Y-42502651D02*
X187287000Y-42502651D01*
X182773000Y-42462651D02*
X187227000Y-42462651D01*
X182835000Y-42422651D02*
X187165000Y-42422651D01*
X182899000Y-42382651D02*
X187101000Y-42382651D01*
X182966000Y-42342651D02*
X187034000Y-42342651D01*
X183036000Y-42302651D02*
X186964000Y-42302651D01*
X183110000Y-42262651D02*
X186890000Y-42262651D01*
X183187000Y-42222651D02*
X186813000Y-42222651D01*
X183269000Y-42182651D02*
X186731000Y-42182651D01*
X183356000Y-42142651D02*
X186644000Y-42142651D01*
X183448000Y-42102651D02*
X186552000Y-42102651D01*
X183547000Y-42062651D02*
X186453000Y-42062651D01*
X183654000Y-42022651D02*
X186346000Y-42022651D01*
X183772000Y-41982651D02*
X186228000Y-41982651D01*
X183903000Y-41942651D02*
X186097000Y-41942651D01*
X184053000Y-41902651D02*
X185947000Y-41902651D01*
X184232000Y-41862651D02*
X185768000Y-41862651D01*
X184467000Y-41822651D02*
X185533000Y-41822651D01*
X186040000Y-43142651D02*
X188019000Y-43142651D01*
X186040000Y-43182651D02*
X188055000Y-43182651D01*
X186040000Y-43222651D02*
X188089000Y-43222651D01*
X186040000Y-43262651D02*
X188123000Y-43262651D01*
X186040000Y-43302651D02*
X188156000Y-43302651D01*
X186040000Y-43342651D02*
X188188000Y-43342651D01*
X186040000Y-43382651D02*
X188219000Y-43382651D01*
X186040000Y-43422651D02*
X188250000Y-43422651D01*
X186040000Y-43462651D02*
X188280000Y-43462651D01*
X186040000Y-43502651D02*
X188309000Y-43502651D01*
X186040000Y-43542651D02*
X188337000Y-43542651D01*
X186040000Y-43582651D02*
X188365000Y-43582651D01*
X186040000Y-43622651D02*
X188392000Y-43622651D01*
X186040000Y-43662651D02*
X188418000Y-43662651D01*
X186040000Y-43702651D02*
X188443000Y-43702651D01*
X186040000Y-43742651D02*
X188468000Y-43742651D01*
X186040000Y-43782651D02*
X188493000Y-43782651D01*
X186040000Y-43822651D02*
X188516000Y-43822651D01*
X186040000Y-43862651D02*
X188539000Y-43862651D01*
X186040000Y-43902651D02*
X188562000Y-43902651D01*
X186040000Y-43942651D02*
X188584000Y-43942651D01*
X186040000Y-43982651D02*
X188605000Y-43982651D01*
X186040000Y-44022651D02*
X188626000Y-44022651D01*
X186040000Y-44062651D02*
X188646000Y-44062651D01*
X186040000Y-44102651D02*
X188666000Y-44102651D01*
X186040000Y-44142651D02*
X188685000Y-44142651D01*
X186040000Y-44182651D02*
X188704000Y-44182651D01*
X186040000Y-44222651D02*
X188722000Y-44222651D01*
X186040000Y-44262651D02*
X188740000Y-44262651D01*
X186040000Y-44302651D02*
X188757000Y-44302651D01*
X186040000Y-44342651D02*
X188773000Y-44342651D01*
X186040000Y-44382651D02*
X188789000Y-44382651D01*
X186040000Y-44422651D02*
X188805000Y-44422651D01*
X186040000Y-44462651D02*
X188820000Y-44462651D01*
X186040000Y-44502651D02*
X188835000Y-44502651D01*
X186040000Y-44542651D02*
X188849000Y-44542651D01*
X186040000Y-44582651D02*
X188863000Y-44582651D01*
X186040000Y-44622651D02*
X188876000Y-44622651D01*
X186040000Y-44662651D02*
X188889000Y-44662651D01*
X186040000Y-44702651D02*
X188901000Y-44702651D01*
X186040000Y-44742651D02*
X188913000Y-44742651D01*
X186040000Y-44782651D02*
X188925000Y-44782651D01*
X186040000Y-44822651D02*
X188936000Y-44822651D01*
X186040000Y-44862651D02*
X188947000Y-44862651D01*
X186040000Y-44902651D02*
X188957000Y-44902651D01*
X186040000Y-44942651D02*
X188967000Y-44942651D01*
X186040000Y-44982651D02*
X188976000Y-44982651D01*
X186040000Y-45022651D02*
X188985000Y-45022651D01*
X186040000Y-45062651D02*
X188993000Y-45062651D01*
X186040000Y-45102651D02*
X189002000Y-45102651D01*
X186040000Y-45142651D02*
X189009000Y-45142651D01*
X186040000Y-45182651D02*
X189017000Y-45182651D01*
X189120000Y-45902651D02*
G75*
G02*
X180880000Y-45902651I-4120000J0D01*
G01*
X180880000Y-45902651D02*
G75*
G02*
X189120000Y-45902651I4120000J0D01*
G01*
%TO.C,J7*%
X166690000Y-157015000D02*
X166690000Y-162985000D01*
X166690000Y-162985000D02*
X176810000Y-162985000D01*
X166700000Y-160725000D02*
X167450000Y-160725000D01*
X166700000Y-162225000D02*
X166700000Y-162975000D01*
X166700000Y-162975000D02*
X168500000Y-162975000D01*
X167450000Y-157775000D02*
X171750000Y-157775000D01*
X167450000Y-160725000D02*
X167450000Y-157775000D01*
X168500000Y-162225000D02*
X166700000Y-162225000D01*
X168500000Y-162975000D02*
X168500000Y-162225000D01*
X170000000Y-162225000D02*
X170000000Y-162975000D01*
X170000000Y-162975000D02*
X173500000Y-162975000D01*
X173500000Y-162225000D02*
X170000000Y-162225000D01*
X173500000Y-162975000D02*
X173500000Y-162225000D01*
X175000000Y-162225000D02*
X175000000Y-162975000D01*
X175000000Y-162975000D02*
X176800000Y-162975000D01*
X175850000Y-163275000D02*
X177100000Y-163275000D01*
X176050000Y-157775000D02*
X171750000Y-157775000D01*
X176050000Y-160725000D02*
X176050000Y-157775000D01*
X176800000Y-160725000D02*
X176050000Y-160725000D01*
X176800000Y-162225000D02*
X175000000Y-162225000D01*
X176800000Y-162975000D02*
X176800000Y-162225000D01*
X176810000Y-157015000D02*
X166690000Y-157015000D01*
X176810000Y-162985000D02*
X176810000Y-157015000D01*
X177100000Y-163275000D02*
X177100000Y-162025000D01*
%TO.C,C6*%
X170490000Y-104140580D02*
X170490000Y-103859420D01*
X171510000Y-104140580D02*
X171510000Y-103859420D01*
D17*
%TO.C,G\u002A\u002A\u002A*%
G36*
X180883154Y-27262422D02*
G01*
X180878269Y-27267307D01*
X180873384Y-27262422D01*
X180878269Y-27257538D01*
X180883154Y-27262422D01*
G37*
G36*
X181977380Y-26982950D02*
G01*
X182116814Y-27001840D01*
X182246589Y-27036737D01*
X182270732Y-27045438D01*
X182393525Y-27099753D01*
X182499961Y-27162731D01*
X182534946Y-27189050D01*
X182575705Y-27224172D01*
X182618286Y-27264190D01*
X182658735Y-27305194D01*
X182693099Y-27343277D01*
X182717425Y-27374530D01*
X182722764Y-27383005D01*
X182740412Y-27413846D01*
X182471141Y-27413846D01*
X182201870Y-27413846D01*
X182180105Y-27386980D01*
X182102361Y-27302962D01*
X182018690Y-27236489D01*
X181926527Y-27185860D01*
X181823307Y-27149372D01*
X181821000Y-27148745D01*
X181756053Y-27135913D01*
X181677036Y-27127869D01*
X181588818Y-27124615D01*
X181496273Y-27126156D01*
X181404273Y-27132493D01*
X181317690Y-27143631D01*
X181290984Y-27148389D01*
X181229868Y-27161544D01*
X181156540Y-27179502D01*
X181077221Y-27200592D01*
X180998134Y-27223144D01*
X180925501Y-27245487D01*
X180907577Y-27251342D01*
X180899530Y-27253088D01*
X180906660Y-27248199D01*
X180926267Y-27237938D01*
X180955658Y-27223566D01*
X180992134Y-27206346D01*
X181032999Y-27187539D01*
X181075556Y-27168407D01*
X181117110Y-27150212D01*
X181154964Y-27134216D01*
X181176230Y-27125625D01*
X181346430Y-27065759D01*
X181512813Y-27021473D01*
X181674212Y-26992853D01*
X181829457Y-26979983D01*
X181977380Y-26982950D01*
G37*
G36*
X182010094Y-27483062D02*
G01*
X182040023Y-27485277D01*
X182056971Y-27488458D01*
X182058941Y-27489726D01*
X182058311Y-27500908D01*
X182054206Y-27528696D01*
X182047074Y-27570555D01*
X182037366Y-27623950D01*
X182025530Y-27686346D01*
X182012015Y-27755209D01*
X182010895Y-27760822D01*
X181997231Y-27830365D01*
X181985192Y-27893898D01*
X181975234Y-27948829D01*
X181967813Y-27992568D01*
X181963383Y-28022525D01*
X181962401Y-28036108D01*
X181962470Y-28036370D01*
X181971270Y-28041635D01*
X181994477Y-28045656D01*
X182033641Y-28048587D01*
X182090309Y-28050581D01*
X182111227Y-28051024D01*
X182255730Y-28053730D01*
X182253138Y-28095008D01*
X182249194Y-28127759D01*
X182242731Y-28156380D01*
X182241168Y-28160951D01*
X182231791Y-28185615D01*
X181997664Y-28185615D01*
X181932018Y-28185292D01*
X181873064Y-28184385D01*
X181823550Y-28182987D01*
X181786224Y-28181191D01*
X181763834Y-28179089D01*
X181758550Y-28177546D01*
X181759466Y-28166947D01*
X181763678Y-28139777D01*
X181770698Y-28098633D01*
X181780038Y-28046114D01*
X181791212Y-27984816D01*
X181803731Y-27917336D01*
X181817108Y-27846274D01*
X181830855Y-27774225D01*
X181844485Y-27703788D01*
X181857511Y-27637560D01*
X181869444Y-27578139D01*
X181879797Y-27528122D01*
X181884937Y-27504211D01*
X181888598Y-27493488D01*
X181896544Y-27486967D01*
X181912889Y-27483610D01*
X181941742Y-27482381D01*
X181972032Y-27482230D01*
X182010094Y-27483062D01*
G37*
G36*
X182664107Y-28295519D02*
G01*
X182570352Y-28423849D01*
X182460526Y-28542297D01*
X182335884Y-28650012D01*
X182197680Y-28746142D01*
X182047168Y-28829838D01*
X181885604Y-28900250D01*
X181714241Y-28956525D01*
X181672907Y-28967550D01*
X181564902Y-28991737D01*
X181453589Y-29010467D01*
X181343583Y-29023278D01*
X181239501Y-29029706D01*
X181145958Y-29029291D01*
X181095484Y-29025416D01*
X181019187Y-29013779D01*
X180933718Y-28995721D01*
X180847504Y-28973305D01*
X180768971Y-28948598D01*
X180742704Y-28938964D01*
X180634128Y-28888421D01*
X180535838Y-28825148D01*
X180450174Y-28751041D01*
X180379476Y-28667996D01*
X180347835Y-28619222D01*
X180326609Y-28577592D01*
X180305485Y-28527442D01*
X180286274Y-28474141D01*
X180270787Y-28423058D01*
X180260834Y-28379563D01*
X180258073Y-28353041D01*
X180259533Y-28342037D01*
X180264884Y-28343482D01*
X180275874Y-28359088D01*
X180291590Y-28385884D01*
X180356026Y-28481220D01*
X180433065Y-28562247D01*
X180524033Y-28630206D01*
X180594961Y-28669804D01*
X180672229Y-28704449D01*
X180746664Y-28729414D01*
X180824307Y-28746134D01*
X180911199Y-28756042D01*
X180972026Y-28759382D01*
X181131199Y-28758091D01*
X181286143Y-28742503D01*
X181435204Y-28713294D01*
X181576728Y-28671140D01*
X181709061Y-28616714D01*
X181830551Y-28550694D01*
X181939542Y-28473754D01*
X182034381Y-28386569D01*
X182110008Y-28294666D01*
X182138500Y-28254417D01*
X182414619Y-28254208D01*
X182690738Y-28253999D01*
X182664107Y-28295519D01*
G37*
G36*
X180838735Y-27482819D02*
G01*
X180870093Y-27484764D01*
X180891603Y-27488344D01*
X180897495Y-27491494D01*
X180897679Y-27504260D01*
X180894001Y-27533016D01*
X180887094Y-27574738D01*
X180877593Y-27626402D01*
X180866130Y-27684983D01*
X180853338Y-27747458D01*
X180839851Y-27810802D01*
X180826301Y-27871992D01*
X180813323Y-27928002D01*
X180801549Y-27975809D01*
X180791613Y-28012388D01*
X180784147Y-28034716D01*
X180783398Y-28036399D01*
X180745409Y-28095407D01*
X180693160Y-28144471D01*
X180655759Y-28167760D01*
X180615972Y-28181651D01*
X180564463Y-28190440D01*
X180508475Y-28193729D01*
X180455250Y-28191122D01*
X180412031Y-28182221D01*
X180409346Y-28181271D01*
X180380502Y-28165978D01*
X180350231Y-28142707D01*
X180323158Y-28115991D01*
X180303909Y-28090367D01*
X180297082Y-28071205D01*
X180306447Y-28055522D01*
X180333969Y-28035164D01*
X180359505Y-28020620D01*
X180421845Y-27987511D01*
X180451429Y-28020620D01*
X180473921Y-28042188D01*
X180496104Y-28051713D01*
X180524988Y-28053730D01*
X180560682Y-28049872D01*
X180587031Y-28036236D01*
X180594284Y-28029943D01*
X180603630Y-28020450D01*
X180611666Y-28009659D01*
X180619028Y-27995321D01*
X180626353Y-27975186D01*
X180634276Y-27947003D01*
X180643434Y-27908524D01*
X180654463Y-27857498D01*
X180667998Y-27791676D01*
X180683701Y-27713677D01*
X180696348Y-27651403D01*
X180708022Y-27595476D01*
X180718095Y-27548778D01*
X180725942Y-27514189D01*
X180730934Y-27494591D01*
X180732084Y-27491427D01*
X180744202Y-27486812D01*
X180769925Y-27483841D01*
X180803391Y-27482510D01*
X180838735Y-27482819D01*
G37*
G36*
X182833145Y-27477861D02*
G01*
X182868404Y-27479892D01*
X182893952Y-27484167D01*
X182914695Y-27491415D01*
X182929807Y-27499105D01*
X182966930Y-27522036D01*
X182995078Y-27543856D01*
X183010765Y-27561667D01*
X183012846Y-27568090D01*
X183005906Y-27578633D01*
X182987611Y-27597630D01*
X182961747Y-27621188D01*
X182958587Y-27623904D01*
X182904328Y-27670259D01*
X182882875Y-27650164D01*
X182838974Y-27621216D01*
X182789474Y-27609015D01*
X182737213Y-27612686D01*
X182685027Y-27631353D01*
X182635755Y-27664139D01*
X182592232Y-27710169D01*
X182568035Y-27747379D01*
X182554057Y-27774457D01*
X182545448Y-27798198D01*
X182540932Y-27824911D01*
X182539235Y-27860906D01*
X182539038Y-27890825D01*
X182539038Y-27981919D01*
X182574885Y-28014792D01*
X182618398Y-28044521D01*
X182666269Y-28056997D01*
X182720016Y-28052254D01*
X182781153Y-28030326D01*
X182802050Y-28019936D01*
X182855491Y-27991825D01*
X182891843Y-28036188D01*
X182911087Y-28061721D01*
X182919478Y-28081332D01*
X182915512Y-28098027D01*
X182897686Y-28114809D01*
X182864496Y-28134681D01*
X182834730Y-28150290D01*
X182796859Y-28168843D01*
X182766417Y-28180493D01*
X182735849Y-28187150D01*
X182697604Y-28190728D01*
X182669468Y-28192123D01*
X182617164Y-28193106D01*
X182577743Y-28190454D01*
X182544783Y-28183541D01*
X182529188Y-28178460D01*
X182463729Y-28145717D01*
X182412522Y-28100310D01*
X182376194Y-28043579D01*
X182355373Y-27976866D01*
X182350687Y-27901512D01*
X182362107Y-27821624D01*
X182392403Y-27731272D01*
X182438239Y-27652647D01*
X182499854Y-27585444D01*
X182577488Y-27529360D01*
X182605623Y-27513779D01*
X182637288Y-27497765D01*
X182662216Y-27487301D01*
X182686159Y-27481206D01*
X182714867Y-27478301D01*
X182754092Y-27477408D01*
X182783269Y-27477346D01*
X182833145Y-27477861D01*
G37*
G36*
X184874343Y-27406292D02*
G01*
X184909291Y-27409588D01*
X184931383Y-27416257D01*
X184942843Y-27427179D01*
X184945892Y-27443238D01*
X184942754Y-27465316D01*
X184939593Y-27478758D01*
X184934465Y-27499193D01*
X184925165Y-27536048D01*
X184912330Y-27586804D01*
X184896596Y-27648945D01*
X184878602Y-27719951D01*
X184858984Y-27797307D01*
X184841016Y-27868115D01*
X184820788Y-27947856D01*
X184801883Y-28022493D01*
X184784889Y-28089690D01*
X184770396Y-28147110D01*
X184758994Y-28192417D01*
X184751272Y-28223276D01*
X184747925Y-28236903D01*
X184741627Y-28263769D01*
X184990130Y-28263769D01*
X185058534Y-28263994D01*
X185120955Y-28264630D01*
X185174580Y-28265612D01*
X185216597Y-28266877D01*
X185244193Y-28268362D01*
X185254085Y-28269698D01*
X185262894Y-28275075D01*
X185268055Y-28284730D01*
X185269284Y-28301090D01*
X185266301Y-28326577D01*
X185258823Y-28363617D01*
X185246568Y-28414632D01*
X185229493Y-28481134D01*
X185219939Y-28517769D01*
X184782328Y-28517769D01*
X184691687Y-28517628D01*
X184607103Y-28517224D01*
X184530571Y-28516587D01*
X184464082Y-28515746D01*
X184409630Y-28514731D01*
X184369208Y-28513569D01*
X184344810Y-28512292D01*
X184338205Y-28511256D01*
X184333388Y-28501271D01*
X184332381Y-28483195D01*
X184335520Y-28455015D01*
X184343142Y-28414719D01*
X184355583Y-28360294D01*
X184373180Y-28289729D01*
X184379142Y-28266551D01*
X184396001Y-28201146D01*
X184416138Y-28122695D01*
X184438045Y-28037097D01*
X184460213Y-27950249D01*
X184481134Y-27868049D01*
X184487318Y-27843692D01*
X184505687Y-27771527D01*
X184524107Y-27699586D01*
X184541521Y-27631965D01*
X184556873Y-27572762D01*
X184569105Y-27526074D01*
X184574270Y-27506653D01*
X184600497Y-27408961D01*
X184756987Y-27406287D01*
X184824316Y-27405486D01*
X184874343Y-27406292D01*
G37*
G36*
X186318311Y-27390188D02*
G01*
X186435471Y-27407283D01*
X186544412Y-27438701D01*
X186574650Y-27450742D01*
X186609040Y-27465907D01*
X186629093Y-27477202D01*
X186638567Y-27488127D01*
X186641223Y-27502180D01*
X186641134Y-27512628D01*
X186637993Y-27538315D01*
X186630507Y-27574688D01*
X186619904Y-27617543D01*
X186607408Y-27662674D01*
X186594246Y-27705877D01*
X186581642Y-27742945D01*
X186570824Y-27769675D01*
X186563015Y-27781861D01*
X186562599Y-27782066D01*
X186533683Y-27782888D01*
X186496903Y-27766711D01*
X186459945Y-27739684D01*
X186392228Y-27694046D01*
X186313942Y-27660422D01*
X186263437Y-27647097D01*
X186194588Y-27642192D01*
X186121150Y-27652392D01*
X186048641Y-27676084D01*
X185982582Y-27711655D01*
X185946342Y-27739814D01*
X185901341Y-27792000D01*
X185864439Y-27857678D01*
X185837423Y-27931846D01*
X185822083Y-28009505D01*
X185820208Y-28085652D01*
X185820656Y-28091117D01*
X185828182Y-28144060D01*
X185841393Y-28183836D01*
X185862864Y-28216570D01*
X185881685Y-28236234D01*
X185923489Y-28262968D01*
X185978020Y-28278232D01*
X186042410Y-28282330D01*
X186113794Y-28275565D01*
X186189304Y-28258241D01*
X186266073Y-28230661D01*
X186341235Y-28193129D01*
X186352621Y-28186401D01*
X186398858Y-28160574D01*
X186433107Y-28147104D01*
X186456079Y-28146909D01*
X186468484Y-28160906D01*
X186471032Y-28190009D01*
X186464433Y-28235138D01*
X186449397Y-28297207D01*
X186446567Y-28307639D01*
X186433549Y-28354415D01*
X186422055Y-28394377D01*
X186413202Y-28423737D01*
X186408105Y-28438709D01*
X186407668Y-28439591D01*
X186395326Y-28447719D01*
X186368307Y-28459487D01*
X186330803Y-28473469D01*
X186287006Y-28488243D01*
X186241111Y-28502381D01*
X186197309Y-28514462D01*
X186165190Y-28521978D01*
X186112171Y-28529767D01*
X186047257Y-28534535D01*
X185976662Y-28536266D01*
X185906601Y-28534944D01*
X185843290Y-28530554D01*
X185792942Y-28523079D01*
X185792192Y-28522916D01*
X185699859Y-28494236D01*
X185619985Y-28451621D01*
X185569129Y-28410984D01*
X185514831Y-28346996D01*
X185476649Y-28272796D01*
X185454474Y-28188009D01*
X185448197Y-28092261D01*
X185453918Y-28012530D01*
X185477472Y-27897336D01*
X185518243Y-27790547D01*
X185575265Y-27693429D01*
X185647567Y-27607247D01*
X185734183Y-27533265D01*
X185834142Y-27472748D01*
X185885000Y-27449507D01*
X185963210Y-27422289D01*
X186048210Y-27403284D01*
X186144755Y-27391558D01*
X186197615Y-27388191D01*
X186318311Y-27390188D01*
G37*
G36*
X187167231Y-27404837D02*
G01*
X187238930Y-27405899D01*
X187310749Y-27407634D01*
X187379919Y-27409994D01*
X187443669Y-27412935D01*
X187499228Y-27416409D01*
X187543827Y-27420371D01*
X187574695Y-27424775D01*
X187582346Y-27426583D01*
X187666738Y-27458219D01*
X187734195Y-27499552D01*
X187784687Y-27550538D01*
X187818182Y-27611128D01*
X187834649Y-27681277D01*
X187834056Y-27760936D01*
X187829114Y-27795016D01*
X187807083Y-27871837D01*
X187769547Y-27939115D01*
X187714601Y-28000241D01*
X187713249Y-28001482D01*
X187652135Y-28049611D01*
X187582502Y-28089312D01*
X187502491Y-28121128D01*
X187410246Y-28145606D01*
X187303908Y-28163292D01*
X187181622Y-28174731D01*
X187111092Y-28178392D01*
X187052530Y-28180730D01*
X187036202Y-28244230D01*
X187026636Y-28281537D01*
X187014198Y-28330198D01*
X187000824Y-28382628D01*
X186993155Y-28412749D01*
X186966436Y-28517769D01*
X186803030Y-28517769D01*
X186740709Y-28517479D01*
X186695162Y-28516455D01*
X186663630Y-28514462D01*
X186643352Y-28511269D01*
X186631572Y-28506642D01*
X186627296Y-28502915D01*
X186623678Y-28494535D01*
X186623149Y-28479840D01*
X186626135Y-28456350D01*
X186633062Y-28421584D01*
X186644355Y-28373063D01*
X186660440Y-28308306D01*
X186661253Y-28305088D01*
X186701218Y-28147276D01*
X186736699Y-28007559D01*
X186762568Y-27906080D01*
X187125842Y-27906080D01*
X187127192Y-27914582D01*
X187133820Y-27919642D01*
X187149339Y-27921791D01*
X187177363Y-27921565D01*
X187218008Y-27919679D01*
X187269121Y-27915805D01*
X187307608Y-27909451D01*
X187340357Y-27899150D01*
X187364041Y-27888569D01*
X187413207Y-27856529D01*
X187444424Y-27817444D01*
X187457446Y-27771644D01*
X187457846Y-27761300D01*
X187453546Y-27723579D01*
X187439320Y-27695611D01*
X187413182Y-27676259D01*
X187373142Y-27664381D01*
X187317212Y-27658838D01*
X187277805Y-27658076D01*
X187185060Y-27658076D01*
X187175206Y-27694711D01*
X187158911Y-27756730D01*
X187145095Y-27812145D01*
X187134493Y-27857805D01*
X187127842Y-27890556D01*
X187125842Y-27906080D01*
X186762568Y-27906080D01*
X186767924Y-27885071D01*
X186795120Y-27778943D01*
X186818516Y-27688309D01*
X186838337Y-27612303D01*
X186854813Y-27550057D01*
X186868170Y-27500703D01*
X186878635Y-27463377D01*
X186886437Y-27437209D01*
X186891802Y-27421334D01*
X186894715Y-27415155D01*
X186907512Y-27411218D01*
X186937051Y-27408230D01*
X186980563Y-27406143D01*
X187035278Y-27404913D01*
X187098424Y-27404493D01*
X187167231Y-27404837D01*
G37*
G36*
X184127629Y-27404159D02*
G01*
X184189930Y-27404755D01*
X184236807Y-27406384D01*
X184270318Y-27409566D01*
X184292518Y-27414822D01*
X184305466Y-27422672D01*
X184311218Y-27433636D01*
X184311832Y-27448236D01*
X184309365Y-27466990D01*
X184308871Y-27470101D01*
X184304863Y-27489653D01*
X184296712Y-27525022D01*
X184285170Y-27573108D01*
X184270987Y-27630812D01*
X184254915Y-27695035D01*
X184243221Y-27741115D01*
X184212690Y-27860045D01*
X184186074Y-27961677D01*
X184162725Y-28047712D01*
X184141996Y-28119849D01*
X184123239Y-28179789D01*
X184105805Y-28229233D01*
X184089046Y-28269879D01*
X184072315Y-28303430D01*
X184054964Y-28331585D01*
X184036344Y-28356044D01*
X184015809Y-28378507D01*
X183992709Y-28400675D01*
X183991428Y-28401850D01*
X183935248Y-28446291D01*
X183873847Y-28480366D01*
X183804162Y-28505063D01*
X183723128Y-28521374D01*
X183627681Y-28530289D01*
X183589230Y-28531878D01*
X183532883Y-28532838D01*
X183476484Y-28532536D01*
X183426517Y-28531081D01*
X183389467Y-28528582D01*
X183388961Y-28528528D01*
X183338672Y-28522156D01*
X183304814Y-28515136D01*
X183284282Y-28506523D01*
X183273970Y-28495372D01*
X183273040Y-28493234D01*
X183273253Y-28478691D01*
X183277841Y-28449578D01*
X183286013Y-28410168D01*
X183296560Y-28366355D01*
X183307794Y-28322118D01*
X183316991Y-28285210D01*
X183323197Y-28259499D01*
X183325461Y-28248863D01*
X183334020Y-28244531D01*
X183356256Y-28244857D01*
X183387011Y-28249310D01*
X183421124Y-28257362D01*
X183428038Y-28259401D01*
X183474164Y-28268852D01*
X183530200Y-28273582D01*
X183587724Y-28273403D01*
X183638316Y-28268126D01*
X183655021Y-28264467D01*
X183698649Y-28243146D01*
X183736908Y-28203839D01*
X183764744Y-28157685D01*
X183771505Y-28139995D01*
X183782131Y-28107152D01*
X183795713Y-28062426D01*
X183811338Y-28009087D01*
X183828098Y-27950406D01*
X183845080Y-27889651D01*
X183861374Y-27830094D01*
X183876071Y-27775003D01*
X183888258Y-27727649D01*
X183897027Y-27691302D01*
X183901465Y-27669232D01*
X183901828Y-27665403D01*
X183892866Y-27661901D01*
X183869143Y-27659310D01*
X183835431Y-27658108D01*
X183828577Y-27658076D01*
X183791124Y-27657619D01*
X183769149Y-27655523D01*
X183758601Y-27650702D01*
X183755427Y-27642069D01*
X183755307Y-27638434D01*
X183757347Y-27621643D01*
X183762737Y-27591097D01*
X183770388Y-27552070D01*
X183779207Y-27509835D01*
X183788104Y-27469664D01*
X183795986Y-27436831D01*
X183800275Y-27421172D01*
X183803231Y-27415861D01*
X183809996Y-27411773D01*
X183822857Y-27408750D01*
X183844102Y-27406633D01*
X183876020Y-27405266D01*
X183920900Y-27404490D01*
X183981030Y-27404146D01*
X184047846Y-27404076D01*
X184127629Y-27404159D01*
G37*
G36*
X188725641Y-27391468D02*
G01*
X188799257Y-27396625D01*
X188863213Y-27405439D01*
X188874384Y-27407650D01*
X188934807Y-27422376D01*
X188989057Y-27439372D01*
X189034151Y-27457382D01*
X189067107Y-27475154D01*
X189084942Y-27491433D01*
X189087158Y-27497120D01*
X189085599Y-27513247D01*
X189079425Y-27544086D01*
X189069550Y-27585608D01*
X189056888Y-27633787D01*
X189052859Y-27648307D01*
X189038089Y-27700430D01*
X189027084Y-27736696D01*
X189018380Y-27760072D01*
X189010511Y-27773527D01*
X189002014Y-27780028D01*
X188991423Y-27782544D01*
X188986353Y-27783091D01*
X188966620Y-27781667D01*
X188944213Y-27771977D01*
X188914671Y-27751759D01*
X188896520Y-27737549D01*
X188827155Y-27690214D01*
X188757305Y-27660400D01*
X188682618Y-27646473D01*
X188649692Y-27644978D01*
X188561991Y-27652713D01*
X188483310Y-27677559D01*
X188414304Y-27719182D01*
X188355626Y-27777250D01*
X188335272Y-27804890D01*
X188300818Y-27864583D01*
X188278598Y-27925485D01*
X188266936Y-27993571D01*
X188264077Y-28058615D01*
X188265031Y-28109451D01*
X188268727Y-28146109D01*
X188275898Y-28173844D01*
X188282175Y-28188390D01*
X188312609Y-28228752D01*
X188356619Y-28257801D01*
X188411877Y-28275575D01*
X188476058Y-28282112D01*
X188546834Y-28277450D01*
X188621879Y-28261629D01*
X188698865Y-28234686D01*
X188775466Y-28196660D01*
X188803243Y-28179790D01*
X188842610Y-28157310D01*
X188871535Y-28147967D01*
X188893457Y-28151148D01*
X188907173Y-28161183D01*
X188912604Y-28168957D01*
X188914716Y-28180547D01*
X188913071Y-28199195D01*
X188907233Y-28228142D01*
X188896763Y-28270628D01*
X188887730Y-28305279D01*
X188874810Y-28353032D01*
X188863115Y-28393845D01*
X188853745Y-28424054D01*
X188847798Y-28439991D01*
X188846917Y-28441377D01*
X188832284Y-28449601D01*
X188803283Y-28461498D01*
X188764386Y-28475569D01*
X188720068Y-28490316D01*
X188674803Y-28504240D01*
X188633062Y-28515844D01*
X188604329Y-28522632D01*
X188552408Y-28530153D01*
X188488165Y-28534679D01*
X188417888Y-28536210D01*
X188347864Y-28534747D01*
X188284384Y-28530292D01*
X188233734Y-28522846D01*
X188232476Y-28522576D01*
X188146725Y-28496061D01*
X188069856Y-28456609D01*
X188004587Y-28406147D01*
X187953637Y-28346604D01*
X187932209Y-28309675D01*
X187908035Y-28242015D01*
X187894321Y-28162590D01*
X187891024Y-28076109D01*
X187898099Y-27987282D01*
X187915504Y-27900817D01*
X187936587Y-27837133D01*
X187987083Y-27736796D01*
X188053597Y-27646127D01*
X188134436Y-27566543D01*
X188227906Y-27499460D01*
X188332314Y-27446297D01*
X188445967Y-27408469D01*
X188449987Y-27407466D01*
X188504540Y-27397968D01*
X188572513Y-27392137D01*
X188648137Y-27389971D01*
X188725641Y-27391468D01*
G37*
G36*
X189653768Y-27406536D02*
G01*
X189743729Y-27408032D01*
X189816462Y-27409636D01*
X189874279Y-27411486D01*
X189919492Y-27413721D01*
X189954410Y-27416478D01*
X189981346Y-27419895D01*
X190002611Y-27424110D01*
X190017384Y-27428242D01*
X190098205Y-27459792D01*
X190160902Y-27497519D01*
X190206027Y-27541864D01*
X190234133Y-27593267D01*
X190237488Y-27603506D01*
X190248457Y-27648386D01*
X190250723Y-27686302D01*
X190244241Y-27726786D01*
X190236773Y-27754133D01*
X190208837Y-27814523D01*
X190164139Y-27865958D01*
X190118621Y-27898724D01*
X190094399Y-27914135D01*
X190079243Y-27926125D01*
X190076597Y-27930101D01*
X190084217Y-27938962D01*
X190103073Y-27954666D01*
X190118116Y-27965887D01*
X190148104Y-27993295D01*
X190174643Y-28027095D01*
X190181717Y-28039157D01*
X190193872Y-28066122D01*
X190200108Y-28091978D01*
X190201620Y-28124207D01*
X190200413Y-28156307D01*
X190187731Y-28233600D01*
X190158411Y-28301822D01*
X190112179Y-28361257D01*
X190048764Y-28412190D01*
X189967892Y-28454905D01*
X189885500Y-28484881D01*
X189862363Y-28491870D01*
X189841701Y-28497552D01*
X189821192Y-28502084D01*
X189798518Y-28505627D01*
X189771358Y-28508339D01*
X189737393Y-28510380D01*
X189694303Y-28511909D01*
X189639768Y-28513086D01*
X189571470Y-28514069D01*
X189487087Y-28515017D01*
X189439295Y-28515517D01*
X189346140Y-28516448D01*
X189270609Y-28517056D01*
X189210788Y-28517264D01*
X189164766Y-28516995D01*
X189130628Y-28516170D01*
X189106462Y-28514712D01*
X189090354Y-28512544D01*
X189080392Y-28509587D01*
X189074663Y-28505763D01*
X189071252Y-28500997D01*
X189071021Y-28500569D01*
X189069053Y-28490113D01*
X189070379Y-28470638D01*
X189075356Y-28440379D01*
X189084340Y-28397576D01*
X189097688Y-28340465D01*
X189115756Y-28267284D01*
X189121650Y-28243993D01*
X189481323Y-28243993D01*
X189484343Y-28262272D01*
X189496609Y-28271538D01*
X189519381Y-28274308D01*
X189553921Y-28273098D01*
X189595704Y-28270707D01*
X189659538Y-28265966D01*
X189711342Y-28258976D01*
X189747673Y-28250224D01*
X189752048Y-28248602D01*
X189794450Y-28224680D01*
X189823985Y-28193716D01*
X189839012Y-28158950D01*
X189837894Y-28123622D01*
X189826900Y-28100678D01*
X189803046Y-28082490D01*
X189760776Y-28069351D01*
X189700576Y-28061359D01*
X189622930Y-28058615D01*
X189621522Y-28058615D01*
X189529469Y-28058615D01*
X189515119Y-28109903D01*
X189497972Y-28170326D01*
X189486286Y-28214183D01*
X189481323Y-28243993D01*
X189121650Y-28243993D01*
X189127982Y-28218968D01*
X189150327Y-28131185D01*
X189175494Y-28032264D01*
X189201755Y-27928998D01*
X189227382Y-27828180D01*
X189230302Y-27816687D01*
X189589509Y-27816687D01*
X189593505Y-27821753D01*
X189606106Y-27824155D01*
X189630555Y-27824334D01*
X189670094Y-27822729D01*
X189688706Y-27821796D01*
X189743624Y-27817904D01*
X189783048Y-27812287D01*
X189810996Y-27804235D01*
X189824055Y-27797866D01*
X189855878Y-27772163D01*
X189874310Y-27742398D01*
X189878674Y-27712493D01*
X189868295Y-27686370D01*
X189846197Y-27669520D01*
X189825672Y-27664546D01*
X189791369Y-27660664D01*
X189749041Y-27658418D01*
X189725035Y-27658076D01*
X189628990Y-27658076D01*
X189612724Y-27724019D01*
X189603663Y-27760179D01*
X189595758Y-27790731D01*
X189590876Y-27808517D01*
X189589509Y-27816687D01*
X189230302Y-27816687D01*
X189250648Y-27736606D01*
X189259426Y-27702038D01*
X189277008Y-27633380D01*
X189293518Y-27570020D01*
X189308215Y-27514715D01*
X189320359Y-27470222D01*
X189329207Y-27439296D01*
X189333899Y-27424967D01*
X189343882Y-27401896D01*
X189653768Y-27406536D01*
G37*
G36*
X181429110Y-27565594D02*
G01*
X181515323Y-27580377D01*
X181585046Y-27605471D01*
X181638512Y-27641078D01*
X181675952Y-27687398D01*
X181697596Y-27744635D01*
X181703761Y-27805257D01*
X181694439Y-27875619D01*
X181668192Y-27941972D01*
X181627572Y-28001841D01*
X181575134Y-28052752D01*
X181513430Y-28092231D01*
X181445013Y-28117804D01*
X181372437Y-28126998D01*
X181371734Y-28126999D01*
X181335690Y-28125420D01*
X181314653Y-28119982D01*
X181304909Y-28110807D01*
X181297747Y-28101402D01*
X181287160Y-28099865D01*
X181267099Y-28106197D01*
X181255380Y-28110807D01*
X181220952Y-28120390D01*
X181179871Y-28126199D01*
X181161235Y-28126999D01*
X181127343Y-28125428D01*
X181103756Y-28118456D01*
X181081347Y-28102697D01*
X181071068Y-28093540D01*
X181049588Y-28072035D01*
X181038828Y-28053238D01*
X181035242Y-28028647D01*
X181035094Y-28010766D01*
X181140570Y-28010766D01*
X181149073Y-28030919D01*
X181160690Y-28043962D01*
X181183745Y-28062286D01*
X181206684Y-28067123D01*
X181235981Y-28059081D01*
X181250788Y-28052464D01*
X181289003Y-28026688D01*
X181323112Y-27989840D01*
X181350730Y-27946442D01*
X181369471Y-27901019D01*
X181376949Y-27858095D01*
X181371425Y-27823694D01*
X181352407Y-27798399D01*
X181324703Y-27787512D01*
X181291489Y-27789917D01*
X181255942Y-27804498D01*
X181221237Y-27830137D01*
X181190552Y-27865720D01*
X181174653Y-27892863D01*
X181158971Y-27928865D01*
X181146773Y-27964324D01*
X181142310Y-27982904D01*
X181140570Y-28010766D01*
X181035094Y-28010766D01*
X181035064Y-28007179D01*
X181043116Y-27951313D01*
X181064539Y-27897422D01*
X181096786Y-27847396D01*
X181137310Y-27803125D01*
X181183563Y-27766498D01*
X181232998Y-27739405D01*
X181283069Y-27723736D01*
X181331228Y-27721382D01*
X181374927Y-27734231D01*
X181390149Y-27743725D01*
X181420125Y-27765874D01*
X181439832Y-27746167D01*
X181464515Y-27731321D01*
X181501325Y-27726471D01*
X181503500Y-27726461D01*
X181529746Y-27727918D01*
X181545516Y-27731603D01*
X181547552Y-27733788D01*
X181543855Y-27744764D01*
X181533566Y-27770494D01*
X181517982Y-27807856D01*
X181498400Y-27853728D01*
X181482468Y-27890465D01*
X181456083Y-27952130D01*
X181438196Y-27997806D01*
X181428815Y-28029101D01*
X181427946Y-28047625D01*
X181435597Y-28054985D01*
X181451774Y-28052790D01*
X181476485Y-28042647D01*
X181483122Y-28039483D01*
X181531346Y-28007189D01*
X181574000Y-27962001D01*
X181607744Y-27908995D01*
X181629239Y-27853248D01*
X181635384Y-27808064D01*
X181627446Y-27767718D01*
X181606216Y-27726005D01*
X181580414Y-27695229D01*
X181532247Y-27662581D01*
X181471745Y-27641274D01*
X181402564Y-27631421D01*
X181328358Y-27633134D01*
X181252785Y-27646526D01*
X181179499Y-27671710D01*
X181157361Y-27682160D01*
X181106594Y-27715432D01*
X181056333Y-27761494D01*
X181012395Y-27814335D01*
X180983427Y-27861973D01*
X180969431Y-27893492D01*
X180961230Y-27922243D01*
X180957377Y-27955666D01*
X180956423Y-28000713D01*
X180957099Y-28043605D01*
X180959998Y-28073104D01*
X180966425Y-28095330D01*
X180977688Y-28116408D01*
X180982790Y-28124308D01*
X181018481Y-28161623D01*
X181068696Y-28190937D01*
X181130058Y-28212089D01*
X181199195Y-28224918D01*
X181272733Y-28229262D01*
X181347296Y-28224960D01*
X181419511Y-28211850D01*
X181486004Y-28189771D01*
X181543401Y-28158561D01*
X181553003Y-28151584D01*
X181582811Y-28133663D01*
X181613460Y-28128342D01*
X181627825Y-28128884D01*
X181668952Y-28131884D01*
X181630187Y-28169542D01*
X181577586Y-28210589D01*
X181511664Y-28246299D01*
X181438518Y-28273486D01*
X181423154Y-28277725D01*
X181377447Y-28285808D01*
X181319362Y-28290672D01*
X181255247Y-28292312D01*
X181191452Y-28290722D01*
X181134324Y-28285898D01*
X181090756Y-28277981D01*
X181017428Y-28250925D01*
X180957818Y-28213505D01*
X180913462Y-28166983D01*
X180885897Y-28112621D01*
X180884722Y-28108844D01*
X180873484Y-28038920D01*
X180878703Y-27964096D01*
X180899158Y-27887792D01*
X180933628Y-27813428D01*
X180980892Y-27744424D01*
X181034839Y-27688426D01*
X181093039Y-27647406D01*
X181164471Y-27612641D01*
X181243345Y-27585935D01*
X181323868Y-27569092D01*
X181400249Y-27563916D01*
X181429110Y-27565594D01*
G37*
D18*
%TO.C,F2*%
X184635000Y-102845000D02*
X184635000Y-122655000D01*
X184635000Y-122655000D02*
X191365000Y-122655000D01*
X191365000Y-102845000D02*
X184635000Y-102845000D01*
X191365000Y-122655000D02*
X191365000Y-102845000D01*
D15*
%TO.C,J6*%
X179190000Y-156990000D02*
X179190000Y-162960000D01*
X179190000Y-162960000D02*
X191810000Y-162960000D01*
X179200000Y-160700000D02*
X179950000Y-160700000D01*
X179200000Y-162200000D02*
X179200000Y-162950000D01*
X179200000Y-162950000D02*
X181000000Y-162950000D01*
X179950000Y-157750000D02*
X185500000Y-157750000D01*
X179950000Y-160700000D02*
X179950000Y-157750000D01*
X181000000Y-162200000D02*
X179200000Y-162200000D01*
X181000000Y-162950000D02*
X181000000Y-162200000D01*
X182500000Y-162200000D02*
X182500000Y-162950000D01*
X182500000Y-162950000D02*
X188500000Y-162950000D01*
X188500000Y-162200000D02*
X182500000Y-162200000D01*
X188500000Y-162950000D02*
X188500000Y-162200000D01*
X190000000Y-162200000D02*
X190000000Y-162950000D01*
X190000000Y-162950000D02*
X191800000Y-162950000D01*
X190850000Y-163250000D02*
X192100000Y-163250000D01*
X191050000Y-157750000D02*
X185500000Y-157750000D01*
X191050000Y-160700000D02*
X191050000Y-157750000D01*
X191800000Y-160700000D02*
X191050000Y-160700000D01*
X191800000Y-162200000D02*
X190000000Y-162200000D01*
X191800000Y-162950000D02*
X191800000Y-162200000D01*
X191810000Y-156990000D02*
X179190000Y-156990000D01*
X191810000Y-162960000D02*
X191810000Y-156990000D01*
X192100000Y-163250000D02*
X192100000Y-162000000D01*
%TO.C,U4*%
X195850000Y-73630000D02*
X196440000Y-73630000D01*
X195850000Y-75850000D02*
X196440000Y-75850000D01*
X196440000Y-71530000D02*
X196440000Y-73630000D01*
X196440000Y-71530000D02*
X206560000Y-71530000D01*
X196440000Y-75850000D02*
X196440000Y-80750000D01*
X196440000Y-80750000D02*
X206560000Y-80750000D01*
X201130000Y-87490000D02*
X201130000Y-93460000D01*
X201130000Y-93460000D02*
X216250000Y-93460000D01*
X201140000Y-91200000D02*
X201890000Y-91200000D01*
X201140000Y-92700000D02*
X201140000Y-93450000D01*
X201140000Y-93450000D02*
X202940000Y-93450000D01*
X201890000Y-88250000D02*
X208690000Y-88250000D01*
X201890000Y-91200000D02*
X201890000Y-88250000D01*
X202940000Y-92700000D02*
X201140000Y-92700000D01*
X202940000Y-93450000D02*
X202940000Y-92700000D01*
X204440000Y-92700000D02*
X204440000Y-93450000D01*
X204440000Y-93450000D02*
X212940000Y-93450000D01*
X206560000Y-71530000D02*
X206560000Y-73630000D01*
X206560000Y-73630000D02*
X207150000Y-73630000D01*
X206560000Y-75850000D02*
X206560000Y-80750000D01*
X206560000Y-75850000D02*
X207150000Y-75850000D01*
X210350000Y-73640000D02*
X210940000Y-73640000D01*
X210350000Y-75860000D02*
X210940000Y-75860000D01*
X210940000Y-71540000D02*
X210940000Y-73640000D01*
X210940000Y-71540000D02*
X221060000Y-71540000D01*
X210940000Y-75860000D02*
X210940000Y-80760000D01*
X210940000Y-80760000D02*
X221060000Y-80760000D01*
X212940000Y-92700000D02*
X204440000Y-92700000D01*
X212940000Y-93450000D02*
X212940000Y-92700000D01*
X214440000Y-92700000D02*
X214440000Y-93450000D01*
X214440000Y-93450000D02*
X216240000Y-93450000D01*
X215290000Y-93750000D02*
X216540000Y-93750000D01*
X215490000Y-88250000D02*
X208690000Y-88250000D01*
X215490000Y-91200000D02*
X215490000Y-88250000D01*
X216240000Y-91200000D02*
X215490000Y-91200000D01*
X216240000Y-92700000D02*
X214440000Y-92700000D01*
X216240000Y-93450000D02*
X216240000Y-92700000D01*
X216250000Y-87490000D02*
X201130000Y-87490000D01*
X216250000Y-93460000D02*
X216250000Y-87490000D01*
X216540000Y-93750000D02*
X216540000Y-92500000D01*
X221060000Y-71540000D02*
X221060000Y-73640000D01*
X221060000Y-73640000D02*
X221650000Y-73640000D01*
X221060000Y-75860000D02*
X221060000Y-80760000D01*
X221060000Y-75860000D02*
X221650000Y-75860000D01*
D14*
X192500000Y-94120000D02*
X224000000Y-94120000D01*
X224000000Y-72100000D01*
X192500000Y-72100000D01*
X192500000Y-94120000D01*
D15*
X195850000Y-75850000D02*
G75*
G02*
X195850000Y-73630000I0J1110000D01*
G01*
X207150000Y-73630000D02*
G75*
G02*
X207150000Y-75850000I0J-1110000D01*
G01*
X210350000Y-75860000D02*
G75*
G02*
X210350000Y-73640000I0J1110000D01*
G01*
X221650000Y-73640000D02*
G75*
G02*
X221650000Y-75860000I0J-1110000D01*
G01*
%TO.C,J2*%
X163250000Y-49350000D02*
X163250000Y-50600000D01*
X163250000Y-50600000D02*
X164500000Y-50600000D01*
X163540000Y-42690000D02*
X163540000Y-50310000D01*
X163540000Y-50310000D02*
X169510000Y-50310000D01*
X163550000Y-42700000D02*
X163550000Y-44500000D01*
X163550000Y-44500000D02*
X164300000Y-44500000D01*
X163550000Y-46000000D02*
X163550000Y-47000000D01*
X163550000Y-47000000D02*
X164300000Y-47000000D01*
X163550000Y-48500000D02*
X163550000Y-50300000D01*
X163550000Y-50300000D02*
X164300000Y-50300000D01*
X164300000Y-42700000D02*
X163550000Y-42700000D01*
X164300000Y-44500000D02*
X164300000Y-42700000D01*
X164300000Y-46000000D02*
X163550000Y-46000000D01*
X164300000Y-47000000D02*
X164300000Y-46000000D01*
X164300000Y-48500000D02*
X163550000Y-48500000D01*
X164300000Y-50300000D02*
X164300000Y-48500000D01*
X165800000Y-42700000D02*
X165800000Y-43450000D01*
X165800000Y-43450000D02*
X168750000Y-43450000D01*
X165800000Y-49550000D02*
X168750000Y-49550000D01*
X165800000Y-50300000D02*
X165800000Y-49550000D01*
X168750000Y-43450000D02*
X168750000Y-46500000D01*
X168750000Y-49550000D02*
X168750000Y-46500000D01*
X169510000Y-42690000D02*
X163540000Y-42690000D01*
X169510000Y-50310000D02*
X169510000Y-42690000D01*
%TO.C,J26*%
X261490000Y-147190000D02*
X261490000Y-157310000D01*
X261490000Y-157310000D02*
X267460000Y-157310000D01*
X262250000Y-147950000D02*
X262250000Y-152250000D01*
X262250000Y-156550000D02*
X262250000Y-152250000D01*
X265200000Y-147200000D02*
X265200000Y-147950000D01*
X265200000Y-147950000D02*
X262250000Y-147950000D01*
X265200000Y-156550000D02*
X262250000Y-156550000D01*
X265200000Y-157300000D02*
X265200000Y-156550000D01*
X266700000Y-147200000D02*
X266700000Y-149000000D01*
X266700000Y-149000000D02*
X267450000Y-149000000D01*
X266700000Y-150500000D02*
X266700000Y-154000000D01*
X266700000Y-154000000D02*
X267450000Y-154000000D01*
X266700000Y-155500000D02*
X266700000Y-157300000D01*
X266700000Y-157300000D02*
X267450000Y-157300000D01*
X267450000Y-147200000D02*
X266700000Y-147200000D01*
X267450000Y-149000000D02*
X267450000Y-147200000D01*
X267450000Y-150500000D02*
X266700000Y-150500000D01*
X267450000Y-154000000D02*
X267450000Y-150500000D01*
X267450000Y-155500000D02*
X266700000Y-155500000D01*
X267450000Y-157300000D02*
X267450000Y-155500000D01*
X267460000Y-147190000D02*
X261490000Y-147190000D01*
X267460000Y-157310000D02*
X267460000Y-147190000D01*
X267750000Y-146900000D02*
X266500000Y-146900000D01*
X267750000Y-148150000D02*
X267750000Y-146900000D01*
%TO.C,C8*%
X181740000Y-104165580D02*
X181740000Y-103884420D01*
X182760000Y-104165580D02*
X182760000Y-103884420D01*
%TO.C,R13*%
X188000000Y-54280000D02*
X188000000Y-55130000D01*
X188000000Y-71720000D02*
X188000000Y-70870000D01*
X185380000Y-70870000D02*
X190620000Y-70870000D01*
X190620000Y-55130000D01*
X185380000Y-55130000D01*
X185380000Y-70870000D01*
%TO.C,R1*%
X172460000Y-123000000D02*
X173230000Y-123000000D01*
X180540000Y-123000000D02*
X179770000Y-123000000D01*
X179770000Y-124370000D02*
X173230000Y-124370000D01*
X173230000Y-121630000D01*
X179770000Y-121630000D01*
X179770000Y-124370000D01*
%TO.C,J22*%
X258900000Y-92725000D02*
X258900000Y-93975000D01*
X259190000Y-93015000D02*
X259190000Y-98985000D01*
X259190000Y-98985000D02*
X266810000Y-98985000D01*
X259200000Y-93025000D02*
X259200000Y-93775000D01*
X259200000Y-93775000D02*
X261000000Y-93775000D01*
X259200000Y-95275000D02*
X259950000Y-95275000D01*
X259950000Y-95275000D02*
X259950000Y-98225000D01*
X259950000Y-98225000D02*
X263000000Y-98225000D01*
X260150000Y-92725000D02*
X258900000Y-92725000D01*
X261000000Y-93025000D02*
X259200000Y-93025000D01*
X261000000Y-93775000D02*
X261000000Y-93025000D01*
X262500000Y-93025000D02*
X262500000Y-93775000D01*
X262500000Y-93775000D02*
X263500000Y-93775000D01*
X263500000Y-93025000D02*
X262500000Y-93025000D01*
X263500000Y-93775000D02*
X263500000Y-93025000D01*
X265000000Y-93025000D02*
X265000000Y-93775000D01*
X265000000Y-93775000D02*
X266800000Y-93775000D01*
X266050000Y-95275000D02*
X266050000Y-98225000D01*
X266050000Y-98225000D02*
X263000000Y-98225000D01*
X266800000Y-93025000D02*
X265000000Y-93025000D01*
X266800000Y-93775000D02*
X266800000Y-93025000D01*
X266800000Y-95275000D02*
X266050000Y-95275000D01*
X266810000Y-93015000D02*
X259190000Y-93015000D01*
X266810000Y-98985000D02*
X266810000Y-93015000D01*
%TO.C,U3*%
X195440000Y-114140000D02*
X194850000Y-114140000D01*
X195440000Y-114140000D02*
X195440000Y-109240000D01*
X195440000Y-116360000D02*
X194850000Y-116360000D01*
X195440000Y-118460000D02*
X195440000Y-116360000D01*
X199960000Y-96250000D02*
X199960000Y-97500000D01*
X200250000Y-96540000D02*
X200250000Y-102510000D01*
X200250000Y-102510000D02*
X215370000Y-102510000D01*
X200260000Y-96550000D02*
X200260000Y-97300000D01*
X200260000Y-97300000D02*
X202060000Y-97300000D01*
X200260000Y-98800000D02*
X201010000Y-98800000D01*
X201010000Y-98800000D02*
X201010000Y-101750000D01*
X201010000Y-101750000D02*
X207810000Y-101750000D01*
X201210000Y-96250000D02*
X199960000Y-96250000D01*
X202060000Y-96550000D02*
X200260000Y-96550000D01*
X202060000Y-97300000D02*
X202060000Y-96550000D01*
X203560000Y-96550000D02*
X203560000Y-97300000D01*
X203560000Y-97300000D02*
X212060000Y-97300000D01*
X205560000Y-109240000D02*
X195440000Y-109240000D01*
X205560000Y-114140000D02*
X205560000Y-109240000D01*
X205560000Y-118460000D02*
X195440000Y-118460000D01*
X205560000Y-118460000D02*
X205560000Y-116360000D01*
X206150000Y-114140000D02*
X205560000Y-114140000D01*
X206150000Y-116360000D02*
X205560000Y-116360000D01*
X209940000Y-114150000D02*
X209350000Y-114150000D01*
X209940000Y-114150000D02*
X209940000Y-109250000D01*
X209940000Y-116370000D02*
X209350000Y-116370000D01*
X209940000Y-118470000D02*
X209940000Y-116370000D01*
X212060000Y-96550000D02*
X203560000Y-96550000D01*
X212060000Y-97300000D02*
X212060000Y-96550000D01*
X213560000Y-96550000D02*
X213560000Y-97300000D01*
X213560000Y-97300000D02*
X215360000Y-97300000D01*
X214610000Y-98800000D02*
X214610000Y-101750000D01*
X214610000Y-101750000D02*
X207810000Y-101750000D01*
X215360000Y-96550000D02*
X213560000Y-96550000D01*
X215360000Y-97300000D02*
X215360000Y-96550000D01*
X215360000Y-98800000D02*
X214610000Y-98800000D01*
X215370000Y-96540000D02*
X200250000Y-96540000D01*
X215370000Y-102510000D02*
X215370000Y-96540000D01*
X220060000Y-109250000D02*
X209940000Y-109250000D01*
X220060000Y-114150000D02*
X220060000Y-109250000D01*
X220060000Y-118470000D02*
X209940000Y-118470000D01*
X220060000Y-118470000D02*
X220060000Y-116370000D01*
X220650000Y-114150000D02*
X220060000Y-114150000D01*
X220650000Y-116370000D02*
X220060000Y-116370000D01*
D14*
X224000000Y-95880000D02*
X192500000Y-95880000D01*
X192500000Y-117900000D01*
X224000000Y-117900000D01*
X224000000Y-95880000D01*
D15*
X194850000Y-116360000D02*
G75*
G02*
X194850000Y-114140000I0J1110000D01*
G01*
X206150000Y-114140000D02*
G75*
G02*
X206150000Y-116360000I0J-1110000D01*
G01*
X209350000Y-116370000D02*
G75*
G02*
X209350000Y-114150000I0J1110000D01*
G01*
X220650000Y-114150000D02*
G75*
G02*
X220650000Y-116370000I0J-1110000D01*
G01*
%TO.C,R3*%
X167250000Y-101130000D02*
X167250000Y-101900000D01*
X167250000Y-109210000D02*
X167250000Y-108440000D01*
X165880000Y-108440000D02*
X168620000Y-108440000D01*
X168620000Y-101900000D01*
X165880000Y-101900000D01*
X165880000Y-108440000D01*
%TO.C,R2*%
X167250000Y-113630000D02*
X167250000Y-114400000D01*
X167250000Y-121710000D02*
X167250000Y-120940000D01*
X165880000Y-120940000D02*
X168620000Y-120940000D01*
X168620000Y-114400000D01*
X165880000Y-114400000D01*
X165880000Y-120940000D01*
%TO.C,C9*%
X257437651Y-139435000D02*
X258237651Y-139435000D01*
X257837651Y-139035000D02*
X257837651Y-139835000D01*
X261847349Y-137670000D02*
X261847349Y-145830000D01*
X261887349Y-137670000D02*
X261887349Y-145830000D01*
X261927349Y-137671000D02*
X261927349Y-145829000D01*
X261967349Y-137672000D02*
X261967349Y-145828000D01*
X262007349Y-137673000D02*
X262007349Y-145827000D01*
X262047349Y-137675000D02*
X262047349Y-145825000D01*
X262087349Y-137677000D02*
X262087349Y-145823000D01*
X262127349Y-137680000D02*
X262127349Y-145820000D01*
X262167349Y-137682000D02*
X262167349Y-145818000D01*
X262207349Y-137686000D02*
X262207349Y-145814000D01*
X262247349Y-137689000D02*
X262247349Y-145811000D01*
X262287349Y-137694000D02*
X262287349Y-145806000D01*
X262327349Y-137698000D02*
X262327349Y-145802000D01*
X262367349Y-137703000D02*
X262367349Y-145797000D01*
X262407349Y-137708000D02*
X262407349Y-145792000D01*
X262447349Y-137714000D02*
X262447349Y-145786000D01*
X262487349Y-137720000D02*
X262487349Y-145780000D01*
X262527349Y-137727000D02*
X262527349Y-145773000D01*
X262567349Y-137733000D02*
X262567349Y-140710000D01*
X262567349Y-142790000D02*
X262567349Y-145767000D01*
X262607349Y-137741000D02*
X262607349Y-140710000D01*
X262607349Y-142790000D02*
X262607349Y-145759000D01*
X262647349Y-137748000D02*
X262647349Y-140710000D01*
X262647349Y-142790000D02*
X262647349Y-145752000D01*
X262687349Y-137757000D02*
X262687349Y-140710000D01*
X262687349Y-142790000D02*
X262687349Y-145743000D01*
X262727349Y-137765000D02*
X262727349Y-140710000D01*
X262727349Y-142790000D02*
X262727349Y-145735000D01*
X262767349Y-137774000D02*
X262767349Y-140710000D01*
X262767349Y-142790000D02*
X262767349Y-145726000D01*
X262807349Y-137783000D02*
X262807349Y-140710000D01*
X262807349Y-142790000D02*
X262807349Y-145717000D01*
X262847349Y-137793000D02*
X262847349Y-140710000D01*
X262847349Y-142790000D02*
X262847349Y-145707000D01*
X262887349Y-137803000D02*
X262887349Y-140710000D01*
X262887349Y-142790000D02*
X262887349Y-145697000D01*
X262927349Y-137814000D02*
X262927349Y-140710000D01*
X262927349Y-142790000D02*
X262927349Y-145686000D01*
X262967349Y-137825000D02*
X262967349Y-140710000D01*
X262967349Y-142790000D02*
X262967349Y-145675000D01*
X263007349Y-137837000D02*
X263007349Y-140710000D01*
X263007349Y-142790000D02*
X263007349Y-145663000D01*
X263047349Y-137849000D02*
X263047349Y-140710000D01*
X263047349Y-142790000D02*
X263047349Y-145651000D01*
X263087349Y-137861000D02*
X263087349Y-140710000D01*
X263087349Y-142790000D02*
X263087349Y-145639000D01*
X263127349Y-137874000D02*
X263127349Y-140710000D01*
X263127349Y-142790000D02*
X263127349Y-145626000D01*
X263167349Y-137887000D02*
X263167349Y-140710000D01*
X263167349Y-142790000D02*
X263167349Y-145613000D01*
X263207349Y-137901000D02*
X263207349Y-140710000D01*
X263207349Y-142790000D02*
X263207349Y-145599000D01*
X263247349Y-137915000D02*
X263247349Y-140710000D01*
X263247349Y-142790000D02*
X263247349Y-145585000D01*
X263287349Y-137930000D02*
X263287349Y-140710000D01*
X263287349Y-142790000D02*
X263287349Y-145570000D01*
X263327349Y-137945000D02*
X263327349Y-140710000D01*
X263327349Y-142790000D02*
X263327349Y-145555000D01*
X263367349Y-137961000D02*
X263367349Y-140710000D01*
X263367349Y-142790000D02*
X263367349Y-145539000D01*
X263407349Y-137977000D02*
X263407349Y-140710000D01*
X263407349Y-142790000D02*
X263407349Y-145523000D01*
X263447349Y-137993000D02*
X263447349Y-140710000D01*
X263447349Y-142790000D02*
X263447349Y-145507000D01*
X263487349Y-138010000D02*
X263487349Y-140710000D01*
X263487349Y-142790000D02*
X263487349Y-145490000D01*
X263527349Y-138028000D02*
X263527349Y-140710000D01*
X263527349Y-142790000D02*
X263527349Y-145472000D01*
X263567349Y-138046000D02*
X263567349Y-140710000D01*
X263567349Y-142790000D02*
X263567349Y-145454000D01*
X263607349Y-138065000D02*
X263607349Y-140710000D01*
X263607349Y-142790000D02*
X263607349Y-145435000D01*
X263647349Y-138084000D02*
X263647349Y-140710000D01*
X263647349Y-142790000D02*
X263647349Y-145416000D01*
X263687349Y-138104000D02*
X263687349Y-140710000D01*
X263687349Y-142790000D02*
X263687349Y-145396000D01*
X263727349Y-138124000D02*
X263727349Y-140710000D01*
X263727349Y-142790000D02*
X263727349Y-145376000D01*
X263767349Y-138145000D02*
X263767349Y-140710000D01*
X263767349Y-142790000D02*
X263767349Y-145355000D01*
X263807349Y-138166000D02*
X263807349Y-140710000D01*
X263807349Y-142790000D02*
X263807349Y-145334000D01*
X263847349Y-138188000D02*
X263847349Y-140710000D01*
X263847349Y-142790000D02*
X263847349Y-145312000D01*
X263887349Y-138211000D02*
X263887349Y-140710000D01*
X263887349Y-142790000D02*
X263887349Y-145289000D01*
X263927349Y-138234000D02*
X263927349Y-140710000D01*
X263927349Y-142790000D02*
X263927349Y-145266000D01*
X263967349Y-138257000D02*
X263967349Y-140710000D01*
X263967349Y-142790000D02*
X263967349Y-145243000D01*
X264007349Y-138282000D02*
X264007349Y-140710000D01*
X264007349Y-142790000D02*
X264007349Y-145218000D01*
X264047349Y-138307000D02*
X264047349Y-140710000D01*
X264047349Y-142790000D02*
X264047349Y-145193000D01*
X264087349Y-138332000D02*
X264087349Y-140710000D01*
X264087349Y-142790000D02*
X264087349Y-145168000D01*
X264127349Y-138358000D02*
X264127349Y-140710000D01*
X264127349Y-142790000D02*
X264127349Y-145142000D01*
X264167349Y-138385000D02*
X264167349Y-140710000D01*
X264167349Y-142790000D02*
X264167349Y-145115000D01*
X264207349Y-138413000D02*
X264207349Y-140710000D01*
X264207349Y-142790000D02*
X264207349Y-145087000D01*
X264247349Y-138441000D02*
X264247349Y-140710000D01*
X264247349Y-142790000D02*
X264247349Y-145059000D01*
X264287349Y-138470000D02*
X264287349Y-140710000D01*
X264287349Y-142790000D02*
X264287349Y-145030000D01*
X264327349Y-138500000D02*
X264327349Y-140710000D01*
X264327349Y-142790000D02*
X264327349Y-145000000D01*
X264367349Y-138531000D02*
X264367349Y-140710000D01*
X264367349Y-142790000D02*
X264367349Y-144969000D01*
X264407349Y-138562000D02*
X264407349Y-140710000D01*
X264407349Y-142790000D02*
X264407349Y-144938000D01*
X264447349Y-138594000D02*
X264447349Y-140710000D01*
X264447349Y-142790000D02*
X264447349Y-144906000D01*
X264487349Y-138627000D02*
X264487349Y-140710000D01*
X264487349Y-142790000D02*
X264487349Y-144873000D01*
X264527349Y-138661000D02*
X264527349Y-140710000D01*
X264527349Y-142790000D02*
X264527349Y-144839000D01*
X264567349Y-138695000D02*
X264567349Y-140710000D01*
X264567349Y-142790000D02*
X264567349Y-144805000D01*
X264607349Y-138731000D02*
X264607349Y-140710000D01*
X264607349Y-142790000D02*
X264607349Y-144769000D01*
X264647349Y-138768000D02*
X264647349Y-144732000D01*
X264687349Y-138805000D02*
X264687349Y-144695000D01*
X264727349Y-138844000D02*
X264727349Y-144656000D01*
X264767349Y-138883000D02*
X264767349Y-144617000D01*
X264807349Y-138924000D02*
X264807349Y-144576000D01*
X264847349Y-138966000D02*
X264847349Y-144534000D01*
X264887349Y-139009000D02*
X264887349Y-144491000D01*
X264927349Y-139054000D02*
X264927349Y-144446000D01*
X264967349Y-139099000D02*
X264967349Y-144401000D01*
X265007349Y-139146000D02*
X265007349Y-144354000D01*
X265047349Y-139195000D02*
X265047349Y-144305000D01*
X265087349Y-139245000D02*
X265087349Y-144255000D01*
X265127349Y-139297000D02*
X265127349Y-144203000D01*
X265167349Y-139350000D02*
X265167349Y-144150000D01*
X265207349Y-139406000D02*
X265207349Y-144094000D01*
X265247349Y-139463000D02*
X265247349Y-144037000D01*
X265287349Y-139523000D02*
X265287349Y-143977000D01*
X265327349Y-139585000D02*
X265327349Y-143915000D01*
X265367349Y-139649000D02*
X265367349Y-143851000D01*
X265407349Y-139716000D02*
X265407349Y-143784000D01*
X265447349Y-139786000D02*
X265447349Y-143714000D01*
X265487349Y-139860000D02*
X265487349Y-143640000D01*
X265527349Y-139937000D02*
X265527349Y-143563000D01*
X265567349Y-140019000D02*
X265567349Y-143481000D01*
X265607349Y-140106000D02*
X265607349Y-143394000D01*
X265647349Y-140198000D02*
X265647349Y-143302000D01*
X265687349Y-140297000D02*
X265687349Y-143203000D01*
X265727349Y-140404000D02*
X265727349Y-143096000D01*
X265767349Y-140522000D02*
X265767349Y-142978000D01*
X265807349Y-140653000D02*
X265807349Y-142847000D01*
X265847349Y-140803000D02*
X265847349Y-142697000D01*
X265887349Y-140982000D02*
X265887349Y-142518000D01*
X265927349Y-141217000D02*
X265927349Y-142283000D01*
X265967349Y-141750000D02*
G75*
G02*
X257727349Y-141750000I-4120000J0D01*
G01*
X257727349Y-141750000D02*
G75*
G02*
X265967349Y-141750000I4120000J0D01*
G01*
%TO.C,C5*%
X189384420Y-49990000D02*
X189665580Y-49990000D01*
X189384420Y-51010000D02*
X189665580Y-51010000D01*
%TO.C,SW1*%
X162250000Y-75300000D02*
X185377042Y-75300000D01*
X162250000Y-96200000D02*
X162250000Y-75300000D01*
X162250000Y-96200000D02*
X185377042Y-96200000D01*
X189500000Y-87500000D02*
X189500000Y-83300000D01*
X185377042Y-75300000D02*
G75*
G02*
X188000000Y-76235359I-2J-4145370D01*
G01*
X188000000Y-95264641D02*
G75*
G02*
X185377042Y-96200000I-2622953J3209990D01*
G01*
%TO.C,J23*%
X258900000Y-99750000D02*
X258900000Y-101000000D01*
X259190000Y-100040000D02*
X259190000Y-106010000D01*
X259190000Y-106010000D02*
X266810000Y-106010000D01*
X259200000Y-100050000D02*
X259200000Y-100800000D01*
X259200000Y-100800000D02*
X261000000Y-100800000D01*
X259200000Y-102300000D02*
X259950000Y-102300000D01*
X259950000Y-102300000D02*
X259950000Y-105250000D01*
X259950000Y-105250000D02*
X263000000Y-105250000D01*
X260150000Y-99750000D02*
X258900000Y-99750000D01*
X261000000Y-100050000D02*
X259200000Y-100050000D01*
X261000000Y-100800000D02*
X261000000Y-100050000D01*
X262500000Y-100050000D02*
X262500000Y-100800000D01*
X262500000Y-100800000D02*
X263500000Y-100800000D01*
X263500000Y-100050000D02*
X262500000Y-100050000D01*
X263500000Y-100800000D02*
X263500000Y-100050000D01*
X265000000Y-100050000D02*
X265000000Y-100800000D01*
X265000000Y-100800000D02*
X266800000Y-100800000D01*
X266050000Y-102300000D02*
X266050000Y-105250000D01*
X266050000Y-105250000D02*
X263000000Y-105250000D01*
X266800000Y-100050000D02*
X265000000Y-100050000D01*
X266800000Y-100800000D02*
X266800000Y-100050000D01*
X266800000Y-102300000D02*
X266050000Y-102300000D01*
X266810000Y-100040000D02*
X259190000Y-100040000D01*
X266810000Y-106010000D02*
X266810000Y-100040000D01*
%TO.C,U2*%
X227690000Y-114130000D02*
X227100000Y-114130000D01*
X227690000Y-114130000D02*
X227690000Y-109230000D01*
X227690000Y-116350000D02*
X227100000Y-116350000D01*
X227690000Y-118450000D02*
X227690000Y-116350000D01*
X232210000Y-96240000D02*
X232210000Y-97490000D01*
X232500000Y-96530000D02*
X232500000Y-102500000D01*
X232500000Y-102500000D02*
X247620000Y-102500000D01*
X232510000Y-96540000D02*
X232510000Y-97290000D01*
X232510000Y-97290000D02*
X234310000Y-97290000D01*
X232510000Y-98790000D02*
X233260000Y-98790000D01*
X233260000Y-98790000D02*
X233260000Y-101740000D01*
X233260000Y-101740000D02*
X240060000Y-101740000D01*
X233460000Y-96240000D02*
X232210000Y-96240000D01*
X234310000Y-96540000D02*
X232510000Y-96540000D01*
X234310000Y-97290000D02*
X234310000Y-96540000D01*
X235810000Y-96540000D02*
X235810000Y-97290000D01*
X235810000Y-97290000D02*
X244310000Y-97290000D01*
X237810000Y-109230000D02*
X227690000Y-109230000D01*
X237810000Y-114130000D02*
X237810000Y-109230000D01*
X237810000Y-118450000D02*
X227690000Y-118450000D01*
X237810000Y-118450000D02*
X237810000Y-116350000D01*
X238400000Y-114130000D02*
X237810000Y-114130000D01*
X238400000Y-116350000D02*
X237810000Y-116350000D01*
X242190000Y-114140000D02*
X241600000Y-114140000D01*
X242190000Y-114140000D02*
X242190000Y-109240000D01*
X242190000Y-116360000D02*
X241600000Y-116360000D01*
X242190000Y-118460000D02*
X242190000Y-116360000D01*
X244310000Y-96540000D02*
X235810000Y-96540000D01*
X244310000Y-97290000D02*
X244310000Y-96540000D01*
X245810000Y-96540000D02*
X245810000Y-97290000D01*
X245810000Y-97290000D02*
X247610000Y-97290000D01*
X246860000Y-98790000D02*
X246860000Y-101740000D01*
X246860000Y-101740000D02*
X240060000Y-101740000D01*
X247610000Y-96540000D02*
X245810000Y-96540000D01*
X247610000Y-97290000D02*
X247610000Y-96540000D01*
X247610000Y-98790000D02*
X246860000Y-98790000D01*
X247620000Y-96530000D02*
X232500000Y-96530000D01*
X247620000Y-102500000D02*
X247620000Y-96530000D01*
X252310000Y-109240000D02*
X242190000Y-109240000D01*
X252310000Y-114140000D02*
X252310000Y-109240000D01*
X252310000Y-118460000D02*
X242190000Y-118460000D01*
X252310000Y-118460000D02*
X252310000Y-116360000D01*
X252900000Y-114140000D02*
X252310000Y-114140000D01*
X252900000Y-116360000D02*
X252310000Y-116360000D01*
D14*
X256250000Y-95870000D02*
X224750000Y-95870000D01*
X224750000Y-117890000D01*
X256250000Y-117890000D01*
X256250000Y-95870000D01*
D15*
X227100000Y-116350000D02*
G75*
G02*
X227100000Y-114130000I0J1110000D01*
G01*
X238400000Y-114130000D02*
G75*
G02*
X238400000Y-116350000I0J-1110000D01*
G01*
X241600000Y-116360000D02*
G75*
G02*
X241600000Y-114140000I0J1110000D01*
G01*
X252900000Y-114140000D02*
G75*
G02*
X252900000Y-116360000I0J-1110000D01*
G01*
%TO.C,U5*%
X228100000Y-73640000D02*
X228690000Y-73640000D01*
X228100000Y-75860000D02*
X228690000Y-75860000D01*
X228690000Y-71540000D02*
X228690000Y-73640000D01*
X228690000Y-71540000D02*
X238810000Y-71540000D01*
X228690000Y-75860000D02*
X228690000Y-80760000D01*
X228690000Y-80760000D02*
X238810000Y-80760000D01*
X233380000Y-87500000D02*
X233380000Y-93470000D01*
X233380000Y-93470000D02*
X248500000Y-93470000D01*
X233390000Y-91210000D02*
X234140000Y-91210000D01*
X233390000Y-92710000D02*
X233390000Y-93460000D01*
X233390000Y-93460000D02*
X235190000Y-93460000D01*
X234140000Y-88260000D02*
X240940000Y-88260000D01*
X234140000Y-91210000D02*
X234140000Y-88260000D01*
X235190000Y-92710000D02*
X233390000Y-92710000D01*
X235190000Y-93460000D02*
X235190000Y-92710000D01*
X236690000Y-92710000D02*
X236690000Y-93460000D01*
X236690000Y-93460000D02*
X245190000Y-93460000D01*
X238810000Y-71540000D02*
X238810000Y-73640000D01*
X238810000Y-73640000D02*
X239400000Y-73640000D01*
X238810000Y-75860000D02*
X238810000Y-80760000D01*
X238810000Y-75860000D02*
X239400000Y-75860000D01*
X242600000Y-73650000D02*
X243190000Y-73650000D01*
X242600000Y-75870000D02*
X243190000Y-75870000D01*
X243190000Y-71550000D02*
X243190000Y-73650000D01*
X243190000Y-71550000D02*
X253310000Y-71550000D01*
X243190000Y-75870000D02*
X243190000Y-80770000D01*
X243190000Y-80770000D02*
X253310000Y-80770000D01*
X245190000Y-92710000D02*
X236690000Y-92710000D01*
X245190000Y-93460000D02*
X245190000Y-92710000D01*
X246690000Y-92710000D02*
X246690000Y-93460000D01*
X246690000Y-93460000D02*
X248490000Y-93460000D01*
X247540000Y-93760000D02*
X248790000Y-93760000D01*
X247740000Y-88260000D02*
X240940000Y-88260000D01*
X247740000Y-91210000D02*
X247740000Y-88260000D01*
X248490000Y-91210000D02*
X247740000Y-91210000D01*
X248490000Y-92710000D02*
X246690000Y-92710000D01*
X248490000Y-93460000D02*
X248490000Y-92710000D01*
X248500000Y-87500000D02*
X233380000Y-87500000D01*
X248500000Y-93470000D02*
X248500000Y-87500000D01*
X248790000Y-93760000D02*
X248790000Y-92510000D01*
X253310000Y-71550000D02*
X253310000Y-73650000D01*
X253310000Y-73650000D02*
X253900000Y-73650000D01*
X253310000Y-75870000D02*
X253310000Y-80770000D01*
X253310000Y-75870000D02*
X253900000Y-75870000D01*
D14*
X224750000Y-94130000D02*
X256250000Y-94130000D01*
X256250000Y-72110000D01*
X224750000Y-72110000D01*
X224750000Y-94130000D01*
D15*
X228100000Y-75860000D02*
G75*
G02*
X228100000Y-73640000I0J1110000D01*
G01*
X239400000Y-73640000D02*
G75*
G02*
X239400000Y-75860000I0J-1110000D01*
G01*
X242600000Y-75870000D02*
G75*
G02*
X242600000Y-73650000I0J1110000D01*
G01*
X253900000Y-73650000D02*
G75*
G02*
X253900000Y-75870000I0J-1110000D01*
G01*
%TO.C,J5*%
X258900000Y-106750000D02*
X258900000Y-108000000D01*
X259190000Y-107040000D02*
X259190000Y-113010000D01*
X259190000Y-113010000D02*
X266810000Y-113010000D01*
X259200000Y-107050000D02*
X259200000Y-107800000D01*
X259200000Y-107800000D02*
X261000000Y-107800000D01*
X259200000Y-109300000D02*
X259950000Y-109300000D01*
X259950000Y-109300000D02*
X259950000Y-112250000D01*
X259950000Y-112250000D02*
X263000000Y-112250000D01*
X260150000Y-106750000D02*
X258900000Y-106750000D01*
X261000000Y-107050000D02*
X259200000Y-107050000D01*
X261000000Y-107800000D02*
X261000000Y-107050000D01*
X262500000Y-107050000D02*
X262500000Y-107800000D01*
X262500000Y-107800000D02*
X263500000Y-107800000D01*
X263500000Y-107050000D02*
X262500000Y-107050000D01*
X263500000Y-107800000D02*
X263500000Y-107050000D01*
X265000000Y-107050000D02*
X265000000Y-107800000D01*
X265000000Y-107800000D02*
X266800000Y-107800000D01*
X266050000Y-109300000D02*
X266050000Y-112250000D01*
X266050000Y-112250000D02*
X263000000Y-112250000D01*
X266800000Y-107050000D02*
X265000000Y-107050000D01*
X266800000Y-107800000D02*
X266800000Y-107050000D01*
X266800000Y-109300000D02*
X266050000Y-109300000D01*
X266810000Y-107040000D02*
X259190000Y-107040000D01*
X266810000Y-113010000D02*
X266810000Y-107040000D01*
%TD*%
M02*
