%TF.GenerationSoftware,KiCad,Pcbnew,9.0.6*%
%TF.CreationDate,2026-05-01T18:52:39+09:00*%
%TF.ProjectId,TRC2027main,54524332-3032-4376-9d61-696e2e6b6963,rev?*%
%TF.SameCoordinates,Original*%
%TF.FileFunction,Profile,NP*%
%FSLAX46Y46*%
G04 Gerber Fmt 4.6, Leading zero omitted, Abs format (unit mm)*
G04 Created by KiCad (PCBNEW 9.0.6) date 2026-05-01 18:52:39*
%MOMM*%
%LPD*%
G01*
G04 APERTURE LIST*
%TA.AperFunction,Profile*%
%ADD10C,0.200000*%
%TD*%
%TA.AperFunction,Profile*%
%ADD11C,0.000100*%
%TD*%
%TA.AperFunction,Profile*%
%ADD12C,0.010050*%
%TD*%
G04 APERTURE END LIST*
D10*
X254200000Y-118000000D02*
X192200000Y-118000000D01*
X192200000Y-26500000D02*
X183200000Y-26500000D01*
X192200000Y-118000000D02*
X192200000Y-164000000D01*
X263200000Y-26500000D02*
X257200000Y-26500000D01*
X286250000Y18000000D02*
G75*
G02*
X283250000Y18000000I-1500000J0D01*
G01*
X283250000Y18000000D02*
G75*
G02*
X286250000Y18000000I1500000J0D01*
G01*
X257200000Y-72500000D02*
X254200000Y-72500000D01*
X167750000Y115000000D02*
X170750000Y115000000D01*
X183200000Y-164000000D02*
X192200000Y-164000000D01*
X257200000Y-118000000D02*
X257200000Y-164000000D01*
X268200000Y-29500000D02*
X268200000Y-26500000D01*
X268200000Y-161000000D02*
X268200000Y-164000000D01*
X167750000Y115000000D02*
X287750000Y115000000D01*
X161200000Y-164000000D02*
X183200000Y-164000000D01*
X254200000Y-118000000D02*
X257200000Y-118000000D01*
X287750000Y15000000D02*
X167750000Y15000000D01*
X254200000Y-118000000D02*
X223200000Y-118000000D01*
X165700000Y-161000000D02*
G75*
G02*
X162700000Y-161000000I-1500000J0D01*
G01*
X162700000Y-161000000D02*
G75*
G02*
X165700000Y-161000000I1500000J0D01*
G01*
X263200000Y-164000000D02*
X260200000Y-164000000D01*
X161200000Y-164000000D02*
X164200000Y-164000000D01*
X192200000Y-164000000D02*
X183200000Y-164000000D01*
X254200000Y-118000000D02*
X192200000Y-118000000D01*
X266700000Y-29500000D02*
G75*
G02*
X263700000Y-29500000I-1500000J0D01*
G01*
X263700000Y-29500000D02*
G75*
G02*
X266700000Y-29500000I1500000J0D01*
G01*
X254200000Y-72500000D02*
X223200000Y-72500000D01*
X266700000Y-161000000D02*
G75*
G02*
X263700000Y-161000000I-1500000J0D01*
G01*
X263700000Y-161000000D02*
G75*
G02*
X266700000Y-161000000I1500000J0D01*
G01*
X192200000Y-72500000D02*
X223200000Y-72500000D01*
X192200000Y-72500000D02*
X223200000Y-72500000D01*
X192200000Y-72500000D02*
X254200000Y-72500000D01*
X268200000Y-26500000D02*
X265200000Y-26500000D01*
X286250000Y112000000D02*
G75*
G02*
X283250000Y112000000I-1500000J0D01*
G01*
X283250000Y112000000D02*
G75*
G02*
X286250000Y112000000I1500000J0D01*
G01*
X263200000Y-26500000D02*
X268200000Y-26500000D01*
X287750000Y115000000D02*
X284750000Y115000000D01*
X287750000Y112000000D02*
X287750000Y115000000D01*
X192200000Y-26500000D02*
X183200000Y-26500000D01*
D11*
X263210000Y-26500000D02*
X263200000Y-26500000D01*
D12*
X263205025Y-26500000D02*
G75*
G02*
X263194975Y-26500000I-5025J0D01*
G01*
X263194975Y-26500000D02*
G75*
G02*
X263205025Y-26500000I5025J0D01*
G01*
D10*
X287750000Y115000000D02*
X287750000Y15000000D01*
X257200000Y-164000000D02*
X263200000Y-164000000D01*
X167750000Y15000000D02*
X167750000Y115000000D01*
X172250000Y18000000D02*
G75*
G02*
X169250000Y18000000I-1500000J0D01*
G01*
X169250000Y18000000D02*
G75*
G02*
X172250000Y18000000I1500000J0D01*
G01*
X183200000Y-164000000D02*
X186200000Y-164000000D01*
D12*
X170755025Y18000000D02*
G75*
G02*
X170744975Y18000000I-5025J0D01*
G01*
X170744975Y18000000D02*
G75*
G02*
X170755025Y18000000I5025J0D01*
G01*
D10*
X263200000Y-164000000D02*
X257200000Y-164000000D01*
X161200000Y-29500000D02*
X161200000Y-26500000D01*
X192200000Y-72500000D02*
X254200000Y-72500000D01*
X161200000Y-161000000D02*
X161200000Y-164000000D01*
X183200000Y-26500000D02*
X161200000Y-26500000D01*
X161400000Y-26500000D02*
X161400000Y-164000000D01*
X183200000Y-26500000D02*
X185200000Y-26500000D01*
X268200000Y-26500000D02*
X268200000Y-164000000D01*
X192200000Y-164000000D02*
X192200000Y-118000000D01*
X161200000Y-26500000D02*
X164200000Y-26500000D01*
X268200000Y-164000000D02*
X265200000Y-164000000D01*
X268200000Y-164000000D02*
X263200000Y-164000000D01*
X192200000Y-26500000D02*
X192200000Y-72500000D01*
X172250000Y112000000D02*
G75*
G02*
X169250000Y112000000I-1500000J0D01*
G01*
X169250000Y112000000D02*
G75*
G02*
X172250000Y112000000I1500000J0D01*
G01*
X192200000Y-72500000D02*
X192200000Y-26500000D01*
X257200000Y-26500000D02*
X263200000Y-26500000D01*
X167750000Y112000000D02*
X167750000Y115000000D01*
X165700000Y-29500000D02*
G75*
G02*
X162700000Y-29500000I-1500000J0D01*
G01*
X162700000Y-29500000D02*
G75*
G02*
X165700000Y-29500000I1500000J0D01*
G01*
X257200000Y-26500000D02*
X257200000Y-72500000D01*
M02*
